<svg xmlns="http://www.w3.org/2000/svg" xmlns:xlink="http://www.w3.org/1999/xlink" width="73.172" height="119.191" viewBox="0 0 73.172 119.191">
  <defs>
    <clipPath id="clip-path">
      <rect id="Rectangle_9" data-name="Rectangle 9" width="73.172" height="119.191" fill="none"/>
    </clipPath>
  </defs>
  <g id="CAT" transform="translate(36.586 59.595) rotate(180)">
    <g id="Group_27" data-name="Group 27" transform="translate(-36.586 -59.595)" clip-path="url(#clip-path)">
      <path id="Path_375" data-name="Path 375" d="M0,119.19a10.89,10.89,0,0,1,.086-1.178A12.249,12.249,0,0,0,.257,116a11.478,11.478,0,0,1,.171-2.184,7.152,7.152,0,0,0,.086-.835c.021-.214.021-.45.043-.664a30.814,30.814,0,0,0,.236-3.7,3.726,3.726,0,0,1,.064-.664,10.943,10.943,0,0,0,.214-2.206,7.345,7.345,0,0,1,.064-1.178,15.5,15.5,0,0,0,.128-2.356,19.444,19.444,0,0,1,.171-3.019,6.745,6.745,0,0,0,.064-.835,12.466,12.466,0,0,1,.193-2.185,2.463,2.463,0,0,0,.043-.513,24.712,24.712,0,0,1,.343-3.362c.171-1.178.257-2.356.45-3.512.064-.343.064-.664.107-1.006a7.516,7.516,0,0,1,.086-.835,19.957,19.957,0,0,0,.236-2.184c.086-.9.193-1.8.343-2.677q.471-2.741.814-5.5c.171-1.5.385-3.019.578-4.518a22.38,22.38,0,0,0,.385-2.677,5.952,5.952,0,0,0,.086-.664,32.036,32.036,0,0,1,.557-4.347c.064-.964.278-1.884.364-2.848s.257-2.013.321-3.019c.043-.493.15-1.006.236-1.5.214-1.435.407-2.891.6-4.347.107-.771.257-1.563.385-2.334s.321-1.649.45-2.484c.321-1.927.557-3.362,1.006-5.139a14.926,14.926,0,0,0,.45-3,19.658,19.658,0,0,1,.45-3.169c.107-.557.193-1.114.321-1.649a6.317,6.317,0,0,0,.15-1.5,3.448,3.448,0,0,1,.193-1.156,2.313,2.313,0,0,0,.107-.664c.021-1.735.278-3.469.278-5.225s.257-3.019.278-4.54.128-2.912.15-4.39c.021-.792.021-1.563.086-2.356a15.1,15.1,0,0,0-.064-2.848,8.094,8.094,0,0,1-.021-1.52A8.266,8.266,0,0,0,11.414,8.5c-.043-.278-.107-.557-.15-.835a1.37,1.37,0,0,1,.728-1.392,1.435,1.435,0,0,1,.471-.15,6.981,6.981,0,0,0,1.328-.193,6.767,6.767,0,0,1,1.5-.236l.835-.043a24.391,24.391,0,0,0,3.383-.3,11.906,11.906,0,0,1,2.527-.15l.664.064a2.034,2.034,0,0,1,1.178.6,5.739,5.739,0,0,1,.814,1.071A19.68,19.68,0,0,1,26,9.679c.278.728.6,1.456.942,2.163a9.7,9.7,0,0,1,.385.942c.278.792.6,1.563.9,2.377.385,1.114.857,2.206,1.328,3.276s1.135,2.7,1.649,4.069c.321.835.664,1.67,1.006,2.505.664,1.606,1.306,3.234,1.863,4.882a.535.535,0,0,0,.535.321,14.82,14.82,0,0,0,1.52-.107c.9-.15,1.8-.171,2.7-.236l.835-.107a.557.557,0,0,0,.407-.278,4.529,4.529,0,0,0,.236-.45,28.29,28.29,0,0,1,1.5-2.827c.385-.621.707-1.285,1.049-1.927.814-1.478,1.606-2.977,2.463-4.433s1.627-2.955,2.463-4.433c.557-.985,1.114-1.949,1.606-2.955a24.177,24.177,0,0,1,1.371-2.313c.343-.514.685-1.028.985-1.563.6-1.028,1.221-2.034,1.884-3a8.8,8.8,0,0,0,.835-1.478,7.259,7.259,0,0,1,.749-1.306,3.962,3.962,0,0,1,1.563-1.263l.321-.107L59.4,1.006A7.731,7.731,0,0,1,60.58.878C61.994.856,63.386.6,64.778.492,65.506.428,66.234.278,66.94.15A6.917,6.917,0,0,1,68.1,0a1.67,1.67,0,0,1,1.627,1.242,14.2,14.2,0,0,1,.493,2.313c.171,1.5.343,3.019.45,4.54a18.547,18.547,0,0,0,.278,2.356c.086.428.086.9.128,1.349s.086,1.006.171,1.5a22.356,22.356,0,0,1,.278,2.484,13.533,13.533,0,0,0,.236,2.013,11.756,11.756,0,0,1,.236,2.013c.043,1.071.15,2.141.278,3.191s.15,1.906.193,2.869c.086,1.285.128,2.591.3,3.876.043.343.043.664.064,1.006.128,2.356.193,4.733.257,7.088.043,1.349.064,2.7.086,4.047.021.728,0,1.456,0,2.184v1.52a18.437,18.437,0,0,1-.043,2.356,5.887,5.887,0,0,0-.021.664c0,1.97-.043,3.94,0,5.91.021,1.456.043,2.934-.064,4.39-.021.214,0,.45,0,.685,0,1.178-.021,2.356,0,3.555s0,2.356.043,3.533c.043,2.141.086,4.283.043,6.4a4.126,4.126,0,0,1-.021.514,33.363,33.363,0,0,0-.064,3.876l.128,7.773a46.626,46.626,0,0,1-.107,4.711c-.043.557-.043,1.114-.064,1.692a28.633,28.633,0,0,1-.15,2.869c-.064.557-.043,1.114-.064,1.692a22.654,22.654,0,0,1-.15,2.356,11.606,11.606,0,0,0-.086,1.178,16.576,16.576,0,0,1-.171,2.013,8.845,8.845,0,0,0-.107,1.178c-.021.728-.193,1.456-.236,2.184s-.107,1.456-.171,2.184c-.021.385-.086.792-.107,1.178a24.286,24.286,0,0,1-.214,2.7,9.723,9.723,0,0,0-.064,1.006c-.021.343-.021.685-.064,1.006-.15,1.006-.193,2.013-.257,3.019a4.155,4.155,0,0,1-.236,1.328L0,119.19M40.772,61.073a41.517,41.517,0,0,1-4.219.107H36.04a.557.557,0,0,0-.621.45c-.107.428-.214.878-.343,1.306a7.152,7.152,0,0,1-.343.964,3.883,3.883,0,0,1-2.206,2.184l-.942.364a.321.321,0,0,0-.193.257,6.076,6.076,0,0,0-.128.664c-.064.557-.064,1.135-.171,1.67a26.32,26.32,0,0,0-.214,3.191c-.043.664,0,1.349.021,2.013a.707.707,0,0,0,.171.471,3.041,3.041,0,0,0,1.221.857L33.577,76a2.4,2.4,0,0,0,1.328.021,5.011,5.011,0,0,0,1.542-.642,2.883,2.883,0,0,0,1.627-2.034,12.035,12.035,0,0,1,.45-1.263,1.306,1.306,0,0,1,1.37-.792,1.37,1.37,0,0,1,1.156,1.071,4.181,4.181,0,0,1,.043.493,2.248,2.248,0,0,1-.257,1.306c-.257.45-.428.921-.642,1.37a3.083,3.083,0,0,1-.685.964,6.937,6.937,0,0,1-.749.664,13.509,13.509,0,0,1-1.285.814,6.339,6.339,0,0,1-3.212.878,5.011,5.011,0,0,1-1.67-.236A7.216,7.216,0,0,1,29.573,77.2a1.178,1.178,0,0,0-.3-.128h-.15l-.3.15a3.983,3.983,0,0,1-1.435.493l-.835.171a3.919,3.919,0,0,1-1.349.043l-.664-.086a7.224,7.224,0,0,1-2.1-.642,1.97,1.97,0,0,1-.428-.257l-.792-.621a4.261,4.261,0,0,1-.814-.857,7.825,7.825,0,0,0-.514-.664,7.174,7.174,0,0,1-.878-1.435,3.041,3.041,0,0,1-.278-1.649,1.242,1.242,0,0,1,.343-.749,1.52,1.52,0,0,1,.878-.45h.171a1.478,1.478,0,0,1,1.178.857,1.092,1.092,0,0,1,.107.321,2.869,2.869,0,0,0,.621,1.37c.236.3.471.621.749.921A3.341,3.341,0,0,0,24.99,75.12,5.353,5.353,0,0,0,27,74.97a.835.835,0,0,0,.3-.15,1.713,1.713,0,0,0,.664-1.135,7.913,7.913,0,0,0,.043-1.006,4.776,4.776,0,0,1,.021-.664,10.642,10.642,0,0,0,.128-1.67c.021-.514.064-1.006.128-1.52s.15-1.349.214-2.013a.814.814,0,0,0-.385-.857,4.562,4.562,0,0,1-.964-.685,2.805,2.805,0,0,1-.878-1.413,9.636,9.636,0,0,1-.3-1.649c-.021-.278-.086-.557-.107-.835a.664.664,0,0,0-.343-.364,6.041,6.041,0,0,0-.664-.086c-1.242-.043-2.484-.086-3.7-.193h-.642c-1.756,0-3.469-.236-5.225-.3l-.493-.064a22.308,22.308,0,0,0-2.677-.343,13.9,13.9,0,0,0-2.7-.086.471.471,0,0,0-.343.321A18.216,18.216,0,0,0,8.8,62.1c-.086,1.006-.257,2.013-.407,3a40.387,40.387,0,0,0-.514,4.176c0,.214-.043.45-.064.664-.15,1.392-.45,2.784-.557,4.176-.171.707-.128,1.456-.278,2.163s-.15,1.349-.257,2.013-.214,1.456-.278,2.184a1.649,1.649,0,0,0,.043.321.364.364,0,0,0,.193.257A.685.685,0,0,0,7,81.159c1.178.107,2.334.321,3.533.364l.664.086c.985.193,2.013.171,3,.407s2.441.343,3.683.493a13.089,13.089,0,0,0,1.349.128c1.178.021,2.356.107,3.533.214s2.57.321,3.855.364l.493.064a11.372,11.372,0,0,0,1.67.171c.835.043,1.692.064,2.527.064l1.178.043c1.006.086,2.013.107,3.041.107s2.034.021,3.041.064l1.692.043c.685,0,1.349-.043,2.034-.021s1.906.021,2.869-.021l2.356-.064c1.906,0,3.812-.15,5.739-.236a6.553,6.553,0,0,0,1.328-.171.493.493,0,0,0,.364-.321,4,4,0,0,0,.214-1.156c.064-.964.086-1.906.236-2.848a4.134,4.134,0,0,0,.043-.514c.043-1.285.064-2.591.214-3.876a1.632,1.632,0,0,0,0-.171c.021-1.692.107-3.362.193-5.054s.043-3.255.236-4.882c.021-1.285.064-2.591.086-3.876a2.568,2.568,0,0,0-.043-.321.493.493,0,0,0-.364-.3,5.524,5.524,0,0,0-.664.021c-1.178.193-2.356.236-3.533.343a14.026,14.026,0,0,0-1.52.15c-.878.171-1.777.236-2.677.321a9.144,9.144,0,0,0-1.006.107,12.227,12.227,0,0,1-2.184.171l-3.383.086M56.7,43.256c.043-1.2.086-2.034.107-2.869.021-.514.021-1.006,0-1.52q-.021-2.7-.064-5.4-.021-.921-.043-1.863a3.429,3.429,0,0,0-.064-.493.45.45,0,0,0-.343-.321,4.283,4.283,0,0,0-1.178.064c-.9.128-1.777.236-2.677.278a7.281,7.281,0,0,0-1.006.107,21.522,21.522,0,0,1-3.341.364,9.359,9.359,0,0,0-1.349.15,16.831,16.831,0,0,1-2.184.236c-.728.043-1.456.086-2.184.193s-1.777.214-2.677.3-1.777.214-2.677.278a33.429,33.429,0,0,0-4.368.428c-.385.064-.792.086-1.178.128s-.9.086-1.349.15a18.117,18.117,0,0,1-2.184.236c-.835.043-1.692.107-2.527.107l-8.095.128a21.349,21.349,0,0,1-2.869-.086h-.493a.792.792,0,0,0-.749.557l-.621,3.148a16.66,16.66,0,0,0-.343,2.677,14.754,14.754,0,0,1-.407,2.827c-.257,1.092-.514,2.184-.707,3.3-.3,1.606-.514,3.212-.835,4.818-.107.942-.343,1.884-.407,2.827-.021.278-.086.557-.128.835s-.107,1.114-.171,1.67a.662.662,0,0,0,.043.171.707.707,0,0,0,.321.364,4.433,4.433,0,0,0,1.006.086,13.791,13.791,0,0,1,2.356.171c.771.128,1.563.171,2.334.321,1.52.064,3.019.214,4.54.3h.15c1.178.021,2.356.043,3.533.171.385.043.792.043,1.178.064a32.531,32.531,0,0,1,3.533.171,7.173,7.173,0,0,0,.835.021h5.054c.557,0,1.135,0,1.692.043a29.678,29.678,0,0,0,5.054-.086c.664-.064,1.349-.107,2.013-.128a40.86,40.86,0,0,0,6.039-.493l.835-.086c1.8-.107,3.576-.343,5.375-.514a1.628,1.628,0,0,0,.493-.107.764.764,0,0,0,.214-.236.321.321,0,0,0,.043-.15c.086-1.242.236-2.463.236-3.7s.043-2.463.128-3.7c.043-.835.043-1.692.043-2.527,0-1.242.021-2.484.021-3.362m-13.534,71.63h.707c1.349.107,2.7.086,4.047.086l4.39-.064.343-.043a.535.535,0,0,0,.321-.343.5.5,0,0,1,.043-.171c.257-1.606.193-3.255.407-4.882a13.489,13.489,0,0,0,.064-1.52,3.516,3.516,0,0,0-.043-.493.535.535,0,0,0-.321-.343,5.655,5.655,0,0,0-1.178-.043,20.6,20.6,0,0,1-3.041-.064h-.514c-1.349.043-2.7.043-4.047-.021h-.343c-1.627.086-3.255-.107-4.882-.043h-.321a12.463,12.463,0,0,0-2.184-.064,37.409,37.409,0,0,1-3.876-.107c-1.178-.086-2.356-.15-3.533-.171a5.806,5.806,0,0,1-.835-.064c-.728-.107-1.456-.15-2.184-.193-1.114-.086-2.248-.193-3.362-.321-.493-.064-1.006-.128-1.5-.15a7.858,7.858,0,0,1-1.349-.107c-.985-.214-2.013-.236-3-.407a20.21,20.21,0,0,0-2.377-.321c-1.563-.086-3.148-.278-4.711-.3a6.615,6.615,0,0,1-1.006-.086c-1.435-.257-2.891-.428-4.326-.728a.45.45,0,0,0-.514.321,8.009,8.009,0,0,0-.193,1.67,15.268,15.268,0,0,1-.193,2.527,7.153,7.153,0,0,0-.086,1.006l-.064,2.184a1.477,1.477,0,0,0,.043.321.385.385,0,0,0,.193.257,1.285,1.285,0,0,0,.493.128c1.221.171,2.463.257,3.683.493.771.15,1.563.236,2.334.321l1.328.214a15.7,15.7,0,0,0,3.169.385,8.734,8.734,0,0,1,1.5.171,22.638,22.638,0,0,0,3.7.364,10.689,10.689,0,0,1,1.52.107,17.107,17.107,0,0,0,2.013.15c.664.021,1.349.021,2.013.086a13.8,13.8,0,0,0,1.52.086h4.711a13.072,13.072,0,0,1,1.349.021,24.136,24.136,0,0,0,3.362.107l2.356-.043h2.184l2.141.043m.236-15.632c2.013-.171,4.047.107,6.06-.064a7.711,7.711,0,0,1,.835.021c1.071.043,2.141-.021,3.212-.064H53.6a.621.621,0,0,0,.471-.428,4.688,4.688,0,0,0,.064-.493c.043-1.563.128-3.148.236-4.711.021-.385.021-.792.021-1.178s-.021-.214-.043-.343a.606.606,0,0,0-.321-.364h-.835l-6.917.086c-1.071,0-2.141.021-3.212-.064s-1.8-.086-2.7-.107a11.605,11.605,0,0,1-1.178-.043,25.446,25.446,0,0,0-2.848-.193,6.466,6.466,0,0,1-.835-.064,15.352,15.352,0,0,0-2.527-.171,8.759,8.759,0,0,1-1.67-.128,18.8,18.8,0,0,0-2.184-.193l-2.184-.236H26.6c-.728,0-1.456-.128-2.184-.193s-1.563-.086-2.356-.128l-.493-.043a17.213,17.213,0,0,0-1.842-.171,9.23,9.23,0,0,1-1.006-.086,17.839,17.839,0,0,0-2.7-.193,9.784,9.784,0,0,1-1.178-.064A15.182,15.182,0,0,0,13,89.511a11.2,11.2,0,0,1-1.52-.086,17.518,17.518,0,0,0-2.848-.193A8.329,8.329,0,0,1,6.96,89.1c-.321-.064-.664-.086-1.006-.128A.792.792,0,0,0,5.61,89a.493.493,0,0,0-.257.193,2.527,2.527,0,0,0-.214.964c-.107,1.349-.343,2.677-.493,4a10.172,10.172,0,0,0-.086,2.013.364.364,0,0,0,.193.257,2.72,2.72,0,0,0,.985.171A23.878,23.878,0,0,1,9.1,96.92l.664.064c.343.043.664.043,1.006.107a16.551,16.551,0,0,0,1.842.193l3.7.3a20.6,20.6,0,0,1,2.163.3,12.055,12.055,0,0,0,2.184.236,8.951,8.951,0,0,1,1.349.128,8.01,8.01,0,0,0,1.178.15c1.349.043,2.7.214,4.026.278h.343l.835.086a14.842,14.842,0,0,0,2.184.15A11.241,11.241,0,0,1,32.271,99a11.372,11.372,0,0,0,2.013.128l1.692.043c2.356.128,4.711.257,7.088.15h.343M26.125,31.05a35.676,35.676,0,0,0,4.861-.493.407.407,0,0,0,.236-.407c-.428-1.285-.942-2.527-1.435-3.79s-.771-1.863-1.135-2.805c-.578-1.52-1.2-3.041-1.842-4.518a15.532,15.532,0,0,1-.771-1.863c-.364-1.114-.9-2.184-1.221-3.319a4.24,4.24,0,0,0-.321-.771A23.383,23.383,0,0,1,23.427,10.6,14.583,14.583,0,0,0,22.4,8.48a1.006,1.006,0,0,0-.985-.535,7.067,7.067,0,0,0-.835.064,20.965,20.965,0,0,1-2.677.278l-1.863.107-.493.086a.428.428,0,0,0-.236.385c.257.685.578,1.349.878,2.013s.878,1.82,1.263,2.762c.621,1.5,1.221,3.019,1.82,4.54.321.835.685,1.67.942,2.527s.621,1.927.9,2.891.728,2.484,1.071,3.726a27.453,27.453,0,0,0,1.2,3.512.471.471,0,0,0,.407.257c.792.064,1.563-.021,2.356-.021m32.892-14.09h.021v3.7c0,.171.021.343.021.514a.471.471,0,0,0,.535.493l1.006-.15a20.43,20.43,0,0,0,2.334-.343c.664-.15,1.328-.171,1.991-.385a1.971,1.971,0,0,1,.493-.086c1.135-.064,2.206-.385,3.319-.535a.6.6,0,0,0,.428-.642,7.987,7.987,0,0,0-.107-.835,9.658,9.658,0,0,1-.214-1.5,31.418,31.418,0,0,0-.385-3.512c-.021-.171-.043-.343-.064-.493a29.637,29.637,0,0,0-.321-3.041,3.277,3.277,0,0,1-.064-.493c-.086-1.8-.364-3.576-.514-5.375-.021-.278-.086-.557-.128-.835a.642.642,0,0,0-.621-.45H66.6c-.792.086-1.563.128-2.356.257a25.912,25.912,0,0,1-3.019.278c-.514.021-1.006.086-1.5.15a2.891,2.891,0,0,0-.493.128.685.685,0,0,0-.385.514A4.968,4.968,0,0,0,58.91,5.7,12.014,12.014,0,0,1,59.1,7.88q.043,1.435.064,2.869a13.018,13.018,0,0,1-.086,2.184,4.668,4.668,0,0,0-.043.664c0,1.135-.021,2.248-.021,3.383M63.171,99h.857c1.563-.15,3.126-.257,4.711-.321l.493-.064.171-.043a.75.75,0,0,0,.428-.471,18.93,18.93,0,0,0,.193-2.356c.021-.964.064-1.906.15-2.848.064-.621.043-1.242.064-1.842a.493.493,0,0,0-.578-.471l-1.5.193L67,90.945c-.9.086-1.8.171-2.677.321l-.664.064L60.3,91.5l-2.184.064-.493.064a.6.6,0,0,0-.364.321,6.208,6.208,0,0,0-.086.664c-.043.9-.021,1.8-.107,2.7s-.107,2.12-.15,3.191a2.765,2.765,0,0,0,.043.321.557.557,0,0,0,.343.343l.493.043,5.4-.128m-2.334,7.966h0l-3.7.086h-.343a.642.642,0,0,0-.535.557c-.021.343-.064.664-.086,1.006-.043.964-.086,1.906-.193,2.848s-.128,2.013-.15,3.019a.257.257,0,0,0,.193.257.878.878,0,0,0,.321.064,62.451,62.451,0,0,0,7.217-.428l.835-.086,1.52-.128a19.96,19.96,0,0,0,2.163-.3.578.578,0,0,0,.45-.45,8.438,8.438,0,0,0,.193-1.5c.043-.621.043-1.242.128-1.842.15-1.114.15-2.248.214-3.362,0-.064-.021-.107-.021-.171a.407.407,0,0,0-.471-.364,40.065,40.065,0,0,1-6.852.728H60.9m9.422-45.226h0V58.567a4.023,4.023,0,0,0-.064-.493.577.577,0,0,0-.364-.3,2.655,2.655,0,0,0-1.006.107c-1.563.471-3.191.642-4.775.964l-.493.064c-1.349.086-2.677.343-4,.493a.6.6,0,0,0-.557.535c-.086,1.349-.193,2.677-.214,4.026a20.835,20.835,0,0,1-.15,2.677,2.441,2.441,0,0,0,0,.343.493.493,0,0,0,.428.45,2.077,2.077,0,0,0,.835-.064,8.224,8.224,0,0,1,1.82-.278l.835-.043a11.541,11.541,0,0,0,1.82-.236,22.538,22.538,0,0,1,3.148-.557,3.318,3.318,0,0,0,.642-.15l.792-.257.792-.278a.621.621,0,0,0,.471-.6q0-1.606.021-3.191m-.128,19.872a.728.728,0,0,0,.171-.45c0-.385,0-.792,0-1.178q-.021-2.613-.064-5.225c0-.107-.021-.214-.021-.343v-.171a.428.428,0,0,0-.385-.236l-2.613.621a18.521,18.521,0,0,0-2.634.535,24.821,24.821,0,0,1-3.812.6c-.664.043-1.349.128-2.013.193a.621.621,0,0,0-.45.428l-.064.321c-.021.514-.043,1.006-.064,1.52a19.144,19.144,0,0,1-.171,2.184,14.9,14.9,0,0,0-.128,2.013c0,.064.021.107.021.171a.45.45,0,0,0,.45.407,57.074,57.074,0,0,0,6.039-.343c.493-.064,1.006-.086,1.5-.15a12.078,12.078,0,0,0,1.328-.15,19.642,19.642,0,0,0,2.934-.749m-10.707-46.6c.021.6.043,1.649.064,2.72,0,.214.043.45.064.664s.257.278.364.3A6.146,6.146,0,0,0,61.63,38.5a30.536,30.536,0,0,1,3.126-.685,12.57,12.57,0,0,0,1.627-.343c1.028-.3,2.034-.621,3.041-.942l.471-.171a.578.578,0,0,0,.278-.385.706.706,0,0,0,.043-.171c-.021-1.413-.021-2.805-.15-4.2-.064-.664-.107-1.349-.171-2.013a3.9,3.9,0,0,0-.107-.493.385.385,0,0,0-.385-.236c-.6.15-1.2.321-1.8.45s-1.221.193-1.82.278l-.171.043a8.137,8.137,0,0,1-1.67.236c-1.349.086-2.677.3-4,.471a.6.6,0,0,0-.514.578c0,1.242,0,2.463.021,4.176M56.4,9.443c0-.45-.021-.9-.043-1.349a5.761,5.761,0,0,0-.107-.664.343.343,0,0,0-.193-.257.214.214,0,0,0-.278.064,14.433,14.433,0,0,0-1.2,1.82c-.535.921-1.092,1.82-1.692,2.72a23.9,23.9,0,0,0-1.328,2.356c-.257.493-.514,1.006-.792,1.478-.642,1.114-1.285,2.248-1.842,3.4a7.346,7.346,0,0,1-.407.728c-.664,1.049-1.221,2.141-1.82,3.234a1.242,1.242,0,0,0-.107.321.171.171,0,0,0,.171.236,11.97,11.97,0,0,0,2.505-.236l1.328-.193a8.084,8.084,0,0,0,1.006-.128,22.12,22.12,0,0,1,2.677-.343,8.116,8.116,0,0,0,1.478-.278l.15-.064a.557.557,0,0,0,.278-.385c.043-1.071.086-2.12.128-3.191v-.835c0-1.349-.021-2.7-.021-4.047,0-.835.021-1.692.086-2.527a16.342,16.342,0,0,0,.043-1.842M64.2,51.8v.043a13.245,13.245,0,0,0,1.328-.15c.771-.15,1.542-.236,2.334-.343a12.656,12.656,0,0,0,2.12-.471.664.664,0,0,0,.3-.385c0-.064.043-.107.043-.171.021-2.291,0-4.6.086-6.9a.535.535,0,0,0-.021-.171l-.064-.15a.236.236,0,0,0-.278-.15c-.814.193-1.585.514-2.42.707s-1.97.407-2.955.664l-1.8.385-2.977.557-.15.043a.75.75,0,0,0-.278.385c-.064.942-.043,1.906-.043,2.848a17,17,0,0,1-.064,2.013,6.617,6.617,0,0,0-.021,1.5.45.45,0,0,0,.364.3l2.655-.343,1.82-.257m-49.7-37.5a.985.985,0,0,0-.128.3c-.043.664-.043,1.349-.15,2.013a3.255,3.255,0,0,0-.021.514c0,1.178-.021,2.356-.021,3.533a9.272,9.272,0,0,1-.043,1.006c-.128,1.006-.128,2.013-.193,3.019-.021.385-.043.792-.086,1.178a16.445,16.445,0,0,0-.128,1.842c-.021.835-.064,1.692-.15,2.527a3.384,3.384,0,0,0,.021.493.45.45,0,0,0,.343.321c.664.043,1.349.128,2.013.15,1.285.021,2.591,0,3.876,0a1.585,1.585,0,0,0,.321-.064c.128-.021.171-.107.15-.257a10.685,10.685,0,0,0-.493-1.606c-.6-2.163-1.2-4.326-1.863-6.467-.364-1.156-.771-2.334-1.2-3.49-.578-1.52-1.2-3.019-1.82-4.54a1.049,1.049,0,0,0-.171-.3,1.392,1.392,0,0,0-.257-.193" transform="translate(0 0)"/>
      <path id="Path_376" data-name="Path 376" d="M64.348,280.69l3.383-.086a12.263,12.263,0,0,0,2.184-.171,9.038,9.038,0,0,1,1.006-.107c.9-.086,1.8-.15,2.677-.321a14.012,14.012,0,0,1,1.52-.15c1.178-.086,2.356-.15,3.533-.343a5.573,5.573,0,0,1,.664-.021.493.493,0,0,1,.364.3,2.527,2.527,0,0,1,.043.321c-.021,1.285-.064,2.591-.086,3.876-.193,1.627-.15,3.255-.236,4.882s-.171,3.362-.193,5.054v.171c-.15,1.285-.171,2.591-.214,3.876a4.129,4.129,0,0,1-.043.514c-.15.942-.171,1.906-.236,2.848a4.005,4.005,0,0,1-.214,1.156.493.493,0,0,1-.364.321,6.554,6.554,0,0,1-1.328.171c-1.906.086-3.812.236-5.739.236l-2.356.064c-.964.021-1.906.064-2.869.021s-1.349,0-2.034.021l-1.692-.043c-1.006-.064-2.034-.064-3.041-.064a28.856,28.856,0,0,1-3.041-.107l-1.178-.043c-.835.021-1.692-.021-2.527-.064a11.391,11.391,0,0,1-1.67-.171l-.493-.064c-1.306-.021-2.57-.236-3.855-.364s-2.356-.193-3.533-.214a13.07,13.07,0,0,1-1.349-.129c-1.221-.15-2.441-.407-3.683-.492a21.639,21.639,0,0,1-3-.407l-.664-.086c-1.178-.021-2.356-.257-3.533-.364a.685.685,0,0,1-.321-.107.364.364,0,0,1-.193-.257,1.649,1.649,0,0,1-.043-.321c.064-.728.15-1.456.278-2.184s.107-1.349.257-2.013.107-1.456.278-2.163c.128-1.392.407-2.784.557-4.176.021-.214.064-.45.064-.664a40.451,40.451,0,0,1,.514-4.176c.15-1.006.321-1.992.407-3,.043-.621.193-1.221.278-1.842a.471.471,0,0,1,.343-.321,13.9,13.9,0,0,1,2.7.086c.9.129,1.8.129,2.677.343l.493.064c1.735.064,3.469.321,5.225.3h.707c1.242.107,2.463.15,3.7.193a6.079,6.079,0,0,1,.664.086.664.664,0,0,1,.343.364,5.571,5.571,0,0,1,.107.835,9.659,9.659,0,0,0,.3,1.649,2.806,2.806,0,0,0,.878,1.413,4.561,4.561,0,0,0,.964.685.814.814,0,0,1,.385.857c-.064.664-.15,1.349-.214,2.013s-.107,1.006-.128,1.52a10.643,10.643,0,0,1-.128,1.67,4.776,4.776,0,0,0-.021.664c-.021.343,0,.685-.043,1.006a1.713,1.713,0,0,1-.664,1.135.837.837,0,0,1-.3.15,5.333,5.333,0,0,1-2.013.15,3.341,3.341,0,0,1-2.206-1.135c-.257-.3-.493-.621-.749-.921a2.869,2.869,0,0,1-.621-1.371,1.092,1.092,0,0,0-.107-.321,1.478,1.478,0,0,0-1.178-.857h-.171a1.521,1.521,0,0,0-.878.45,1.242,1.242,0,0,0-.343.75,3.041,3.041,0,0,0,.278,1.649,7.176,7.176,0,0,0,.878,1.435c.171.214.343.45.514.664a4.259,4.259,0,0,0,.814.857l.792.621a1.971,1.971,0,0,0,.428.257,7.223,7.223,0,0,0,2.1.642l.664.086a3.9,3.9,0,0,0,1.349-.043l.835-.171a3.982,3.982,0,0,0,1.435-.492l.3-.15h.15a1.158,1.158,0,0,1,.3.128,7.186,7.186,0,0,0,3.019,1.413,5.009,5.009,0,0,0,1.67.236,6.338,6.338,0,0,0,3.212-.878,13.517,13.517,0,0,0,1.285-.814,6.957,6.957,0,0,0,.749-.664,3.084,3.084,0,0,0,.685-.964,13.415,13.415,0,0,1,.642-1.371,2.248,2.248,0,0,0,.257-1.306c-.021-.171-.021-.343-.043-.492a1.37,1.37,0,0,0-1.156-1.071,1.306,1.306,0,0,0-1.371.792,12,12,0,0,0-.45,1.263,2.936,2.936,0,0,1-1.627,2.034,4.992,4.992,0,0,1-1.542.642,2.4,2.4,0,0,1-1.328-.021l-1.285-.428a3.041,3.041,0,0,1-1.221-.857.707.707,0,0,1-.171-.471c-.021-.664-.064-1.349-.021-2.013a26.318,26.318,0,0,1,.214-3.191c.107-.557.107-1.113.171-1.67.021-.214.086-.45.128-.664A.321.321,0,0,1,55.2,286l.942-.364a3.884,3.884,0,0,0,2.206-2.184,7.173,7.173,0,0,0,.343-.964c.128-.428.236-.878.343-1.306a.557.557,0,0,1,.621-.45h.514a41.522,41.522,0,0,0,4.219-.107" transform="translate(-23.576 -219.617)" fill="#fff"/>
      <path id="Path_377" data-name="Path 377" d="M91.911,156.051c0,.9,0,2.12-.021,3.362,0,.835,0,1.692-.043,2.527q-.107,1.863-.128,3.7c-.021,1.242-.15,2.463-.236,3.7a.321.321,0,0,1-.043.15.764.764,0,0,1-.214.236,1.628,1.628,0,0,1-.493.107c-1.8.15-3.576.407-5.375.514l-.835.086a40.84,40.84,0,0,1-6.039.493c-.664.021-1.349.064-2.013.128a29.675,29.675,0,0,1-5.054.086c-.557-.043-1.114-.043-1.692-.043H64.651a7.175,7.175,0,0,1-.835-.021,32.528,32.528,0,0,0-3.533-.171,10.863,10.863,0,0,1-1.178-.064c-1.178-.129-2.356-.15-3.533-.171H55.4c-1.52-.064-3.019-.236-4.54-.3-.771-.15-1.563-.193-2.334-.321a13.814,13.814,0,0,0-2.356-.171,4.409,4.409,0,0,1-1.006-.086.707.707,0,0,1-.321-.364c0-.064-.043-.107-.043-.171.043-.557.107-1.113.171-1.67s.107-.557.128-.835c.064-.964.321-1.884.407-2.827.343-1.585.557-3.212.835-4.818.214-1.114.45-2.206.707-3.3a14.754,14.754,0,0,0,.407-2.827,16.66,16.66,0,0,1,.343-2.677l.621-3.148a.792.792,0,0,1,.749-.557h.514a21.386,21.386,0,0,0,2.869.086l8.094-.129c.835-.021,1.692-.064,2.527-.107a18.077,18.077,0,0,0,2.184-.236c.45-.086.9-.107,1.349-.15s.792-.064,1.178-.129a33.381,33.381,0,0,1,4.368-.428c.9-.043,1.777-.193,2.677-.278s1.8-.15,2.677-.3a17.114,17.114,0,0,1,2.184-.193,16.866,16.866,0,0,0,2.184-.236,9.359,9.359,0,0,1,1.349-.15,21.522,21.522,0,0,0,3.341-.364,7.324,7.324,0,0,1,1.006-.107c.9-.064,1.8-.15,2.677-.278a4.284,4.284,0,0,1,1.178-.064.45.45,0,0,1,.343.321,4.453,4.453,0,0,1,.064.493q.021.921.043,1.863.043,2.7.064,5.4c0,.514,0,1.006-.021,1.52-.021.835-.064,1.692-.107,2.869m-32.1-6.745h0c-.621.021-1.242.086-1.863.086s-1.349-.064-2.013-.086H54.758a6.209,6.209,0,0,0-1.842.257,2.912,2.912,0,0,0-.621.278,1.456,1.456,0,0,0-.728,1.071c-.064.321-.043.685-.107,1.006-.214,1.092-.364,2.227-.578,3.319a10.065,10.065,0,0,0-.257,1.67,13.6,13.6,0,0,1-.343,1.82,22.057,22.057,0,0,1-.535,2.463c-.236.878-.407,1.756-.578,2.634s-.214,1.456-.3,2.163a.9.9,0,0,0,.043.343,2.013,2.013,0,0,0,1.135,1.371l.321.086,1.006.064a5.049,5.049,0,0,1,.835.107,5.74,5.74,0,0,0,1.5.171,6.508,6.508,0,0,1,1.5.15,3.321,3.321,0,0,0,.664.064c.835,0,1.692.043,2.527,0,1.735-.064,3.49,0,5.225.043s3.49.021,5.225.043c.792,0,1.585,0,2.356.043a14.986,14.986,0,0,0,1.52,0c.493-.021,1.006.043,1.52.043a5.417,5.417,0,0,0,1.006-.064,16.575,16.575,0,0,1,2.184-.171,46.938,46.938,0,0,0,5.2-.45l.835-.086a10.992,10.992,0,0,0,1.178-.128c.385-.086.9,0,1.349-.086a1.349,1.349,0,0,0,.942-.642,1.842,1.842,0,0,0,.278-.792,7.164,7.164,0,0,1,.107-1.349,5.011,5.011,0,0,0,.128-1.349c0-.835,0-1.692-.021-2.527a31.24,31.24,0,0,1,.107-3.533,26.36,26.36,0,0,0,.128-3.041c0-.685.021-1.349.021-2.034s-.021-1.906-.043-2.87A1.863,1.863,0,0,0,87.071,148l-.364-.343a1.349,1.349,0,0,0-.921-.343,7.176,7.176,0,0,0-1.5.193,26.537,26.537,0,0,1-4.84.642,12.915,12.915,0,0,0-2.184.193,4.88,4.88,0,0,1-.664.064c-2.184.107-4.368.3-6.574.321l-.835.064a10.233,10.233,0,0,1-1.52.064,14.307,14.307,0,0,0-2.184.107,13.036,13.036,0,0,1-1.349.086l-4.39.15" transform="translate(-35.207 -112.794)" fill="#fff"/>
      <path id="Path_378" data-name="Path 378" d="M56.016,496.28l-2.141-.043H51.669l-2.356.043a24.136,24.136,0,0,1-3.362-.107,13.158,13.158,0,0,0-1.349-.021H39.87c-.514,0-1.006-.043-1.52-.086s-1.349-.086-2.013-.086a17.1,17.1,0,0,1-2.013-.15,10.7,10.7,0,0,0-1.52-.107,22.642,22.642,0,0,1-3.683-.45,8.807,8.807,0,0,0-1.5-.171,15.669,15.669,0,0,1-3.169-.385l-1.328-.214c-.792-.086-1.563-.171-2.334-.321-1.221-.257-2.441-.343-3.683-.493a1.283,1.283,0,0,1-.471-.128.385.385,0,0,1-.193-.257,1.477,1.477,0,0,1-.043-.321l.064-2.184a7.175,7.175,0,0,1,.086-1.007,15.246,15.246,0,0,0,.193-2.527,8.031,8.031,0,0,1,.193-1.67.45.45,0,0,1,.514-.321c1.435.3,2.891.493,4.326.728a6.619,6.619,0,0,0,1.006.086c1.585.021,3.148.236,4.711.3a20.3,20.3,0,0,1,2.313.321c1.006.171,2.013.193,3,.407a7.872,7.872,0,0,0,1.349.107c.514.021,1.006.086,1.5.15,1.114.128,2.227.236,3.362.321.728.064,1.456.086,2.184.193a5.753,5.753,0,0,0,.835.064c1.178.021,2.356.086,3.533.171a37.418,37.418,0,0,0,3.876.107,12.437,12.437,0,0,1,2.184.064h.343c1.627-.064,3.255.128,4.882.043h.364c1.349.064,2.7.064,4.047.021h.514a20.541,20.541,0,0,0,3.041.064,5.635,5.635,0,0,1,1.178.043.536.536,0,0,1,.321.343,4.179,4.179,0,0,1,.043.492,13.528,13.528,0,0,1-.064,1.52c-.214,1.627-.15,3.255-.407,4.882,0,.064-.043.107-.043.171a.536.536,0,0,1-.321.343l-.343.043-4.39.064c-1.349,0-2.7.043-4.047-.086h-.707" transform="translate(-12.888 -381.351)" fill="#fff"/>
      <path id="Path_379" data-name="Path 379" d="M59.943,425.729H59.6c-2.356.086-4.711-.021-7.088-.15l-1.692-.043a11.382,11.382,0,0,1-2.013-.129,11.275,11.275,0,0,0-1.692-.086,14.775,14.775,0,0,1-2.184-.15l-.835-.086h-.3c-1.349-.064-2.677-.236-4.026-.278a8.041,8.041,0,0,1-1.178-.15,8.936,8.936,0,0,0-1.349-.129,12.041,12.041,0,0,1-2.184-.236,20.533,20.533,0,0,0-2.163-.3l-3.7-.3a16.523,16.523,0,0,1-1.842-.193,7.628,7.628,0,0,0-1.006-.107,4.32,4.32,0,0,1-.664-.064,23.862,23.862,0,0,0-3.362-.321,2.718,2.718,0,0,1-.985-.171.385.385,0,0,1-.193-.257,10.192,10.192,0,0,1,.086-2.013c.15-1.349.407-2.677.493-4a2.527,2.527,0,0,1,.236-.985.471.471,0,0,1,.257-.193.793.793,0,0,1,.343-.021c.343.043.664.064,1.006.129a8.317,8.317,0,0,0,1.67.15,17.51,17.51,0,0,1,2.848.193,11.2,11.2,0,0,0,1.52.086,15.158,15.158,0,0,1,1.842.128,9.773,9.773,0,0,0,1.178.064,17.868,17.868,0,0,1,2.7.193,9.139,9.139,0,0,0,1.006.086,17.189,17.189,0,0,1,1.842.171l.493.043c.792.043,1.585.043,2.356.128a19.665,19.665,0,0,0,2.184.193h.343l2.184.236a18.8,18.8,0,0,1,2.184.193,8.762,8.762,0,0,0,1.67.129,15.329,15.329,0,0,1,2.527.171,6.46,6.46,0,0,0,.835.064c.964.043,1.906.086,2.848.193a11.634,11.634,0,0,0,1.178.043c.9.021,1.8.043,2.7.107s2.141.064,3.212.064l6.917-.086h.835c.107,0,.3.236.321.364a1.874,1.874,0,0,1,.043.343c0,.128,0,.792-.021,1.178-.107,1.563-.193,3.148-.236,4.711a4.673,4.673,0,0,1-.064.493.621.621,0,0,1-.471.428h-.171c-1.071.064-2.141.107-3.212.064a7.766,7.766,0,0,0-.835-.021c-2.013.15-4.047-.107-6.06.064" transform="translate(-16.601 -326.411)" fill="#fff"/>
      <path id="Path_380" data-name="Path 380" d="M82.235,60.268c-.792,0-1.563.086-2.356.021a.471.471,0,0,1-.407-.257,27.45,27.45,0,0,1-1.2-3.512c-.343-1.242-.707-2.484-1.071-3.726s-.621-1.927-.9-2.891a23.072,23.072,0,0,0-.942-2.527c-.6-1.52-1.2-3.041-1.82-4.54-.385-.942-.835-1.842-1.263-2.762a17.522,17.522,0,0,1-.878-2.013.428.428,0,0,1,.236-.385l.493-.086,1.863-.107a20.966,20.966,0,0,0,2.677-.236,7.088,7.088,0,0,1,.835-.064,1.006,1.006,0,0,1,.985.535,14.582,14.582,0,0,1,1.028,2.12,23.367,23.367,0,0,0,1.071,2.484,4.26,4.26,0,0,1,.321.771c.321,1.135.857,2.206,1.221,3.319.214.642.514,1.242.771,1.863.664,1.5,1.263,3,1.842,4.518.364.942.771,1.884,1.135,2.805s1.006,2.505,1.435,3.79a.407.407,0,0,1-.236.407,35.676,35.676,0,0,1-4.84.471" transform="translate(-56.11 -29.218)" fill="#fff"/>
      <path id="Path_381" data-name="Path 381" d="M275,27.983c0-1.135,0-2.248.021-3.383a4.721,4.721,0,0,1,.043-.664,13.015,13.015,0,0,0,.086-2.184q-.021-1.435-.064-2.869a12.007,12.007,0,0,0-.193-2.184,4.968,4.968,0,0,1-.064-1.349.685.685,0,0,1,.385-.514,2.89,2.89,0,0,1,.493-.128c.493-.064,1.006-.128,1.5-.15a25.868,25.868,0,0,0,3-.3c.771-.128,1.563-.171,2.356-.257h.171a.643.643,0,0,1,.621.45c.043.278.107.557.128.835.15,1.8.428,3.576.514,5.375a3.239,3.239,0,0,0,.064.493,29.626,29.626,0,0,1,.343,3.019,3.435,3.435,0,0,0,.064.493,31.374,31.374,0,0,1,.385,3.512,9.7,9.7,0,0,0,.214,1.5,7.875,7.875,0,0,1,.107.835.6.6,0,0,1-.428.642c-1.114.15-2.206.493-3.319.535a1.971,1.971,0,0,0-.493.086,15.574,15.574,0,0,1-1.991.385,20.471,20.471,0,0,1-2.334.343l-1.006.15a.471.471,0,0,1-.535-.493c0-.171-.021-.343-.021-.514V27.983h-.021" transform="translate(-215.961 -11.002)" fill="#fff"/>
      <path id="Path_382" data-name="Path 382" d="M272.074,431.074l-5.4.128-.492-.043a.557.557,0,0,1-.343-.343,2.8,2.8,0,0,1-.043-.321c.021-1.071.064-2.12.15-3.191s.064-1.8.086-2.7a6.274,6.274,0,0,1,.086-.664.6.6,0,0,1,.364-.321l.493-.064,2.184-.064,3.362-.171.664-.064c.878-.15,1.777-.214,2.677-.321l1.156-.171,1.5-.193a.492.492,0,0,1,.578.471,13.128,13.128,0,0,1-.064,1.842c-.107.942-.129,1.906-.15,2.848a18.927,18.927,0,0,1-.193,2.356.75.75,0,0,1-.428.471l-.171.043-.493.064c-1.563.064-3.148.171-4.711.321h-.835" transform="translate(-208.881 -332.077)" fill="#fff"/>
      <path id="Path_383" data-name="Path 383" d="M265.653,496.808h.835a40.038,40.038,0,0,0,6.853-.728.407.407,0,0,1,.471.364c0,.064.021.107.021.171-.064,1.113-.064,2.248-.214,3.362-.086.621-.086,1.242-.128,1.842a8.434,8.434,0,0,1-.193,1.5.578.578,0,0,1-.45.45,19.853,19.853,0,0,1-2.163.3l-1.52.129-.835.086a58.277,58.277,0,0,1-7.217.428.879.879,0,0,1-.321-.064.257.257,0,0,1-.193-.257c.043-1.006.043-2.013.15-3.019s.171-1.906.193-2.848c.021-.343.043-.664.086-1.006a.642.642,0,0,1,.535-.557h.343l3.7-.086h0" transform="translate(-204.795 -389.845)" fill="#fff"/>
      <path id="Path_384" data-name="Path 384" d="M285.584,273.646q0,1.606-.021,3.191a.621.621,0,0,1-.471.6l-.792.278-.792.257a3.32,3.32,0,0,1-.642.15,31.226,31.226,0,0,0-3.148.557,11.546,11.546,0,0,1-1.82.236l-.835.043a8.226,8.226,0,0,0-1.82.278,2.077,2.077,0,0,1-.835.064.493.493,0,0,1-.428-.45,2.45,2.45,0,0,1,0-.343,20.814,20.814,0,0,0,.15-2.677c.021-1.349.128-2.677.214-4.026a.6.6,0,0,1,.557-.535c1.349-.128,2.655-.407,4-.471l.492-.064c1.585-.321,3.212-.514,4.775-.964a2.634,2.634,0,0,1,1.007-.107c.128.021.364.171.364.3a4.016,4.016,0,0,1,.064.492v3.191Z" transform="translate(-215.304 -211.909)" fill="#fff"/>
      <path id="Path_385" data-name="Path 385" d="M282.57,353.2a17.342,17.342,0,0,1-2.934.749,12.085,12.085,0,0,1-1.328.15c-.493.043-1.006.064-1.5.15a47.588,47.588,0,0,1-6.039.343.45.45,0,0,1-.45-.407c0-.064-.021-.107-.021-.171a14.9,14.9,0,0,1,.128-2.013,19.147,19.147,0,0,0,.171-2.184c.021-.514.043-1.007.064-1.52a1.71,1.71,0,0,1,.064-.321.621.621,0,0,1,.45-.428c.664-.064,1.328-.15,2.013-.193a24.776,24.776,0,0,0,3.812-.6,18.523,18.523,0,0,1,2.634-.535l2.612-.621a.428.428,0,0,1,.385.236c0,.064.021.107.021.171s.021.214.021.343q.043,2.612.064,5.225v1.178a.728.728,0,0,1-.171.45" transform="translate(-212.417 -271.593)" fill="#fff"/>
      <path id="Path_386" data-name="Path 386" d="M277.721,140.827c0-1.713-.021-2.955-.021-4.176a.6.6,0,0,1,.514-.578c1.328-.15,2.655-.385,4-.471a8.138,8.138,0,0,0,1.67-.236l.171-.043c.6-.086,1.221-.171,1.82-.278s1.2-.3,1.8-.45a.385.385,0,0,1,.385.236,3.9,3.9,0,0,1,.107.493c.064.664.107,1.349.171,2.013.128,1.392.128,2.805.15,4.2a.7.7,0,0,1-.043.171.578.578,0,0,1-.278.385l-.471.171c-1.007.321-2.034.664-3.041.942a12.617,12.617,0,0,1-1.649.343,30.553,30.553,0,0,0-3.126.685,6.148,6.148,0,0,1-1.649.236.567.567,0,0,1-.364-.3c-.021-.107-.043-.45-.064-.664-.021-1.071-.043-2.141-.064-2.72" transform="translate(-218.233 -105.772)" fill="#fff"/>
      <path id="Path_387" data-name="Path 387" d="M227.361,35.672a16.337,16.337,0,0,1-.043,1.842c-.064.835-.064,1.692-.086,2.527,0,1.349,0,2.7.021,4.047v.835c-.043,1.071-.086,2.12-.107,3.191a.557.557,0,0,1-.278.385l-.15.064a8.094,8.094,0,0,1-1.478.278,22.121,22.121,0,0,0-2.677.343c-.321.064-.664.064-1.006.128l-1.328.193a11.971,11.971,0,0,1-2.505.236.171.171,0,0,1-.171-.236,1.242,1.242,0,0,1,.107-.321c.6-1.071,1.135-2.184,1.82-3.234a7.348,7.348,0,0,0,.407-.728c.578-1.156,1.221-2.27,1.842-3.4.278-.493.535-.985.792-1.478a23.894,23.894,0,0,1,1.349-2.334c.578-.9,1.135-1.8,1.692-2.72a14.412,14.412,0,0,1,1.2-1.82.214.214,0,0,1,.278-.064.343.343,0,0,1,.193.257,5.837,5.837,0,0,1,.107.664c.021.45.021.9.043,1.349" transform="translate(-170.956 -26.229)" fill="#fff"/>
      <path id="Path_388" data-name="Path 388" d="M281.821,209.476l-1.82.257-2.655.343a.45.45,0,0,1-.364-.3,6.639,6.639,0,0,1,.021-1.5,17,17,0,0,0,.064-2.013c0-.942-.021-1.906.043-2.848a.75.75,0,0,1,.278-.385l.171-.043,2.977-.557,1.8-.385c.985-.236,1.97-.428,2.955-.664s1.585-.514,2.42-.707a.236.236,0,0,1,.278.15l.064.15a.537.537,0,0,1,.021.171c-.086,2.291-.064,4.583-.086,6.9,0,.064-.043.107-.043.171a.664.664,0,0,1-.3.385,12.654,12.654,0,0,1-2.12.471c-.771.107-1.563.193-2.334.343-.428.086-.9.107-1.328.15v-.043" transform="translate(-217.643 -157.697)" fill="#fff"/>
      <path id="Path_389" data-name="Path 389" d="M64.294,66.6a1.414,1.414,0,0,1,.257.193,1.049,1.049,0,0,1,.171.3c.621,1.5,1.263,3,1.82,4.54.428,1.156.835,2.313,1.221,3.49.685,2.141,1.285,4.3,1.863,6.467a10.685,10.685,0,0,1,.493,1.606c.021.15-.021.214-.15.257a1.605,1.605,0,0,1-.321.064c-1.285,0-2.591.021-3.876,0-.664-.021-1.349-.107-2.013-.15a.45.45,0,0,1-.343-.321,3.384,3.384,0,0,1-.021-.493c.086-.835.128-1.67.15-2.527a16.49,16.49,0,0,1,.128-1.842,10.891,10.891,0,0,0,.086-1.178c.064-1.006.064-2.013.193-3.019a9.165,9.165,0,0,0,.043-1.006c.021-1.178.021-2.356.021-3.533a3.277,3.277,0,0,1,.021-.514c.107-.664.107-1.349.15-2.013a.985.985,0,0,1,.128-.3" transform="translate(-49.818 -52.338)" fill="#fff"/>
      <path id="Path_390" data-name="Path 390" d="M75.029,163.384l4.39-.15a13.054,13.054,0,0,0,1.349-.086,14.307,14.307,0,0,1,2.184-.107,10.241,10.241,0,0,0,1.52-.064l.835-.064c2.206-.021,4.39-.214,6.574-.321a4.881,4.881,0,0,0,.664-.064,12.937,12.937,0,0,1,2.184-.193,28.266,28.266,0,0,0,4.84-.642,7.174,7.174,0,0,1,1.5-.193,1.349,1.349,0,0,1,.921.343l.364.343a1.863,1.863,0,0,1,.578,1.349c.021.964.043,1.906.043,2.869s-.021,1.349-.021,2.034a26.429,26.429,0,0,1-.128,3.041,31.2,31.2,0,0,0-.107,3.533c0,.835.021,1.692.021,2.527a5.011,5.011,0,0,1-.128,1.349,7.025,7.025,0,0,0-.107,1.349,1.842,1.842,0,0,1-.278.792,1.349,1.349,0,0,1-.942.642c-.45.086-.9,0-1.349.086s-.792.086-1.178.128l-.835.086a38.488,38.488,0,0,1-5.2.45,16.523,16.523,0,0,0-2.184.171,5.423,5.423,0,0,1-1.006.064c-.514,0-1.006-.064-1.52-.043a14.985,14.985,0,0,1-1.52,0c-.792-.043-1.563-.043-2.356-.043-1.735-.021-3.49.021-5.225-.043s-3.491-.107-5.225-.043c-.835.021-1.692,0-2.527,0a3.318,3.318,0,0,1-.664-.064,6.513,6.513,0,0,0-1.5-.15,5.737,5.737,0,0,1-1.5-.171,5.058,5.058,0,0,0-.835-.107l-1.006-.064-.321-.086a2.013,2.013,0,0,1-1.135-1.371.9.9,0,0,1-.021-.343c.086-.728.171-1.456.3-2.163s.343-1.777.578-2.634a21.992,21.992,0,0,0,.535-2.463,18.118,18.118,0,0,0,.343-1.82,10.064,10.064,0,0,1,.257-1.67c.214-1.114.343-2.227.578-3.319.064-.321.064-.664.107-1.006a1.456,1.456,0,0,1,.728-1.071,2.889,2.889,0,0,1,.621-.278,6.209,6.209,0,0,1,1.842-.257h1.178c.664.021,1.349.086,2.013.086s1.242-.043,1.863-.086h0m8.266,16.36,3.79.043c1.006,0,2.034,0,3.041-.064s2.356-.107,3.533-.15a21.225,21.225,0,0,0,2.527-.236,25.185,25.185,0,0,1,2.505-.278l.493-.043a.771.771,0,0,0,.685-.621,7.174,7.174,0,0,0,.128-1.349c0-.621-.021-1.242-.021-1.863.021-1.178-.021-2.356.064-3.533q.171-2.441.171-4.882,0-.835-.021-1.692a.728.728,0,0,0-.064-.321.428.428,0,0,0-.236-.214,3.212,3.212,0,0,0-1.328.107,15.4,15.4,0,0,1-2.677.343h-.664a10.813,10.813,0,0,0-1.842.171,8.924,8.924,0,0,1-1.5.15l-1.006.043q-2.527.193-5.054.257a5.806,5.806,0,0,0-1.006.107,6.854,6.854,0,0,1-1.67.129,15.537,15.537,0,0,0-1.842.043l-1.349.064-3.212.086-1.006.043-.321.064a.514.514,0,0,0-.385.471c.064,1.006,0,2.013.021,3.041a4.326,4.326,0,0,1-.064.835,1.563,1.563,0,0,1-1.713,1.285,13.047,13.047,0,0,0-1.5-.171H69.033a.6.6,0,0,0-.407.257,7.452,7.452,0,0,0-.343,1.306c-.128.728-.278,1.435-.407,2.141-.364,1.071-.493,2.184-.749,3.276a.749.749,0,0,0,.043.321.214.214,0,0,0,.107.128,4.839,4.839,0,0,0,1.8.385,6.747,6.747,0,0,1,1.52.086,8.157,8.157,0,0,0,1.842.15h2.356c1.349,0,2.7-.021,4.047,0s3.041.107,4.454.086" transform="translate(-50.424 -126.916)"/>
      <path id="Path_391" data-name="Path 391" d="M94.158,190.807c-1.435.021-2.934-.043-4.454-.086s-2.7-.021-4.047,0H83.3a8.159,8.159,0,0,1-1.842-.15,6.747,6.747,0,0,0-1.52-.086,4.839,4.839,0,0,1-1.8-.385.214.214,0,0,1-.107-.129.749.749,0,0,1-.043-.321,28.984,28.984,0,0,1,.749-3.276c.128-.707.278-1.435.407-2.141a7.452,7.452,0,0,1,.343-1.306.6.6,0,0,1,.407-.257h2.677a13.047,13.047,0,0,1,1.5.171,1.563,1.563,0,0,0,1.713-1.285,4.327,4.327,0,0,0,.064-.835c-.021-1.006.043-2.013-.021-3.041a.514.514,0,0,1,.385-.471l.321-.064,1.006-.043,3.212-.086,1.349-.064a15.557,15.557,0,0,1,1.842-.043,6.852,6.852,0,0,0,1.67-.128,5.8,5.8,0,0,1,1.006-.107q2.527-.064,5.054-.257l1.006-.043a8.933,8.933,0,0,0,1.5-.15,10.813,10.813,0,0,1,1.842-.171h.664a15.4,15.4,0,0,0,2.677-.343,3.212,3.212,0,0,1,1.328-.107.428.428,0,0,1,.236.214.728.728,0,0,1,.064.321q.021.835.021,1.692,0,2.441-.171,4.882c-.086,1.178-.064,2.356-.064,3.533,0,.621.021,1.242.021,1.863a7.175,7.175,0,0,1-.128,1.349.771.771,0,0,1-.685.621l-.493.043a25.166,25.166,0,0,0-2.505.278,21.226,21.226,0,0,1-2.527.236c-1.178.043-2.356.086-3.533.15s-2.013.064-3.041.064l-3.79-.043" transform="translate(-61.287 -137.979)" fill="#fff"/>
    </g>
  </g>
</svg>
