<svg xmlns="http://www.w3.org/2000/svg" xmlns:xlink="http://www.w3.org/1999/xlink" width="104.683" height="99.755" viewBox="0 0 104.683 99.755">
  <defs>
    <clipPath id="clip-path">
      <rect id="Rectangle_15" data-name="Rectangle 15" width="99.755" height="104.683" fill="none"/>
    </clipPath>
  </defs>
  <g id="DOG" transform="translate(52.341 49.878) rotate(-90)">
    <g id="Group_33" data-name="Group 33" transform="translate(-49.878 -52.341)" clip-path="url(#clip-path)">
      <path id="Path_538" data-name="Path 538" d="M0,104.583c0-.2,0-.377.018-.575q.2-1.833.413-3.666c.036-.288.09-.557.126-.845a11.214,11.214,0,0,1,.18-1.384,5.355,5.355,0,0,0,.09-.557c.126-1.024.323-2.049.5-3.073l.593-3.055c.234-1.2.521-2.408.737-3.612s.413-2.031.521-3.073.234-2.354.431-3.5a7.512,7.512,0,0,0,.072-.845,15.042,15.042,0,0,1,.2-1.977,6.254,6.254,0,0,0,.072-.7,16.749,16.749,0,0,1,.2-1.689c.054-.323.072-.665.108-.988s.054-.575.108-.845a15.167,15.167,0,0,0,.2-1.545c.054-.521.126-1.024.2-1.545a.449.449,0,0,0-.216-.341.79.79,0,0,0-.27-.072l-.413.054a1.851,1.851,0,0,1-1.114-.072l-.4-.126a1.024,1.024,0,0,1-.665-.845,1.9,1.9,0,0,1-.018-.431A19.3,19.3,0,0,1,1.9,67.024a2.174,2.174,0,0,0,.036-.288c.108-1.42.449-2.785.683-4.187.072-.413.2-.827.288-1.24a2.174,2.174,0,0,1,.377-.755,1.474,1.474,0,0,1,1.078-.629l1.42-.108a.413.413,0,0,0,.323-.252,1.42,1.42,0,0,0,.09-.27,3.361,3.361,0,0,0,.072-.413,12.849,12.849,0,0,1,.2-1.545,3.72,3.72,0,0,0,.072-.557c.054-1.042.306-2.049.377-3.091A18.058,18.058,0,0,1,7.368,50.6a23.371,23.371,0,0,0,.413-3.522c.054-.791.2-1.6.252-2.39.018-.234.072-.467.108-.7s.09-.647.126-.988.036-.575.09-.845a14.233,14.233,0,0,0,.216-1.689,4.043,4.043,0,0,1,.072-.557,11.393,11.393,0,0,0,.2-1.545c.018-.18.018-.377.054-.557q.2-1.258.288-2.534c.018-.18.054-.377.072-.557q.059-.276.09-.557c.054-1.186.252-2.354.377-3.522s.288-2.246.341-3.378a13.568,13.568,0,0,0,.18-2.121,38.205,38.205,0,0,1,.449-4.223,7.961,7.961,0,0,0,.126-.845c.036-.845.18-1.689.252-2.534a9.956,9.956,0,0,1,.216-1.4,2.732,2.732,0,0,0,.09-.557c.036-1.042.252-2.067.341-3.091.018-.234.072-.467.108-.7a5.14,5.14,0,0,0,.108-.557c.054-.988.27-1.959.341-2.947a1.977,1.977,0,0,1,.144-.683,1.51,1.51,0,0,0,.09-.97c-.162-.791-.252-1.581-.341-2.372a12.041,12.041,0,0,0-.323-1.528A4.241,4.241,0,0,1,11.7,1.611,1.51,1.51,0,0,1,12.22.478a1.312,1.312,0,0,1,.359-.216,1.959,1.959,0,0,1,.593-.144c1.8-.09,3.594-.144,5.373-.108l4.672.054c.377,0,.755,0,1.132.036.845.09,1.689.108,2.552.144l1.563.09.988.054A7.961,7.961,0,0,1,31,.532l.288.036c.755.126,1.51.054,2.264.18a12.993,12.993,0,0,0,2.121.126,12.238,12.238,0,0,1,2.121.18l.845.108a6.236,6.236,0,0,1,.7.072,13.783,13.783,0,0,0,3.091.27,4.043,4.043,0,0,1,.845.072,9.219,9.219,0,0,0,1.833.18,8.087,8.087,0,0,1,1.276.09,1.6,1.6,0,0,1,.97.539,3.252,3.252,0,0,1,.539.827,12.148,12.148,0,0,1,.557,1.456c.126.413.252.809.377,1.222a.413.413,0,0,0,.306.27l.288.036,2.552.09c.431.018.845-.018,1.276.018a14.848,14.848,0,0,1,1.833.144,1.923,1.923,0,0,0,.431,0,.359.359,0,0,0,.323-.234.756.756,0,0,0,.036-.126,2.228,2.228,0,0,1,.2-.827c.341-.719.647-1.474.952-2.21a2.947,2.947,0,0,1,.521-.845,1.348,1.348,0,0,1,.845-.467l.557-.036H63.76c.845,0,1.707.018,2.552-.018s1.222-.018,1.833,0l1.977.036c1.276-.018,2.552.054,3.828.126l.845.09A6.7,6.7,0,0,0,76.483,1.9a6,6,0,0,1,1.977,0,9.237,9.237,0,0,0,1.276.09l4.529.09a9.129,9.129,0,0,1,1.815.216,1.474,1.474,0,0,1,.97.773,1.366,1.366,0,0,1,.162.4,5.714,5.714,0,0,0,.449,1.186,12.2,12.2,0,0,1,.809,2.408.5.5,0,0,0,.413.323l1.132.036a1.276,1.276,0,0,1,.647.252,2.372,2.372,0,0,1,.521.485,1.527,1.527,0,0,1,.377.9c.036.7.072,1.42.09,2.121a9.128,9.128,0,0,0,.09,1.545,2.569,2.569,0,0,1,.036.431c.036,1.33.216,2.642.377,3.954l.4,2.947a12.309,12.309,0,0,1,.126,1.4,19.605,19.605,0,0,0,.2,2.264c.072.5.09,1.042.126,1.545s.072,1.312.162,1.977a13.161,13.161,0,0,1,.108,1.545c.036,1.078.072,2.174.2,3.253.072.611.072,1.222.108,1.833a12.416,12.416,0,0,0,.126,1.4,8.23,8.23,0,0,1,.09.845,26.529,26.529,0,0,0,.27,2.678c.072,1.366.323,2.714.341,4.1a11.648,11.648,0,0,0,.162,1.689,11.948,11.948,0,0,1,.126,1.276c.054.755.072,1.51.18,2.264,0,.054.018.09.018.144.054.809.072,1.6.162,2.408s.18,1.6.216,2.39c.018.288.036.575.072.845.18,1.545.306,3.109.359,4.654.162,1.168.108,2.354.216,3.54,0,.072.108.162.162.216a.234.234,0,0,0,.144.036,6.644,6.644,0,0,0,.845.036,3.109,3.109,0,0,1,1.366.323.934.934,0,0,1,.234.162.988.988,0,0,1,.341.611,13.959,13.959,0,0,1,.18,1.833c0,.467.036.952.054,1.42s.054,1.312.072,1.977.018,1.042.036,1.563c0,.2.018.377.018.575a3.289,3.289,0,0,1-.305,1.366,1.354,1.354,0,0,1-1.222.827h-.7a.557.557,0,0,0-.27.072.467.467,0,0,0-.162.216.791.791,0,0,0-.018.288c.018.575.018,1.132.054,1.707s.054,1.042.126,1.545c.126.988.18,1.977.359,2.947a9.183,9.183,0,0,1,.09.988,6.158,6.158,0,0,0,.108.988c.072.323.126,1.132.2,1.689.144,1.132.216,2.246.27,3.4a3.487,3.487,0,0,0,.036.431c.126.9.162,1.779.216,2.678s.108,1.51.2,2.264.162,1.689.288,2.534a8.161,8.161,0,0,1,.09,1.42,21.342,21.342,0,0,0,.359,3.378,9.434,9.434,0,0,1,.252,2.39,4.924,4.924,0,0,0,.2,1.258,5.968,5.968,0,0,1,.323,1.384H97.2a1.366,1.366,0,0,0-.018-.7,7.314,7.314,0,0,1-.27-2.1,5.014,5.014,0,0,0-.09-1.132c-.144-.647-.18-1.312-.323-1.959a7.188,7.188,0,0,1-.144-1.258c-.018-.611-.036-1.222-.09-1.833s-.2-1.689-.306-2.534a.423.423,0,0,0-.036-.144.629.629,0,0,0-.305-.288,1.58,1.58,0,0,0-.27-.054,10.692,10.692,0,0,1-2.121-.144,4.564,4.564,0,0,0-.845-.072c-1.707,0-3.4-.09-5.086-.2h-.144l-6.793-.144a14.194,14.194,0,0,1-1.833-.108,7.278,7.278,0,0,0-.988-.054L71.6,91.841H68.9c-1.222-.018-2.462-.036-3.684-.162l-.557-.036c-1.186.018-2.354-.072-3.54-.09l-4.672-.072c-.467,0-.952-.018-1.42-.054-1.312-.108-2.642-.144-3.954-.162s-2.929-.036-4.385-.108c-1.887-.108-3.774-.2-5.661-.216a15.851,15.851,0,0,1-2.264-.144,9.137,9.137,0,0,0-.988-.072l-.27.036a.431.431,0,0,0-.288.288,2.355,2.355,0,0,0-.036.288c-.036,1.8-.27,3.576-.377,5.373a7.944,7.944,0,0,1-.108.845,6.776,6.776,0,0,0-.09.988c-.018.9-.036,1.8-.072,2.7a25.915,25.915,0,0,1-.288,3.378H34c.036-.7.072-1.42.162-2.121a7.983,7.983,0,0,0,.072-1.132q.036-1.348.054-2.7a9.9,9.9,0,0,1,.126-1.689,11.2,11.2,0,0,0,.144-1.545,21.09,21.09,0,0,1,.18-2.121,16.137,16.137,0,0,0,.108-2.121c0-.054-.018-.09-.018-.144a.413.413,0,0,0-.341-.377,37.147,37.147,0,0,0-4.385-.252h-.845c-.7-.036-1.42-.054-2.121-.108l-1.42-.09c-1.132-.036-2.264-.072-3.4-.216-.323-.036-.665-.036-.988-.054l-2.965-.09c-.467-.018-.952-.054-1.4-.108-.755-.108-1.51-.162-2.264-.2a8.947,8.947,0,0,1-1.132-.09,18.169,18.169,0,0,0-2.121-.2L9.9,89.164,8.213,89a12.127,12.127,0,0,1-1.4-.162,6.9,6.9,0,0,0-1.689-.09A.413.413,0,0,0,4.816,89a26.346,26.346,0,0,0-.593,2.624q-.359,1.725-.665,3.468c-.18,1.024-.4,2.031-.5,3.073-.018.18-.036.377-.072.557-.2.97-.234,1.959-.413,2.947s-.216,1.977-.323,2.947ZM39.464,34.659a24.768,24.768,0,0,0,.27-2.714c.018-.234.054-.467.09-.7s.072-.755.09-1.132c.072-1.6.288-3.2.4-4.8a2.749,2.749,0,0,1,.054-.413,11.933,11.933,0,0,0,.2-1.689c.054-.611.144-1.222.216-1.833a12.317,12.317,0,0,0,.072-1.276,8.291,8.291,0,0,1,.054-.845c.162-1.168.18-2.354.377-3.522a5.157,5.157,0,0,0,.072-.845c.018-1.132.27-2.246.377-3.378a11.3,11.3,0,0,0,.252-1.959c.018-.323.054-.665.09-.988a.413.413,0,0,0-.341-.4l-.97-.162a.467.467,0,0,0-.467.234c-.288.737-.611,1.492-.881,2.246s-.755,2.031-1.2,3.019c-.18.4-.341.773-.485,1.168-.557,1.4-1.114,2.8-1.779,4.169a35.039,35.039,0,0,1-1.635,3.289,24.694,24.694,0,0,1-1.2,2.246,21.368,21.368,0,0,0-1.42,2.767,4.421,4.421,0,0,1-.4.755,24.854,24.854,0,0,0-1.438,2.606c-.144.306-.306.593-.467.881a4.8,4.8,0,0,1-.305.467,1.851,1.851,0,0,1-.629.557,1.528,1.528,0,0,1-.665.216l-1.833.036a12.238,12.238,0,0,1-2.534-.216,7.835,7.835,0,0,0-1.258-.126l-.557-.036a2.067,2.067,0,0,1-.683-.18,3.289,3.289,0,0,1-.952-.611,1.42,1.42,0,0,1-.323-.449c-.27-.647-.521-1.312-.809-1.959s-.683-1.653-.97-2.5c-.575-1.707-1.222-3.378-1.779-5.068-.18-.539-.323-1.078-.467-1.635l-.162-.683c-.27-1.006-.521-2.013-.719-3.019s-.377-1.653-.575-2.48c-.018-.036-.054-.108-.09-.108a.222.222,0,0,0-.144.18,8.967,8.967,0,0,0-.288,1.492,9.309,9.309,0,0,1-.234,1.815,5,5,0,0,0-.09.7c-.108,1.024-.2,2.067-.306,3.091-.036.288-.072.557-.108.845a18.186,18.186,0,0,0-.234,1.959c-.054.647-.162,1.4-.18,2.121-.018,1.186-.27,2.336-.306,3.522,0,.18-.036.377-.054.557a1.3,1.3,0,0,1-.018.144,11.5,11.5,0,0,0-.2,1.689,6.4,6.4,0,0,1-.09.7c-.126.647-.144,1.312-.216,1.977s-.162,1.312-.234,1.959-.09,1.042-.18,1.545a9,9,0,0,0-.108.988,12.436,12.436,0,0,1-.18,1.545c-.054.27-.072.557-.108.845s-.126.845-.18,1.258c-.126.934-.234,1.869-.377,2.8-.018.144-.018.288-.036.431Q10.046,47.382,9.866,49c-.018.18-.072.377-.09.557s-.09.647-.126.988l-.162,1.114c-.036.234-.072.467-.09.7-.072,1.078-.341,2.139-.413,3.235a14.322,14.322,0,0,0-.2,1.545c-.036.377-.108.755-.162,1.114a6.757,6.757,0,0,0-.108,1.4.508.508,0,0,0,.252.323l.557.054,1.42.054a11.538,11.538,0,0,0,1.42.054,14.924,14.924,0,0,1,1.545.126h.144c1.222,0,2.444.09,3.684.072h.7c1.312.072,2.642.072,3.972.09l.845.036c1.6.126,3.2.2,4.816.2.9,0,1.8.018,2.7.108s2.067.108,3.109.162,1.8.072,2.678.18h.431a.449.449,0,0,0,.413-.323,17.917,17.917,0,0,0,.252-2.39,17.413,17.413,0,0,1,.144-1.977c.09-.557.108-1.132.162-1.689s.018-.665.072-.988a24.557,24.557,0,0,0,.252-2.821c.018-.18.018-.377.054-.557a21.546,21.546,0,0,0,.216-2.246,4.619,4.619,0,0,1,.054-.557,23.417,23.417,0,0,0,.252-2.534c.018-.323.054-.665.09-.988a10.657,10.657,0,0,0,.108-1.276c.018-.323.018-.665.036-.988l.377-4.367a12.579,12.579,0,0,0,.2-1.977c.018-.234.036-.467.054-.809m7.53,46.8h-.593c-.809,0-1.6,0-2.408-.072l-.7-.036-4.672-.054-.27.036a.485.485,0,0,0-.288.27c-.054.323-.09.647-.144.988-.216,1.312-.288,2.624-.431,3.936-.054.413-.036.845-.054,1.276a2.12,2.12,0,0,0,.036.288.431.431,0,0,0,.288.288l.27.054c1.51.072,3,.288,4.529.234l.7.036,2.821.09,1.132.054c1.132.108,2.264.144,3.4.144,2.085-.018,4.151.108,6.218.18l3.54.09h1.276l3.4.09c.755.018,1.51.036,2.264.108a10.906,10.906,0,0,0,1.276.054c2.732,0,5.481.036,8.213.054,1.132,0,2.264.072,3.4.144l1.132.054,7.08.144a6.287,6.287,0,0,1,.845.054,14.989,14.989,0,0,0,2.121.126,19.984,19.984,0,0,1,2.965.18h.431l.431-.036c.431-.036.611-.252.557-.647a18.151,18.151,0,0,1-.144-1.833c-.054-1.51-.234-3-.359-4.511a2.031,2.031,0,0,0-.144-.683c-.054-.126-.126-.27-.288-.288l-.144-.036a30.7,30.7,0,0,0-3.109.018,5.481,5.481,0,0,1-1.276.072c-.234-.018-.467.036-.7.036-.557,0-1.132.018-1.689-.018l-1.563-.054H84.444l-4.385-.036h-2.7L74.4,82.173H69.582l-2.408-.054H64.928L63.8,82.083l-1.42-.072c-1.222-.072-2.444-.072-3.684-.072a21.638,21.638,0,0,1-3.253-.18c-.234-.036-.467-.036-.7-.054-.988-.072-1.977-.054-2.965-.054-1.42,0-2.839-.018-4.241-.144l-.539-.036M76.465,62.118l1.581.09,1.563.054c2.174.018,4.349,0,6.523.054s4.439.036,6.649.054h.288a.4.4,0,0,0,.377-.341,15.329,15.329,0,0,0-.054-2.552c-.018-.288-.054-.557-.054-.845-.036-.665-.054-1.33-.108-1.977-.108-1.312-.27-2.624-.341-3.954a2.388,2.388,0,0,0-.036-.288,21.567,21.567,0,0,1-.2-2.264c-.018-.377-.036-.755-.09-1.132s-.126-1.222-.162-1.833a24.224,24.224,0,0,0-.234-2.534c-.054-.377-.072-.755-.09-1.132a5.1,5.1,0,0,0-.054-.557.5.5,0,0,0-.485-.431c-.431,0-.845-.036-1.276,0s-1.33.018-1.977,0-1.042.018-1.563.036a2.858,2.858,0,0,0-.413.09.449.449,0,0,0-.216.323c.018.09.018.2.036.288a11.916,11.916,0,0,1,.4,2.372.932.932,0,0,0,.018.144,5.967,5.967,0,0,1,.09,1.689c-.054.755-.162,1.51-.252,2.246a3.74,3.74,0,0,1-.09.413A12.274,12.274,0,0,1,84.588,54,8.193,8.193,0,0,1,83.815,55a9.74,9.74,0,0,1-2.8,2.121,6.54,6.54,0,0,1-.9.4,18.832,18.832,0,0,1-1.887.575L76,58.578a4.475,4.475,0,0,1-.7.09c-1.42.072-2.821.2-4.241.162H69.205c-1.276,0-2.552-.162-3.81-.2a3.468,3.468,0,0,1-.557-.072,11.034,11.034,0,0,0-1.833-.216,3.684,3.684,0,0,1-.557-.054,14.952,14.952,0,0,0-2.39-.18,24.691,24.691,0,0,1-2.534-.2,12.286,12.286,0,0,0-1.42-.09,9.656,9.656,0,0,1-1.132-.09c-1.078-.144-2.156-.306-3.217-.485a9,9,0,0,1-1.887-.575,2.12,2.12,0,0,1-.359-.216,5.032,5.032,0,0,1-.97-.827l-.467-.521a15.293,15.293,0,0,1-2.785-4.565,6.99,6.99,0,0,1-.449-1.492c-.09-.557-.162-1.114-.252-1.671a7.53,7.53,0,0,1-.09-1.132c0-.521.018-1.042.018-1.563a7.134,7.134,0,0,1,.126-1.132c.09-.5.162-1.024.252-1.545a.306.306,0,0,0-.162-.341,11.124,11.124,0,0,0-3.217-.288.485.485,0,0,0-.288.288c-.036.377-.072.755-.09,1.132s-.018.845-.072,1.276c-.108,1.042-.216,2.067-.27,3.109a2.856,2.856,0,0,1-.054.413,20.663,20.663,0,0,0-.216,2.121c-.072.719-.162,1.51-.234,2.246a1.453,1.453,0,0,0-.018.288,14.989,14.989,0,0,1-.18,1.833,5.14,5.14,0,0,0-.072.557q-.108,1.617-.27,3.253c-.108,1.024-.126,2.067-.18,3.109a.346.346,0,0,0,.27.27,20.309,20.309,0,0,1,2.1.2h.288l4.529.108a11.519,11.519,0,0,1,1.833.108,3.522,3.522,0,0,0,.557.036l3.972.072,5.517.09a8.483,8.483,0,0,1,.988.054,11.971,11.971,0,0,0,1.563.072h4.385l2.552.054,8.338.072M81.8,79.963h0l2.965.054h5.373c.323,0,.665,0,.988-.018s1.132-.054,1.689-.054l1.563-.054a.4.4,0,0,0,.27-.288,2.463,2.463,0,0,0,.018-.288c-.054-.521-.09-1.042-.162-1.545a17.953,17.953,0,0,1-.144-1.833c-.018-.234,0-.467-.018-.7s-.036-.845-.072-1.276a6.642,6.642,0,0,0-.126-.7.449.449,0,0,0-.431-.306H88.488c-.431,0-.845.018-1.276-.018s-1.222-.054-1.833-.054c-1.563,0-3.109-.072-4.672-.018h-.431l-3.253-.036c-1.6,0-3.2-.072-4.816-.036h-.557c-.755-.054-1.51-.054-2.264-.054s-1.6-.018-2.408-.072L65.7,72.613l-4.672-.072a11.411,11.411,0,0,1-1.689-.108,9.524,9.524,0,0,0-1.42-.09L52.4,72.271h-.431c-1.941-.054-3.864-.054-5.8-.18H39.122a.575.575,0,0,0-.4.359,3.27,3.27,0,0,0-.126.845c-.054,1.132-.108,2.264-.126,3.4a11.967,11.967,0,0,1-.126,1.545,1.815,1.815,0,0,0,.018.413.252.252,0,0,0,.162.216.917.917,0,0,0,.413.108c1.222.036,2.444.108,3.684.09H43.9l2.7.054c.611,0,1.222.018,1.833.072a24.529,24.529,0,0,0,2.552.108H52.96a37.4,37.4,0,0,1,3.954.216,11.7,11.7,0,0,0,1.276.054l3.109.054c1.941.054,3.864.09,5.8.09h.988a6.112,6.112,0,0,1,.7.036,15.041,15.041,0,0,0,1.977.09h3.4c.665,0,1.33-.018,1.977.018,1.132.054,2.264.036,3.4.036H81.8M70.7,56.511l3.648-.072a5.714,5.714,0,0,0,1.545-.216c.18-.054.377-.054.557-.108a23.667,23.667,0,0,0,2.857-.791,6.882,6.882,0,0,0,1.258-.629l.7-.485A4.529,4.529,0,0,0,82.521,52.9c.27-.431.557-.881.791-1.348a7.565,7.565,0,0,0,.881-3.109,9.148,9.148,0,0,1,.108-.988,3.163,3.163,0,0,0,0-.988,5.589,5.589,0,0,1-.108-.845,8.064,8.064,0,0,0-.377-1.941,18.563,18.563,0,0,0-1.725-3.558,2.875,2.875,0,0,0-.665-.719,7.75,7.75,0,0,0-2.156-1.33,12.561,12.561,0,0,0-1.959-.791c-.5-.144-1.006-.252-1.51-.377a.467.467,0,0,0-.377.144,9.7,9.7,0,0,1-.952,1.581,5.531,5.531,0,0,1-2.857,2.21l-.126.072a.323.323,0,0,0-.162.216,1.779,1.779,0,0,0-.054.27c-.054,1.186-.108,2.354-.162,3.54a8.627,8.627,0,0,1-.09,1.132c-.108.557-.108,1.132-.18,1.689a1.222,1.222,0,0,0,.27.934l.521.665a1.24,1.24,0,0,0,.863.431,4.816,4.816,0,0,0,1.276-.036,2.821,2.821,0,0,0,.557-.126,1.171,1.171,0,0,0,.845-.881,2.5,2.5,0,0,1,.108-.413,1.312,1.312,0,0,1,.737-.809,1.042,1.042,0,0,1,.952.054,1.276,1.276,0,0,1,.611,1.33c-.072.27-.144.557-.234.809a2.857,2.857,0,0,1-.665,1.078,4.169,4.169,0,0,1-2.893,1.294h-1.42a3.037,3.037,0,0,1-1.348-.359,3.72,3.72,0,0,1-.934-.647,1.4,1.4,0,0,0-.431-.359h-.126a1.15,1.15,0,0,0-.485.288,4.259,4.259,0,0,1-2.174.952,2.588,2.588,0,0,1-1.527-.072,9.04,9.04,0,0,1-1.563-.665,4.259,4.259,0,0,1-1.024-.755,3.235,3.235,0,0,1-.665-.9,2.965,2.965,0,0,1-.288-1.51,1.114,1.114,0,0,1,1.689-.881,1.222,1.222,0,0,1,.521.647,5.039,5.039,0,0,1,.144.557,1.078,1.078,0,0,0,.4.575,3.684,3.684,0,0,0,1.384.683,1.779,1.779,0,0,0,1.24-.162,2.067,2.067,0,0,0,.97-.988,4.187,4.187,0,0,0,.467-1.761,10.673,10.673,0,0,1,.126-1.132c.018-.18.072-.377.072-.557.054-1.132.09-2.264.126-3.4a1.565,1.565,0,0,0-.018-.288.557.557,0,0,0-.27-.467l-.881-.449a2.462,2.462,0,0,1-.665-.521,4.2,4.2,0,0,1-.755-1.186,6.236,6.236,0,0,1-.377-1.06c-.054-.27-.144-.557-.2-.827a.467.467,0,0,0-.431-.305,11.842,11.842,0,0,0-2.1.252l-2.606.629a8.112,8.112,0,0,0-3.2,1.761l-.2.2a10.369,10.369,0,0,0-1.078,1.492A14.988,14.988,0,0,0,54.846,44a2.3,2.3,0,0,0-.09.413,9.528,9.528,0,0,0-.09,2.264c.018.18.018.377.018.557a11.035,11.035,0,0,0,.485,2.5,4.439,4.439,0,0,0,.288.791c.234.467.449.934.665,1.4a4.8,4.8,0,0,0,.773,1.186,6.973,6.973,0,0,0,2.48,1.833c.611.252,1.24.449,1.869.647a5.912,5.912,0,0,0,1.24.27c.9.09,1.779.234,2.66.377a12.29,12.29,0,0,0,1.545.162l4.007.09M19.354,2.329H16.1l-1.42.054-.27.072a.431.431,0,0,0-.216.306A22,22,0,0,1,14.5,5.007c.18.737.252,1.474.449,2.21q.449,1.635.863,3.289c.27,1.1.5,2.21.755,3.307.413,1.8.773,3.594,1.276,5.355a6.559,6.559,0,0,0,.323,1.222c.288.9.611,1.779.917,2.678.162.449.323.881.485,1.33A45.361,45.361,0,0,0,21.3,28.89c.09.18.2.27.306.216a.323.323,0,0,0,.2-.18l.629-1.42a36.053,36.053,0,0,1,1.635-3.594l.054-.126c.539-1.348,1.2-2.66,1.8-4.007.845-1.941,1.635-3.864,2.3-5.769.306-.9.629-1.779.988-2.642.108-.27.216-.521.306-.791.305-.9.683-1.761,1.024-2.624A10.963,10.963,0,0,1,31,6.93c.593-1.132,1.1-2.3,1.671-3.432a.5.5,0,0,0,.036-.126.216.216,0,0,0-.108-.234,1.114,1.114,0,0,0-.539-.162c-1.222-.09-2.426-.323-3.666-.323a23.308,23.308,0,0,0-2.678-.108,11.3,11.3,0,0,1-1.545-.09,7.188,7.188,0,0,0-.845-.054l-3.954-.054M61.783,19.995h.036V16.886c0-.611-.018-1.222-.036-1.833,0-.054-.018-.09-.018-.144a.521.521,0,0,0-.431-.485,7.8,7.8,0,0,1-.988-.054,10.5,10.5,0,0,0-1.833-.108l-1.563-.036c-1.186-.054-2.354-.036-3.54-.054a.5.5,0,0,0-.449.449,4.6,4.6,0,0,0-.036.988,11.518,11.518,0,0,1-.18,2.121,3.81,3.81,0,0,1-.288.934,1.4,1.4,0,0,1-1.078.827l-.288.036h-3a.485.485,0,0,0-.377.359c-.036.377-.054.755-.09,1.132s-.018,1.24-.108,1.833c-.126.9-.162,1.779-.216,2.678-.018.288-.036.557-.054.845-.144,1.366-.216,2.732-.234,4.1a12.778,12.778,0,0,1-.162,2.121,10.028,10.028,0,0,0-.072,2.264.4.4,0,0,0,.288.288l1.528.216.144-.036a1.635,1.635,0,0,0,.431-.359,6.452,6.452,0,0,1,1.168-1.024,1.2,1.2,0,0,1,.521-.216,21.206,21.206,0,0,1,2.534-.2l3.54.036a9.558,9.558,0,0,1,.988.054,25.818,25.818,0,0,0,3.54.072.611.611,0,0,0,.27-.072.449.449,0,0,0,.2-.2A1.366,1.366,0,0,0,62,32.862q0-2.965,0-5.948a11.268,11.268,0,0,0-.09-1.977,3.611,3.611,0,0,1-.036-.557q-.036-2.192-.09-4.385m9.381-.108h.018c-.018-.611-.036-1.222-.036-1.833s.036-1.6.054-2.408c0-.288.018-.557.036-.845a3.379,3.379,0,0,1,.2-.97,1.456,1.456,0,0,1,1.24-1.024,10.747,10.747,0,0,1,1.977-.072q1.9.072,3.828.018h.845c.809.072,1.6.072,2.408.072a10.207,10.207,0,0,1,1.42.09l.988.108.7.036a1.132,1.132,0,0,1,.629.288,2.049,2.049,0,0,1,.683,1.2c.108.647.18,1.312.27,1.959.036.234.036.467.054.7s.036.952.054,1.42a6.541,6.541,0,0,0,.054.7c.126.845.288,1.671.4,2.516s.234,1.294.341,1.959a29.1,29.1,0,0,1,.377,2.947,2.21,2.21,0,0,0,.036.288,20.186,20.186,0,0,1,.234,2.246c.054.809.234,1.581.27,2.39a6.593,6.593,0,0,0,.09.845c.144.881.18,1.779.377,2.66a5.05,5.05,0,0,1,.09.845,1.833,1.833,0,0,1-.647,1.8,1.276,1.276,0,0,1-.863.449l-.988.054H84.318a.27.27,0,0,0-.234.4c.27.449.521.9.791,1.33a.467.467,0,0,0,.359.2h.288c1.276-.036,2.552-.108,3.828-.036h.288l1.707-.054a.665.665,0,0,0,.27-.054.377.377,0,0,0,.18-.2,1.294,1.294,0,0,0,.036-.413c-.036-.575-.162-1.114-.2-1.689-.072-1.563-.341-3.091-.359-4.654a.969.969,0,0,0-.018-.144,23.255,23.255,0,0,1-.2-2.821c-.036-.934-.072-1.887-.18-2.821-.054-.521-.072-1.042-.108-1.545s-.036-.952-.108-1.42c-.108-.791-.18-1.6-.216-2.39-.054-1.078-.18-2.156-.341-3.235-.216-1.545-.431-3.091-.539-4.636-.018-.18-.036-.377-.054-.557a17.808,17.808,0,0,1-.144-2.552c0-.234,0-.467-.018-.7a.768.768,0,0,0-.054-.27.467.467,0,0,0-.288-.288l-.7-.054a28.555,28.555,0,0,0-3.828-.144H82.917a5.373,5.373,0,0,1-.845-.036,14.287,14.287,0,0,0-2.264-.108c-.9,0-1.8.018-2.7-.018s-1.977-.036-2.965-.036a31.79,31.79,0,0,1-3.253-.162,8.392,8.392,0,0,0-1.42-.018.521.521,0,0,0-.467.449c-.036,1.222-.108,2.462-.072,3.684s.018,2.354.018,3.54-.018,1.977-.018,2.983c0,1.366-.072,2.732-.108,4.1a4.6,4.6,0,0,1-.054.7A14.682,14.682,0,0,0,68.7,27.2q.054,1.348,0,2.7c-.036.9-.018,2.264-.036,3.4a2.7,2.7,0,0,0,.036.288.4.4,0,0,0,.288.27h.845l.988.108a.359.359,0,0,0,.359-.359c0-.054.018-.09.018-.144a36.174,36.174,0,0,1,.18-3.954,3.6,3.6,0,0,0,.018-.431,34.666,34.666,0,0,0-.108-4.1,3.472,3.472,0,0,1-.018-.431q-.054-2.336-.09-4.672M83.33,36.006h2.408a1.384,1.384,0,0,0,.413-.054.35.35,0,0,0,.18-.18.216.216,0,0,0,.018-.144c-.162-1.4-.413-2.8-.485-4.205a20.578,20.578,0,0,1-.288-2.8,26.322,26.322,0,0,1-.306-2.66c-.018-.18-.054-.377-.072-.557-.144-1.078-.4-2.139-.521-3.2-.18-.647-.144-1.312-.305-1.959a7.224,7.224,0,0,1-.18-1.833,12.635,12.635,0,0,0-.27-2.66.5.5,0,0,0-.485-.413,18.33,18.33,0,0,0-2.552-.252c-.557.018-1.132-.036-1.689-.054a7.889,7.889,0,0,0-1.276.018.647.647,0,0,0-.27.072.377.377,0,0,0-.162.216,5.822,5.822,0,0,0-.036,1.132c0,.809.018,1.6.018,2.408a4.8,4.8,0,0,1-.054.7.9.9,0,0,1-.252.5,1.114,1.114,0,0,1-.737.377l-1.833.09h-.737a.4.4,0,0,0-.377.341,17.325,17.325,0,0,0,.018,2.121c.018.431.054.845.072,1.276q.054,1.617.09,3.253a32.258,32.258,0,0,1-.108,3.54,17.7,17.7,0,0,0-.072,2.121,2.57,2.57,0,0,0,.036.7.341.341,0,0,0,.162.216.989.989,0,0,0,.252.108,11.343,11.343,0,0,1,1.527.27c.5.162,1.114.162,1.653.377a11.321,11.321,0,0,1,2.282.737l.647.288a1.941,1.941,0,0,0,.952.216l2.264-.054M31.808,88.139l1.725.072h1.132a.453.453,0,0,0,.4-.341,4.2,4.2,0,0,0,.054-.557,17.959,17.959,0,0,1,.126-1.977c.162-1.168.2-2.354.413-3.522a1.078,1.078,0,0,0,.018-.144c0-.054,0-.09,0-.144a.431.431,0,0,0-.431-.467l-3.4-.126a18.184,18.184,0,0,1-1.833-.126,5.551,5.551,0,0,0-.845-.054c-.7,0-1.42-.072-2.121-.126-.988-.09-1.977-.144-2.965-.144H21.547c-.431,0-.845-.018-1.276-.054a30.674,30.674,0,0,0-3.4-.144c-.665,0-1.33-.018-1.977-.054-.988-.054-1.977-.054-2.965-.18H11.5a17.433,17.433,0,0,1-2.246-.216l-1.114-.144a7.854,7.854,0,0,1-1.258-.2,2.227,2.227,0,0,0-.413-.036.467.467,0,0,0-.341.234,2.3,2.3,0,0,0-.108.413A29.505,29.505,0,0,1,5.715,83.2a2.5,2.5,0,0,0-.018.288,12.993,12.993,0,0,1-.2,1.545c-.054.323-.072.647-.108.988a.467.467,0,0,0,.341.4c.521.054,1.042.072,1.545.144.881.126,1.779.2,2.678.27l3.109.252.557.054a19.461,19.461,0,0,0,2.246.216c.377.018.755.036,1.132.09a17.665,17.665,0,0,0,2.678.2l1.977.054a11.051,11.051,0,0,1,1.132.072,28.648,28.648,0,0,0,3.109.216c.7.018,1.42.054,2.121.108s1.132.09,1.689.09l2.1.036M7.26,71.031c-.054.072-.144.144-.144.234-.108.7-.216,1.4-.306,2.1-.054.413-.09.845-.162,1.258a11.16,11.16,0,0,0-.18,2.1.449.449,0,0,0,.252.306,18.562,18.562,0,0,0,2.228.359,9.829,9.829,0,0,1,.988.144,10.748,10.748,0,0,0,1.689.144,12.526,12.526,0,0,1,1.276.072c1.276.108,2.534.2,3.81.2a31.377,31.377,0,0,1,4.241.2h.431l3.109.054a30.3,30.3,0,0,1,3.954.216h.288c1.078,0,2.174.162,3.253.126l.431.036a17.971,17.971,0,0,0,2.821.162l.413-.036a.467.467,0,0,0,.306-.252,4.025,4.025,0,0,0,.108-.988c.018-.467.036-.934.072-1.42.126-1.222.144-2.444.162-3.684a.413.413,0,0,0-.323-.4h-.144c-1.653-.072-3.307-.108-4.96-.09a8.5,8.5,0,0,1-1.42-.036,11.105,11.105,0,0,0-1.689-.072c-1.977,0-3.972-.054-5.948-.09h-.431c-.845-.072-1.689-.072-2.552-.144-1.168-.09-2.354-.09-3.522-.234h-.557c-.9-.036-1.8-.036-2.7-.09s-1.312-.09-1.977-.09l-2.121-.09h-.7M64.1,23.247c.018.27.036.557.072.827.09.9.126,1.8.126,2.678,0,1.977.018,3.972.018,5.948,0,.234.018.467.036.7a.449.449,0,0,0,.27.306,3.217,3.217,0,0,0,1.4.018.467.467,0,0,0,.27-.306c0-.054.018-.09.018-.144.018-1.6.054-3.217.054-4.816,0-.845-.036-1.707-.036-2.552s.072-1.689.108-2.552c.018-.288.018-.575.054-.845a16.767,16.767,0,0,0,.09-1.833c.018-.988.036-1.977.036-2.965,0-1.366.036-2.732-.018-4.1q-.054-1.276.018-2.552c.018-.467.018-.934.018-1.42a1.925,1.925,0,0,0-.054-.27.449.449,0,0,0-.288-.288c-.647-.126-1.312-.036-1.977-.162a6.505,6.505,0,0,0-1.42-.072,11.2,11.2,0,0,1-1.42-.036l-.845-.036-4.816-.054c-.845-.018-1.707-.018-2.552-.108a47.579,47.579,0,0,0-4.8-.18H47.335a10.782,10.782,0,0,1-2.246-.162H44.8a.377.377,0,0,0-.306.252,9.29,9.29,0,0,0-.252,1.671c-.054.611-.144,1.222-.234,1.815-.144,1.024-.323,2.049-.377,3.091a11.68,11.68,0,0,1-.2,1.833,4.727,4.727,0,0,0-.072.557c-.09,1.042-.18,2.067-.27,3.109a26.813,26.813,0,0,1-.252,2.678c-.036.18-.036.377-.054.557-.036.467-.072.934-.144,1.4a24.187,24.187,0,0,0-.252,2.534c-.018.234-.054.467-.072.7-.054.557-.108,1.132-.144,1.689A19.065,19.065,0,0,1,42,32.287a7.566,7.566,0,0,0-.072.845c-.036.611-.09,1.222-.18,1.833a5.787,5.787,0,0,0-.072.7,24.992,24.992,0,0,1-.252,2.678.413.413,0,0,0,.27.431,7.242,7.242,0,0,0,1.4.234,16.677,16.677,0,0,1,1.833.2,2.211,2.211,0,0,0,.431.018.629.629,0,0,0,.593-.323l.665-1.24a.245.245,0,0,0-.2-.306l-.988-.09a1.33,1.33,0,0,1-.4-.126,1.294,1.294,0,0,1-.737-1.114,7.961,7.961,0,0,1,.018-1.545c.054-.467.09-.934.126-1.4s.072-.934.144-1.4a13.225,13.225,0,0,0,.108-1.545c.036-1.132.09-2.264.144-3.4s.2-2.156.252-3.253c.018-.18.018-.377.054-.557a23.146,23.146,0,0,0,.216-2.821c.018-1.186.216-2.354.341-3.522a13.928,13.928,0,0,0,.288-2.031c.036-.323.108-.647.144-.988a3.63,3.63,0,0,1,.4-1.2,1.276,1.276,0,0,1,1.222-.791,41.639,41.639,0,0,1,4.816.18c.755.072,1.51.09,2.264.09l1.833.036,2.121.054c1.186.018,2.354.09,3.54.054a1.923,1.923,0,0,1,1.545,1.078.952.952,0,0,1,.108.413c.018.9.126,1.779.108,2.678-.018,1.312.018,2.642-.018,3.972-.018,1.042.036,2.085.018,3.127M26.794,69.486c.881,0,1.492-.036,2.1,0,1.078.072,2.174.018,3.253.036h.431a.593.593,0,0,0,.467-.467c.036-.18.054-.377.072-.557s.036-.575.09-.845c.18-.827.234-1.689.413-2.516.108-.5.144-1.024.216-1.528a.234.234,0,0,0-.144-.216.863.863,0,0,0-.4-.09l-3.54-.162c-.934-.054-1.887-.108-2.821-.09l-.7-.036c-1.312-.054-2.642-.126-3.954-.144S19.84,62.8,18.6,62.747l-2.121-.054-4.816-.072a4.6,4.6,0,0,1-.7-.072,8.355,8.355,0,0,0-1.438-.2,19.5,19.5,0,0,1-2.678-.18,4.439,4.439,0,0,0-1.4.018.539.539,0,0,0-.413.341,2.821,2.821,0,0,0-.162.539c-.162.934-.341,1.851-.5,2.785-.036.18-.072.377-.09.557-.054.521-.108,1.024-.162,1.545a.323.323,0,0,0,.234.306,13.187,13.187,0,0,0,2.516.306,22.377,22.377,0,0,1,2.821.2,4.455,4.455,0,0,0,.7.036c.323.018.665,0,.988.018,1.078.108,2.174.072,3.253.09a6.9,6.9,0,0,1,1.545.144,4.961,4.961,0,0,0,.845.072c1.545.09,3.109.072,4.654.252h.557l4.547.072m57.362,1.06c1.186.018,2.354.018,3.54.072h4.529c1.42-.018,2.821-.054,4.241.018h.144c.054-.018.108,0,.126-.036s.162-.144.162-.216a32.832,32.832,0,0,0-.2-5.229.593.593,0,0,0-.359-.4l-.288-.036-4.816-.054H88.29l-6.649-.054c-1.563-.018-3.109.054-4.672-.108l-3.954-.09a.737.737,0,0,0-.27.054.162.162,0,0,0-.072.234,1.473,1.473,0,0,0,.252.341l.881.917a1.779,1.779,0,0,1,.359.611,1.024,1.024,0,0,1-.036.827,1.4,1.4,0,0,1-.216.359c-.575.611-1.1,1.294-1.707,1.887a4.937,4.937,0,0,0-.377.431.234.234,0,0,0-.054.126.252.252,0,0,0,.108.234,1.15,1.15,0,0,0,.557.09l5.948.036h.845c.9.054,1.8.036,2.7.036h2.264M25.734,30.346h1.078a.773.773,0,0,0,.773-.5l.323-.629a17.791,17.791,0,0,1,1.222-2.228,6.038,6.038,0,0,0,.521-1.006,26.471,26.471,0,0,1,1.581-3,19.336,19.336,0,0,0,.952-1.743,6.894,6.894,0,0,1,.323-.629c.323-.575.611-1.168.881-1.761s.467-1.024.719-1.545.467-1.024.683-1.545c.377-.917.719-1.851,1.114-2.75.557-1.258,1.06-2.516,1.528-3.81.162-.449.341-.881.5-1.312a3.935,3.935,0,0,0,.27-.809,5.158,5.158,0,0,1,.413-1.2c.2-.485.413-.952.611-1.438a3.353,3.353,0,0,0,.126-.4c.036-.126-.054-.431-.216-.467s-.27-.09-.4-.108l-2.534-.288a3.72,3.72,0,0,0-.7.018.341.341,0,0,0-.323.234A10.1,10.1,0,0,1,34.5,4.971c-.216.413-.431.827-.629,1.276s-.5,1.114-.809,1.653a8.679,8.679,0,0,0-.485,1.024l-1.869,4.888-.054.126c-.521,1.617-1.132,3.2-1.779,4.762q-.467,1.114-.952,2.21c-.539,1.2-1.1,2.39-1.617,3.612a5.985,5.985,0,0,1-.306.629,12.49,12.49,0,0,0-.719,1.545l-.341.773-.988,2.336a.288.288,0,0,0,.18.341l.27.09a7.188,7.188,0,0,0,1.33.09M54.721,67.06h.018V64.652a1.006,1.006,0,0,0-.054-.27.288.288,0,0,0-.18-.2,1.581,1.581,0,0,0-.413-.072L49.15,64a36.361,36.361,0,0,1-3.954-.162h-.431l-2.408-.054c-.755-.018-1.51-.036-2.264-.126s-1.887-.09-2.821-.162a3.415,3.415,0,0,0-.7.036.323.323,0,0,0-.234.144,4.025,4.025,0,0,0-.359,1.366,7.4,7.4,0,0,1-.18,1.114,4.977,4.977,0,0,0-.108.7,6.614,6.614,0,0,1-.18,1.114,5.032,5.032,0,0,0-.108,1.258.467.467,0,0,0,.341.4,15.184,15.184,0,0,0,1.689.108h6.793l4.385.072.7.054a11.843,11.843,0,0,0,1.42.072h3.4a.7.7,0,0,0,.27-.054.413.413,0,0,0,.216-.18,1.168,1.168,0,0,0,.09-.413c.018-.755.036-1.51.036-2.264m.234-31.179a14.448,14.448,0,0,0-2.785.018,2.282,2.282,0,0,0-1.42.575l-.863.737a4.546,4.546,0,0,0-.755.845,13.567,13.567,0,0,0-1.581,3.145,9.686,9.686,0,0,0-.575,2.336c-.018.234-.09.467-.126.7a9.92,9.92,0,0,0-.072,2.408c.072.647.234,1.294.288,1.959a2.785,2.785,0,0,0,.108.413A9.9,9.9,0,0,0,48,50.94a11.465,11.465,0,0,0,2.66,3.468.755.755,0,0,0,.234.144,7.566,7.566,0,0,0,1.492.431l.845.126a17.126,17.126,0,0,0,2.1.27c.108,0,.162-.09.162-.2a.341.341,0,0,0-.108-.234A7.566,7.566,0,0,1,54.092,53.1l-.9-1.923a4.438,4.438,0,0,1-.2-.521,13.855,13.855,0,0,1-.611-2.911c-.036-.431-.072-.845-.108-1.276a5.445,5.445,0,0,1,.036-1.276,6.884,6.884,0,0,0,.09-.7,6.6,6.6,0,0,1,.431-1.9l.234-.665a13.5,13.5,0,0,1,1.9-3.468,7.673,7.673,0,0,1,1.617-1.581,4.871,4.871,0,0,0,.791-.593.288.288,0,0,0,.036-.126c.018-.09-.036-.162-.144-.18l-.557-.054H54.972M65.359,64.328H61.442a.5.5,0,0,0-.4.341,2.3,2.3,0,0,0,.036,1.114.359.359,0,0,0,.2.2,1.33,1.33,0,0,0,.413.09l1.132.054a1.276,1.276,0,0,1,1.1.773.934.934,0,0,1,0,.827,1.168,1.168,0,0,1-.845.683,2.479,2.479,0,0,1-.7.072l-.988-.09a.4.4,0,0,0-.413.306,3.414,3.414,0,0,0,.018,1.132.27.27,0,0,0,.054.126.575.575,0,0,0,.2.18,1.33,1.33,0,0,0,.413.072l5.661.144h.431a.845.845,0,0,0,.521-.216,4.368,4.368,0,0,1,.431-.359,6.057,6.057,0,0,0,1.024-.952l1.348-1.456.18-.216a.4.4,0,0,0,0-.521,18.852,18.852,0,0,1-1.438-1.545,5.319,5.319,0,0,0-.5-.5.791.791,0,0,0-.5-.216h-.288l-3.163-.054m.234-60.328-2.7-.036c-1.132-.018-2.264,0-3.378.054a.611.611,0,0,0-.539.4c-.27.593-.557,1.186-.773,1.815a.259.259,0,0,0,.234.288l.845.036c.665,0,1.312-.018,1.977.018s1.312.054,1.977.036a9.345,9.345,0,0,1,1.833.108,4.8,4.8,0,0,0,.7.054l1.977.054a13.315,13.315,0,0,1,2.8.216h2.534a.413.413,0,0,0,.323-.234c.252-.755.539-1.51.827-2.246a.306.306,0,0,0-.18-.323,18.708,18.708,0,0,0-2.66-.234h-5.8M58.674,67.509a23.111,23.111,0,0,0-.018-3,.467.467,0,0,0-.288-.288,2.282,2.282,0,0,0-.845-.036.521.521,0,0,0-.377.377c-.018.288-.018.557-.018.845s-.018.934-.054,1.4a26,26,0,0,0-.054,2.8.431.431,0,0,0,.341.377,3.541,3.541,0,0,0,.845.018l.144-.036a.4.4,0,0,0,.27-.288c.018-.845.036-1.689.054-2.192M77.148,7.11h0l1.132.072a.5.5,0,0,0,.234-.126.27.27,0,0,0,.09-.108A11.878,11.878,0,0,0,79.448,4.7a.97.97,0,0,0,.018-.27c0-.036-.054-.072-.072-.09l-.126-.054a9.165,9.165,0,0,0-1.689-.108.873.873,0,0,0-.809.467c-.162.341-.5,1.114-.755,1.671a1.815,1.815,0,0,0-.09.413.305.305,0,0,0,.234.306l.988.072m7.44.234.791-.09a1.9,1.9,0,0,0,.4-.126.305.305,0,0,0,.18-.341A9.038,9.038,0,0,0,85.109,4.7a.539.539,0,0,0-.467-.27c-.467-.036-.934-.054-1.4-.126H83.1c-.108,0-.27.18-.234.288s.144.647.252.952a7.692,7.692,0,0,1,.27,1.1c.108.575.306.665.881.665h.323M44.711,6h0l.827.072.413.036a.306.306,0,0,0,.27-.252,3.073,3.073,0,0,0-.359-1.33.683.683,0,0,0-.539-.4c-.377-.054-.737-.054-1.114-.09L43.237,4a.27.27,0,0,0-.27.252l.126,1.114V5.51a.575.575,0,0,0,.467.449l1.114.072" transform="translate(0 0.007)"/>
      <path id="Path_539" data-name="Path 539" d="M0,13.891a25.882,25.882,0,0,0,.288-3.378c.018-.9.054-1.8.072-2.7a6.776,6.776,0,0,1,.09-.988,7.936,7.936,0,0,0,.108-.845C.665,4.187.9,2.408.934.611A2.394,2.394,0,0,1,.97.323.431.431,0,0,1,1.258.036L1.527,0a9.137,9.137,0,0,1,.988.072A15.9,15.9,0,0,0,4.78.216c1.887,0,3.774.09,5.661.216,1.456.09,2.929.108,4.385.108S17.467.593,18.779.7c.467.036.934.036,1.42.054l4.672.072c1.186.018,2.354.108,3.54.09l.557.036c1.222.126,2.444.144,3.684.162h2.7l5.948.054a7.318,7.318,0,0,1,.988.054,14.2,14.2,0,0,0,1.833.108l6.793.144h.144c1.689.126,3.4.216,5.086.2a4.562,4.562,0,0,1,.845.072,10.677,10.677,0,0,0,2.121.144l.27.054a.629.629,0,0,1,.306.288.423.423,0,0,0,.036.144c.108.845.216,1.689.305,2.534s.072,1.222.09,1.833A7.185,7.185,0,0,0,60.256,8c.144.647.18,1.312.323,1.959a5.014,5.014,0,0,1,.09,1.132,7.314,7.314,0,0,0,.27,2.1,1.366,1.366,0,0,1,.018.7Z" transform="translate(36.283 90.698)" fill="#beb0a3"/>
      <path id="Path_540" data-name="Path 540" d="M0,13.891a25.882,25.882,0,0,0,.288-3.378c.018-.9.054-1.8.072-2.7a6.776,6.776,0,0,1,.09-.988,7.936,7.936,0,0,0,.108-.845C.665,4.187.9,2.408.934.611A2.394,2.394,0,0,1,.97.323.431.431,0,0,1,1.258.036L1.527,0a9.137,9.137,0,0,1,.988.072A15.9,15.9,0,0,0,4.78.216c1.887,0,3.774.09,5.661.216,1.456.09,2.929.108,4.385.108S17.467.593,18.779.7c.467.036.934.036,1.42.054l4.672.072c1.186.018,2.354.108,3.54.09l.557.036c1.222.126,2.444.144,3.684.162h2.7l5.948.054a7.318,7.318,0,0,1,.988.054,14.2,14.2,0,0,0,1.833.108l6.793.144h.144c1.689.126,3.4.216,5.086.2a4.562,4.562,0,0,1,.845.072,10.677,10.677,0,0,0,2.121.144l.27.054a.629.629,0,0,1,.306.288.423.423,0,0,0,.036.144c.108.845.216,1.689.305,2.534s.072,1.222.09,1.833A7.185,7.185,0,0,0,60.256,8c.144.647.18,1.312.323,1.959a5.014,5.014,0,0,1,.09,1.132,7.314,7.314,0,0,0,.27,2.1,1.366,1.366,0,0,1,.018.7Z" transform="translate(36.283 90.698)" fill="none" stroke="#b7a999" stroke-miterlimit="10" stroke-width="0.18"/>
      <path id="Path_541" data-name="Path 541" d="M0,15.885c.108-.988.288-1.959.323-2.947A18.179,18.179,0,0,1,.737,9.991c.036-.18.054-.377.072-.557.108-1.024.323-2.049.5-3.073s.431-2.318.665-3.468A26.348,26.348,0,0,1,2.57.268.413.413,0,0,1,2.875.017a6.9,6.9,0,0,1,1.689.09,12.2,12.2,0,0,0,1.4.162L7.656.43,9.2.538a18.165,18.165,0,0,1,2.121.2,8.989,8.989,0,0,0,1.132.09c.755.036,1.51.09,2.264.2a12.284,12.284,0,0,0,1.4.108l2.965.09c.323.018.665.018.988.054,1.132.144,2.264.18,3.4.216l1.42.09c.7.072,1.42.09,2.121.108h.845a37.237,37.237,0,0,1,4.385.252.413.413,0,0,1,.341.377c0,.054.018.09.018.144a16.136,16.136,0,0,1-.108,2.121c-.09.7-.144,1.4-.18,2.121a11.162,11.162,0,0,1-.144,1.545,9.9,9.9,0,0,0-.126,1.689q-.018,1.348-.054,2.7c-.018.377-.036.755-.072,1.132-.09.7-.126,1.4-.162,2.121Z" transform="translate(2.264 88.704)" fill="#beb0a3"/>
      <path id="Path_542" data-name="Path 542" d="M0,15.885c.108-.988.288-1.959.323-2.947A18.179,18.179,0,0,1,.737,9.991c.036-.18.054-.377.072-.557.108-1.024.323-2.049.5-3.073s.431-2.318.665-3.468A26.348,26.348,0,0,1,2.57.268.413.413,0,0,1,2.875.017a6.9,6.9,0,0,1,1.689.09,12.2,12.2,0,0,0,1.4.162L7.656.43,9.2.538a18.165,18.165,0,0,1,2.121.2,8.989,8.989,0,0,0,1.132.09c.755.036,1.51.09,2.264.2a12.284,12.284,0,0,0,1.4.108l2.965.09c.323.018.665.018.988.054,1.132.144,2.264.18,3.4.216l1.42.09c.7.072,1.42.09,2.121.108h.845a37.237,37.237,0,0,1,4.385.252.413.413,0,0,1,.341.377c0,.054.018.09.018.144a16.136,16.136,0,0,1-.108,2.121c-.09.7-.144,1.4-.18,2.121a11.162,11.162,0,0,1-.144,1.545,9.9,9.9,0,0,0-.126,1.689q-.018,1.348-.054,2.7c-.018.377-.036.755-.072,1.132-.09.7-.126,1.4-.162,2.121Z" transform="translate(2.264 88.704)" fill="none" stroke="#b7a999" stroke-miterlimit="10" stroke-width="0.18"/>
      <path id="Path_543" data-name="Path 543" d="M30.984,26.69c-.018.323-.036.575-.054.809a12.6,12.6,0,0,1-.2,1.977l-.377,4.367a9.084,9.084,0,0,0-.036.988,10.6,10.6,0,0,1-.108,1.276,9.177,9.177,0,0,0-.09.988,23.361,23.361,0,0,1-.252,2.534,4.655,4.655,0,0,0-.054.557,21.549,21.549,0,0,1-.216,2.246c-.036.18-.036.377-.054.557-.072.934-.108,1.887-.252,2.821a9.141,9.141,0,0,0-.072.988c-.018.323-.072,1.132-.162,1.689a17.378,17.378,0,0,0-.144,1.977,17.955,17.955,0,0,1-.252,2.39.449.449,0,0,1-.413.323h-.431A22.333,22.333,0,0,0,25.144,53c-.9-.018-2.067-.054-3.109-.162a23.766,23.766,0,0,0-2.7-.108c-1.6,0-3.2-.072-4.816-.2l-.845-.036c-1.33-.036-2.642-.018-3.972-.09H9.024c-1.222.036-2.462-.054-3.684-.072H5.2c-.521-.018-1.024-.144-1.545-.126a11.536,11.536,0,0,1-1.42-.054L.811,52.1l-.557-.054c-.072,0-.234-.234-.252-.323a6.739,6.739,0,0,1,.108-1.4c.054-.377.108-.755.162-1.114a14.323,14.323,0,0,1,.2-1.545c.09-1.078.341-2.139.413-3.235.018-.234.054-.467.09-.7l.162-1.114c.036-.323.09-.647.126-.988s.072-.377.09-.557q.18-1.617.341-3.235c.018-.144.018-.288.036-.431.144-.934.252-1.869.377-2.8.054-.413.126-.845.18-1.258a6.612,6.612,0,0,1,.108-.845,12.453,12.453,0,0,0,.18-1.545,9.23,9.23,0,0,1,.108-.988c.054-.323.126-1.024.18-1.545s.162-1.312.234-1.959.09-1.312.216-1.977a6.344,6.344,0,0,0,.09-.7,11.5,11.5,0,0,1,.2-1.689,1.312,1.312,0,0,0,.018-.144c.018-.18.054-.377.054-.557.036-1.186.288-2.336.305-3.522.018-.7.108-1.4.18-2.121s.108-1.312.234-1.959a6.377,6.377,0,0,0,.108-.845c.108-1.024.2-2.067.306-3.091a4.977,4.977,0,0,1,.09-.7A9.327,9.327,0,0,0,5.16,7.3a9,9,0,0,1,.252-1.528c.018-.108.09-.18.144-.18s.072.072.09.108c.2.827.413,1.653.575,2.48s.467,2.031.719,3.019l.162.683c.144.539.288,1.1.467,1.635.557,1.707,1.2,3.378,1.779,5.068.288.845.611,1.689.97,2.5s.521,1.312.809,1.959a1.42,1.42,0,0,0,.323.449,3.271,3.271,0,0,0,.952.611,2.066,2.066,0,0,0,.683.18l.557.036a7.851,7.851,0,0,1,1.258.126,12.221,12.221,0,0,0,2.534.216l1.833-.036a1.528,1.528,0,0,0,.665-.216,1.851,1.851,0,0,0,.629-.557,4.746,4.746,0,0,0,.305-.467c.162-.288.323-.575.467-.881A24.887,24.887,0,0,1,22.771,19.9a4.4,4.4,0,0,0,.4-.755,21.367,21.367,0,0,1,1.42-2.767,24.711,24.711,0,0,0,1.2-2.246c.647-1.042,1.1-2.192,1.635-3.289S28.648,8.073,29.2,6.671c.162-.4.323-.791.485-1.168.449-.988.845-1.995,1.2-3.019s.575-1.492.881-2.246A.467.467,0,0,1,32.242,0l.97.162a.413.413,0,0,1,.341.4c-.036.323-.072.647-.09.988a11.285,11.285,0,0,1-.252,1.959,30.355,30.355,0,0,0-.377,3.378,5.176,5.176,0,0,1-.072.845c-.216,1.168-.234,2.354-.377,3.522-.036.288-.036.557-.054.845s-.036.845-.072,1.276-.162,1.222-.216,1.833a11.931,11.931,0,0,1-.2,1.689,2.713,2.713,0,0,0-.054.413c-.126,1.6-.341,3.2-.4,4.8-.018.377-.054.755-.09,1.132s-.072.467-.09.7a24.767,24.767,0,0,1-.27,2.714" transform="translate(8.48 7.975)" fill="#beb0a3"/>
      <path id="Path_544" data-name="Path 544" d="M30.984,26.69c-.018.323-.036.575-.054.809a12.6,12.6,0,0,1-.2,1.977l-.377,4.367a9.084,9.084,0,0,0-.036.988,10.6,10.6,0,0,1-.108,1.276,9.177,9.177,0,0,0-.09.988,23.361,23.361,0,0,1-.252,2.534,4.655,4.655,0,0,0-.054.557,21.549,21.549,0,0,1-.216,2.246c-.036.18-.036.377-.054.557-.072.934-.108,1.887-.252,2.821a9.141,9.141,0,0,0-.072.988c-.018.323-.072,1.132-.162,1.689a17.378,17.378,0,0,0-.144,1.977,17.955,17.955,0,0,1-.252,2.39.449.449,0,0,1-.413.323h-.431A22.333,22.333,0,0,0,25.144,53c-.9-.018-2.067-.054-3.109-.162a23.766,23.766,0,0,0-2.7-.108c-1.6,0-3.2-.072-4.816-.2l-.845-.036c-1.33-.036-2.642-.018-3.972-.09H9.024c-1.222.036-2.462-.054-3.684-.072H5.2c-.521-.018-1.024-.144-1.545-.126a11.536,11.536,0,0,1-1.42-.054L.811,52.1l-.557-.054c-.072,0-.234-.234-.252-.323a6.739,6.739,0,0,1,.108-1.4c.054-.377.108-.755.162-1.114a14.323,14.323,0,0,1,.2-1.545c.09-1.078.341-2.139.413-3.235.018-.234.054-.467.09-.7l.162-1.114c.036-.323.09-.647.126-.988s.072-.377.09-.557q.18-1.617.341-3.235c.018-.144.018-.288.036-.431.144-.934.252-1.869.377-2.8.054-.413.126-.845.18-1.258a6.612,6.612,0,0,1,.108-.845,12.453,12.453,0,0,0,.18-1.545,9.23,9.23,0,0,1,.108-.988c.054-.323.126-1.024.18-1.545s.162-1.312.234-1.959.09-1.312.216-1.977a6.344,6.344,0,0,0,.09-.7,11.5,11.5,0,0,1,.2-1.689,1.312,1.312,0,0,0,.018-.144c.018-.18.054-.377.054-.557.036-1.186.288-2.336.305-3.522.018-.7.108-1.4.18-2.121s.108-1.312.234-1.959a6.377,6.377,0,0,0,.108-.845c.108-1.024.2-2.067.306-3.091a4.977,4.977,0,0,1,.09-.7A9.327,9.327,0,0,0,5.16,7.3a9,9,0,0,1,.252-1.528c.018-.108.09-.18.144-.18s.072.072.09.108c.2.827.413,1.653.575,2.48s.467,2.031.719,3.019l.162.683c.144.539.288,1.1.467,1.635.557,1.707,1.2,3.378,1.779,5.068.288.845.611,1.689.97,2.5s.521,1.312.809,1.959a1.42,1.42,0,0,0,.323.449,3.271,3.271,0,0,0,.952.611,2.066,2.066,0,0,0,.683.18l.557.036a7.851,7.851,0,0,1,1.258.126,12.221,12.221,0,0,0,2.534.216l1.833-.036a1.528,1.528,0,0,0,.665-.216,1.851,1.851,0,0,0,.629-.557,4.746,4.746,0,0,0,.305-.467c.162-.288.323-.575.467-.881A24.887,24.887,0,0,1,22.771,19.9a4.4,4.4,0,0,0,.4-.755,21.367,21.367,0,0,1,1.42-2.767,24.711,24.711,0,0,0,1.2-2.246c.647-1.042,1.1-2.192,1.635-3.289S28.648,8.073,29.2,6.671c.162-.4.323-.791.485-1.168.449-.988.845-1.995,1.2-3.019s.575-1.492.881-2.246A.467.467,0,0,1,32.242,0l.97.162a.413.413,0,0,1,.341.4c-.036.323-.072.647-.09.988a11.285,11.285,0,0,1-.252,1.959,30.355,30.355,0,0,0-.377,3.378,5.176,5.176,0,0,1-.072.845c-.216,1.168-.234,2.354-.377,3.522-.036.288-.036.557-.054.845s-.036.845-.072,1.276-.162,1.222-.216,1.833a11.931,11.931,0,0,1-.2,1.689,2.713,2.713,0,0,0-.054.413c-.126,1.6-.341,3.2-.4,4.8-.018.377-.054.755-.09,1.132s-.072.467-.09.7A18.459,18.459,0,0,1,30.984,26.69Z" transform="translate(8.48 7.975)" fill="none" stroke="#b7a999" stroke-miterlimit="10" stroke-width="0.18"/>
      <path id="Path_545" data-name="Path 545" d="M9.6.216l.539.036C11.555.377,12.957.4,14.377.4c.988,0,1.977-.018,2.965.054.234.018.467.018.7.054A21.636,21.636,0,0,0,21.3.683c1.222,0,2.462,0,3.684.072L26.4.827l1.132.036H29.8L32.2.916H37l2.965.036h2.7l4.385.036H48.88l1.563.054c.557.036,1.132.018,1.689.018.234,0,.467-.054.7-.036A5.48,5.48,0,0,0,54.11.952,30.7,30.7,0,0,1,57.219.934l.144.036a.42.42,0,0,1,.288.288,2.031,2.031,0,0,1,.144.683c.126,1.51.306,3,.359,4.511A18.155,18.155,0,0,0,58.3,8.284c.054.4-.126.593-.557.647l-.431.036h-.431a19.98,19.98,0,0,0-2.965-.18,14.987,14.987,0,0,1-2.121-.126,6.307,6.307,0,0,0-.845-.036l-7.08-.144-1.132-.054c-1.132-.072-2.264-.126-3.4-.144-2.732-.018-5.481-.054-8.213-.054a10.921,10.921,0,0,1-1.276-.054c-.755-.09-1.51-.09-2.264-.108l-3.4-.108H22.913l-3.54-.09c-2.067-.072-4.151-.2-6.218-.18-1.132,0-2.264-.036-3.4-.144L8.626,7.494,5.8,7.4l-.7-.036c-1.51.054-3.019-.162-4.511-.234L.323,7.08a.431.431,0,0,1-.288-.288A2.172,2.172,0,0,1,0,6.505c.018-.431,0-.845.054-1.276C.2,3.918.27,2.588.485,1.294.539.97.575.647.629.305A.485.485,0,0,1,.917.036L1.186,0,5.858.054l.7.036c.809.072,1.6.072,2.408.072H9.56" transform="translate(37.397 81.245)" fill="#beb0a3"/>
      <path id="Path_546" data-name="Path 546" d="M9.6.216l.539.036C11.555.377,12.957.4,14.377.4c.988,0,1.977-.018,2.965.054.234.018.467.018.7.054A21.636,21.636,0,0,0,21.3.683c1.222,0,2.462,0,3.684.072L26.4.827l1.132.036H29.8L32.2.916H37l2.965.036h2.7l4.385.036H48.88l1.563.054c.557.036,1.132.018,1.689.018.234,0,.467-.054.7-.036A5.48,5.48,0,0,0,54.11.952,30.7,30.7,0,0,1,57.219.934l.144.036a.42.42,0,0,1,.288.288,2.031,2.031,0,0,1,.144.683c.126,1.51.306,3,.359,4.511A18.155,18.155,0,0,0,58.3,8.284c.054.4-.126.593-.557.647l-.431.036h-.431a19.98,19.98,0,0,0-2.965-.18,14.987,14.987,0,0,1-2.121-.126,6.307,6.307,0,0,0-.845-.036l-7.08-.144-1.132-.054c-1.132-.072-2.264-.126-3.4-.144-2.732-.018-5.481-.054-8.213-.054a10.921,10.921,0,0,1-1.276-.054c-.755-.09-1.51-.09-2.264-.108l-3.4-.108H22.913l-3.54-.09c-2.067-.072-4.151-.2-6.218-.18-1.132,0-2.264-.036-3.4-.144L8.626,7.494,5.8,7.4l-.7-.036c-1.51.054-3.019-.162-4.511-.234L.323,7.08a.431.431,0,0,1-.288-.288A2.172,2.172,0,0,1,0,6.505c.018-.431,0-.845.054-1.276C.2,3.918.27,2.588.485,1.294.539.97.575.647.629.305A.485.485,0,0,1,.917.036L1.186,0,5.858.054l.7.036c.809.072,1.6.072,2.408.072Z" transform="translate(37.397 81.245)" fill="none" stroke="#b7a999" stroke-miterlimit="10" stroke-width="0.18"/>
      <path id="Path_547" data-name="Path 547" d="M36.9,20.774,28.557,20.7l-2.552-.054H21.62a11.966,11.966,0,0,1-1.563-.072,8.462,8.462,0,0,0-.988-.054l-5.517-.09L9.58,20.361a3.522,3.522,0,0,1-.557-.036,11.518,11.518,0,0,0-1.833-.108l-4.529-.108H2.374c-.7-.144-1.4-.108-2.1-.2-.144-.018-.288-.162-.27-.27.054-1.042.072-2.085.18-3.109s.2-2.156.27-3.253a5.136,5.136,0,0,1,.072-.557A14.95,14.95,0,0,0,.7,10.89,1.544,1.544,0,0,1,.72,10.6c.072-.755.162-1.51.234-2.246A20.172,20.172,0,0,1,1.17,6.236a2.857,2.857,0,0,0,.054-.413c.054-1.042.162-2.067.27-3.109.036-.413.036-.845.072-1.276s.054-.755.09-1.132A.485.485,0,0,1,1.942.018,11.125,11.125,0,0,1,5.159.305a.305.305,0,0,1,.162.341c-.09.521-.162,1.024-.252,1.545a7.131,7.131,0,0,0-.126,1.132c-.018.521-.036,1.042-.018,1.563a7.531,7.531,0,0,0,.09,1.132c.09.557.162,1.114.252,1.671a6.991,6.991,0,0,0,.449,1.492A15.293,15.293,0,0,0,8.5,13.747l.467.521a5.031,5.031,0,0,0,.97.827,2.12,2.12,0,0,0,.359.216,9,9,0,0,0,1.887.575c1.078.18,2.139.341,3.217.485.377.054.755.054,1.132.09s.952.036,1.42.09a24.621,24.621,0,0,0,2.534.2,14.968,14.968,0,0,1,2.39.18,3.688,3.688,0,0,0,.557.054,11.054,11.054,0,0,1,1.833.216,3.451,3.451,0,0,0,.557.072c1.276.054,2.534.2,3.81.2h1.833c1.42.036,2.839-.09,4.241-.162a4.477,4.477,0,0,0,.7-.09l2.21-.5a18.817,18.817,0,0,0,1.887-.575,6.543,6.543,0,0,0,.9-.4,9.74,9.74,0,0,0,2.839-2.1,8.19,8.19,0,0,0,.773-1.006,12.274,12.274,0,0,0,1.707-3.864,3.7,3.7,0,0,0,.09-.413c.09-.755.18-1.492.252-2.246a5.967,5.967,0,0,0-.09-1.689.918.918,0,0,1-.018-.144,11.915,11.915,0,0,0-.4-2.372c-.018-.09-.018-.18-.036-.288a.449.449,0,0,1,.216-.323,2.859,2.859,0,0,1,.413-.09c.521-.018,1.042-.036,1.563-.036s1.312.036,1.977,0,.845,0,1.276,0a.5.5,0,0,1,.485.431c.018.18.036.377.054.557s.036.755.09,1.132a24.233,24.233,0,0,1,.234,2.534c.036.611.072,1.222.162,1.833s.054.755.09,1.132a21.6,21.6,0,0,0,.2,2.264,2.4,2.4,0,0,1,.036.288c.054,1.33.234,2.642.341,3.954.054.665.072,1.312.108,1.977.018.288.036.557.054.845a15.33,15.33,0,0,1,.054,2.552.4.4,0,0,1-.377.341h-.288c-2.21-.018-4.439,0-6.649-.054s-4.349-.036-6.523-.054l-1.563-.054-1.581-.09" transform="translate(39.57 41.351)" fill="#beb0a3"/>
      <path id="Path_548" data-name="Path 548" d="M36.9,20.774,28.557,20.7l-2.552-.054H21.62a11.966,11.966,0,0,1-1.563-.072,8.462,8.462,0,0,0-.988-.054l-5.517-.09L9.58,20.361a3.522,3.522,0,0,1-.557-.036,11.518,11.518,0,0,0-1.833-.108l-4.529-.108H2.374c-.7-.144-1.4-.108-2.1-.2-.144-.018-.288-.162-.27-.27.054-1.042.072-2.085.18-3.109s.2-2.156.27-3.253a5.136,5.136,0,0,1,.072-.557A14.95,14.95,0,0,0,.7,10.89,1.544,1.544,0,0,1,.72,10.6c.072-.755.162-1.51.234-2.246A20.172,20.172,0,0,1,1.17,6.236a2.857,2.857,0,0,0,.054-.413c.054-1.042.162-2.067.27-3.109.036-.413.036-.845.072-1.276s.054-.755.09-1.132A.485.485,0,0,1,1.942.018,11.125,11.125,0,0,1,5.159.305a.305.305,0,0,1,.162.341c-.09.521-.162,1.024-.252,1.545a7.131,7.131,0,0,0-.126,1.132c-.018.521-.036,1.042-.018,1.563a7.531,7.531,0,0,0,.09,1.132c.09.557.162,1.114.252,1.671a6.991,6.991,0,0,0,.449,1.492A15.293,15.293,0,0,0,8.5,13.747l.467.521a5.031,5.031,0,0,0,.97.827,2.12,2.12,0,0,0,.359.216,9,9,0,0,0,1.887.575c1.078.18,2.139.341,3.217.485.377.054.755.054,1.132.09s.952.036,1.42.09a24.621,24.621,0,0,0,2.534.2,14.968,14.968,0,0,1,2.39.18,3.688,3.688,0,0,0,.557.054,11.054,11.054,0,0,1,1.833.216,3.451,3.451,0,0,0,.557.072c1.276.054,2.534.2,3.81.2h1.833c1.42.036,2.839-.09,4.241-.162a4.477,4.477,0,0,0,.7-.09l2.21-.5a18.817,18.817,0,0,0,1.887-.575,6.543,6.543,0,0,0,.9-.4,9.74,9.74,0,0,0,2.839-2.1,8.19,8.19,0,0,0,.773-1.006,12.274,12.274,0,0,0,1.707-3.864,3.7,3.7,0,0,0,.09-.413c.09-.755.18-1.492.252-2.246a5.967,5.967,0,0,0-.09-1.689.918.918,0,0,1-.018-.144,11.915,11.915,0,0,0-.4-2.372c-.018-.09-.018-.18-.036-.288a.449.449,0,0,1,.216-.323,2.859,2.859,0,0,1,.413-.09c.521-.018,1.042-.036,1.563-.036s1.312.036,1.977,0,.845,0,1.276,0a.5.5,0,0,1,.485.431c.018.18.036.377.054.557s.036.755.09,1.132a24.233,24.233,0,0,1,.234,2.534c.036.611.072,1.222.162,1.833s.054.755.09,1.132a21.6,21.6,0,0,0,.2,2.264,2.4,2.4,0,0,1,.036.288c.054,1.33.234,2.642.341,3.954.054.665.072,1.312.108,1.977.018.288.036.557.054.845a15.33,15.33,0,0,1,.054,2.552.4.4,0,0,1-.377.341h-.288c-2.21-.018-4.439,0-6.649-.054s-4.349-.036-6.523-.054l-1.563-.054Z" transform="translate(39.57 41.351)" fill="none" stroke="#b7a999" stroke-miterlimit="10" stroke-width="0.18"/>
      <path id="Path_549" data-name="Path 549" d="M43.458,7.8H41.193c-1.132,0-2.264,0-3.4-.036-.665-.018-1.33-.018-1.977-.018h-3.4a15.008,15.008,0,0,1-1.977-.09,6.109,6.109,0,0,0-.7-.036h-.988c-1.941.018-3.864-.036-5.8-.09l-3.109-.054a11.657,11.657,0,0,1-1.276-.054,37.391,37.391,0,0,0-3.954-.216H12.638A24.514,24.514,0,0,1,10.086,7.1c-.611-.054-1.222-.072-1.833-.072l-2.7-.054H4.282C3.06,6.991,1.838,6.919.6,6.883a.917.917,0,0,1-.413-.108.251.251,0,0,1-.162-.216A1.814,1.814,0,0,1,0,6.146,11.992,11.992,0,0,0,.13,4.6C.166,3.468.22,2.336.256,1.2A3.27,3.27,0,0,1,.382.359.575.575,0,0,1,.777,0h7.08c1.923.126,3.864.126,5.8.18h.431l5.517.072a9.509,9.509,0,0,1,1.42.09,11.41,11.41,0,0,0,1.689.108l4.672.072,1.276.054c.809.054,1.6.09,2.408.072s1.51,0,2.264.054H33.9c1.6-.054,3.2.018,4.816.036l3.253.036H42.4c1.563-.054,3.109.018,4.672.018.611,0,1.222,0,1.833.054a10.458,10.458,0,0,0,1.276.018h5.229a.449.449,0,0,1,.431.306,6.682,6.682,0,0,1,.126.7c.036.431.054.845.072,1.276s0,.467.018.7A17.951,17.951,0,0,0,56.2,5.679c.072.521.108,1.024.162,1.546a2.4,2.4,0,0,1-.018.288.4.4,0,0,1-.27.288l-1.563.054c-.575,0-1.132,0-1.689.054a6.357,6.357,0,0,1-.988.018H46.441l-2.965-.054Z" transform="translate(38.327 72.134)" fill="#beb0a3"/>
      <path id="Path_550" data-name="Path 550" d="M43.458,7.8H41.193c-1.132,0-2.264,0-3.4-.036-.665-.018-1.33-.018-1.977-.018h-3.4a15.008,15.008,0,0,1-1.977-.09,6.109,6.109,0,0,0-.7-.036h-.988c-1.941.018-3.864-.036-5.8-.09l-3.109-.054a11.657,11.657,0,0,1-1.276-.054,37.391,37.391,0,0,0-3.954-.216H12.638A24.514,24.514,0,0,1,10.086,7.1c-.611-.054-1.222-.072-1.833-.072l-2.7-.054H4.282C3.06,6.991,1.838,6.919.6,6.883a.917.917,0,0,1-.413-.108.251.251,0,0,1-.162-.216A1.814,1.814,0,0,1,0,6.146,11.992,11.992,0,0,0,.13,4.6C.166,3.468.22,2.336.256,1.2A3.27,3.27,0,0,1,.382.359.575.575,0,0,1,.777,0h7.08c1.923.126,3.864.126,5.8.18h.431l5.517.072a9.509,9.509,0,0,1,1.42.09,11.41,11.41,0,0,0,1.689.108l4.672.072,1.276.054c.809.054,1.6.09,2.408.072s1.51,0,2.264.054H33.9c1.6-.054,3.2.018,4.816.036l3.253.036H42.4c1.563-.054,3.109.018,4.672.018.611,0,1.222,0,1.833.054a10.458,10.458,0,0,0,1.276.018h5.229a.449.449,0,0,1,.431.306,6.682,6.682,0,0,1,.126.7c.036.431.054.845.072,1.276s0,.467.018.7A17.951,17.951,0,0,0,56.2,5.679c.072.521.108,1.024.162,1.546a2.4,2.4,0,0,1-.018.288.4.4,0,0,1-.27.288l-1.563.054c-.575,0-1.132,0-1.689.054a6.357,6.357,0,0,1-.988.018H46.441l-2.965-.054Z" transform="translate(38.327 72.134)" fill="none" stroke="#b7a999" stroke-miterlimit="10" stroke-width="0.18"/>
      <path id="Path_551" data-name="Path 551" d="M16.064,19.947l-4.007-.09a12.259,12.259,0,0,1-1.545-.162c-.881-.144-1.779-.288-2.66-.377a5.894,5.894,0,0,1-1.24-.27c-.629-.2-1.258-.413-1.869-.647a6.954,6.954,0,0,1-2.48-1.833,4.78,4.78,0,0,1-.773-1.186c-.216-.467-.431-.934-.665-1.4a4.44,4.44,0,0,1-.288-.791,11.032,11.032,0,0,1-.485-2.5c0-.18,0-.377-.018-.557a10.622,10.622,0,0,1,.09-2.264,2.3,2.3,0,0,1,.09-.413A14.986,14.986,0,0,1,1.526,4.331,10.386,10.386,0,0,1,2.6,2.839l.2-.2A7.893,7.893,0,0,1,6,.881L8.606.252A11.844,11.844,0,0,1,10.709,0a.467.467,0,0,1,.431.306c.054.27.144.557.2.827a6.251,6.251,0,0,0,.377,1.06,4.2,4.2,0,0,0,.755,1.186,2.462,2.462,0,0,0,.665.521l.881.449a.557.557,0,0,1,.27.467A1.563,1.563,0,0,1,14.3,5.1c-.036,1.132-.072,2.264-.126,3.4,0,.18-.054.377-.072.557a10.63,10.63,0,0,0-.126,1.132,4.205,4.205,0,0,1-.467,1.761,2.067,2.067,0,0,1-.97.988,1.779,1.779,0,0,1-1.24.162,3.684,3.684,0,0,1-1.384-.683,1.078,1.078,0,0,1-.4-.575c-.054-.18-.072-.377-.144-.557a1.222,1.222,0,0,0-.521-.647,1.114,1.114,0,0,0-1.689.881,2.947,2.947,0,0,0,.288,1.51,3.234,3.234,0,0,0,.665.917,4.276,4.276,0,0,0,1.024.755,9.039,9.039,0,0,0,1.563.665,2.588,2.588,0,0,0,1.528.072,4.259,4.259,0,0,0,2.174-.952A1.132,1.132,0,0,1,14.9,14.2h.126a1.4,1.4,0,0,1,.431.359,3.72,3.72,0,0,0,.9.629,3.037,3.037,0,0,0,1.348.359h1.42a4.169,4.169,0,0,0,2.893-1.294,2.857,2.857,0,0,0,.665-1.078,8.37,8.37,0,0,0,.234-.809,1.276,1.276,0,0,0-.611-1.33,1.042,1.042,0,0,0-.952-.054,1.312,1.312,0,0,0-.737.809,2.519,2.519,0,0,0-.108.413,1.149,1.149,0,0,1-.827.881,2.84,2.84,0,0,1-.557.126,4.817,4.817,0,0,1-1.276.036,1.24,1.24,0,0,1-.863-.431l-.521-.665a1.222,1.222,0,0,1-.27-.934c.054-.557.072-1.132.18-1.689a8.62,8.62,0,0,0,.09-1.132c.054-1.186.108-2.354.162-3.54a1.755,1.755,0,0,1,.054-.27.323.323,0,0,1,.162-.216l.126-.072a5.531,5.531,0,0,0,2.857-2.21A9.721,9.721,0,0,0,20.772.5.467.467,0,0,1,21.15.359c.5.126,1.006.234,1.51.377a12.523,12.523,0,0,1,1.959.791,8.7,8.7,0,0,1,2.157,1.33,2.875,2.875,0,0,1,.665.719,18.562,18.562,0,0,1,1.725,3.558,10.292,10.292,0,0,1,.377,1.941,5.639,5.639,0,0,0,.108.845,3.161,3.161,0,0,1,0,.988,9.15,9.15,0,0,0-.108.988,7.566,7.566,0,0,1-.881,3.109,14.654,14.654,0,0,1-.791,1.348,4.546,4.546,0,0,1-1.258,1.33l-.7.485a6.883,6.883,0,0,1-1.258.629,23.655,23.655,0,0,1-2.857.791c-.18.036-.377.054-.557.108a5.732,5.732,0,0,1-1.546.216l-3.648.072m9.56-6.559A1.2,1.2,0,0,0,24.42,14.43a1.132,1.132,0,0,0,1.06,1.24,1.125,1.125,0,1,0,.126-2.246M24.133,6.038a1.1,1.1,0,0,0,1.9.773,1.294,1.294,0,0,0,.27-.485.952.952,0,0,0,.036-.413,1.132,1.132,0,0,0-.4-.719,1.011,1.011,0,0,0-1.492.072.988.988,0,0,0-.306.755m2.1,3.846a1.093,1.093,0,0,0,1.06,1.1,1.078,1.078,0,0,0,1.1-1.042,1.079,1.079,0,0,0-2.156-.054M2.55,7.548A1.06,1.06,0,0,0,1.472,8.59a1.069,1.069,0,0,0,2.139.036A1.1,1.1,0,0,0,2.532,7.548m1.186,4.888a1.045,1.045,0,0,0-.162,2.085,1.03,1.03,0,0,0,1.15-.97.933.933,0,0,0-.988-1.114M4.994,4.295l-.27.054a1.078,1.078,0,0,0-.7,1.348,1.065,1.065,0,0,0,1.456.647,1.078,1.078,0,0,0,.593-1.15L6.036,5.05a1.078,1.078,0,0,0-1.042-.773" transform="translate(54.633 36.57)" fill="#beb0a3"/>
      <path id="Path_552" data-name="Path 552" d="M16.064,19.947l-4.007-.09a12.259,12.259,0,0,1-1.545-.162c-.881-.144-1.779-.288-2.66-.377a5.894,5.894,0,0,1-1.24-.27c-.629-.2-1.258-.413-1.869-.647a6.954,6.954,0,0,1-2.48-1.833,4.78,4.78,0,0,1-.773-1.186c-.216-.467-.431-.934-.665-1.4a4.44,4.44,0,0,1-.288-.791,11.032,11.032,0,0,1-.485-2.5c0-.18,0-.377-.018-.557a10.622,10.622,0,0,1,.09-2.264,2.3,2.3,0,0,1,.09-.413A14.986,14.986,0,0,1,1.526,4.331,10.386,10.386,0,0,1,2.6,2.839l.2-.2A7.893,7.893,0,0,1,6,.881L8.606.252A11.844,11.844,0,0,1,10.709,0a.467.467,0,0,1,.431.306c.054.27.144.557.2.827a6.251,6.251,0,0,0,.377,1.06,4.2,4.2,0,0,0,.755,1.186,2.462,2.462,0,0,0,.665.521l.881.449a.557.557,0,0,1,.27.467A1.563,1.563,0,0,1,14.3,5.1c-.036,1.132-.072,2.264-.126,3.4,0,.18-.054.377-.072.557a10.63,10.63,0,0,0-.126,1.132,4.205,4.205,0,0,1-.467,1.761,2.067,2.067,0,0,1-.97.988,1.779,1.779,0,0,1-1.24.162,3.684,3.684,0,0,1-1.384-.683,1.078,1.078,0,0,1-.4-.575c-.054-.18-.072-.377-.144-.557a1.222,1.222,0,0,0-.521-.647,1.114,1.114,0,0,0-1.689.881,2.947,2.947,0,0,0,.288,1.51,3.234,3.234,0,0,0,.665.917,4.276,4.276,0,0,0,1.024.755,9.039,9.039,0,0,0,1.563.665,2.588,2.588,0,0,0,1.528.072,4.259,4.259,0,0,0,2.174-.952A1.132,1.132,0,0,1,14.9,14.2h.126a1.4,1.4,0,0,1,.431.359,3.72,3.72,0,0,0,.9.629,3.037,3.037,0,0,0,1.348.359h1.42a4.169,4.169,0,0,0,2.893-1.294,2.857,2.857,0,0,0,.665-1.078,8.37,8.37,0,0,0,.234-.809,1.276,1.276,0,0,0-.611-1.33,1.042,1.042,0,0,0-.952-.054,1.312,1.312,0,0,0-.737.809,2.519,2.519,0,0,0-.108.413,1.149,1.149,0,0,1-.827.881,2.84,2.84,0,0,1-.557.126,4.817,4.817,0,0,1-1.276.036,1.24,1.24,0,0,1-.863-.431l-.521-.665a1.222,1.222,0,0,1-.27-.934c.054-.557.072-1.132.18-1.689a8.62,8.62,0,0,0,.09-1.132c.054-1.186.108-2.354.162-3.54a1.755,1.755,0,0,1,.054-.27.323.323,0,0,1,.162-.216l.126-.072a5.531,5.531,0,0,0,2.857-2.21A9.721,9.721,0,0,0,20.772.5.467.467,0,0,1,21.15.359c.5.126,1.006.234,1.51.377a12.523,12.523,0,0,1,1.959.791,8.7,8.7,0,0,1,2.157,1.33,2.875,2.875,0,0,1,.665.719,18.562,18.562,0,0,1,1.725,3.558,10.292,10.292,0,0,1,.377,1.941,5.639,5.639,0,0,0,.108.845,3.161,3.161,0,0,1,0,.988,9.15,9.15,0,0,0-.108.988,7.566,7.566,0,0,1-.881,3.109,14.654,14.654,0,0,1-.791,1.348,4.546,4.546,0,0,1-1.258,1.33l-.7.485a6.883,6.883,0,0,1-1.258.629,23.655,23.655,0,0,1-2.857.791c-.18.036-.377.054-.557.108a5.732,5.732,0,0,1-1.546.216Zm9.56-6.559a1.2,1.2,0,0,0-1.186,1.006,1.132,1.132,0,0,0,1.06,1.24,1.134,1.134,0,0,0,.126-2.264ZM24.151,6a1.1,1.1,0,0,0,1.9.773,1.294,1.294,0,0,0,.27-.485.953.953,0,0,0,.036-.413,1.132,1.132,0,0,0-.4-.719,1.011,1.011,0,0,0-1.492.072.988.988,0,0,0-.324.755Zm2.1,3.846a1.093,1.093,0,0,0,1.06,1.1A1.078,1.078,0,0,0,28.41,9.9a1.079,1.079,0,0,0-2.156-.054Zm-23.7-2.3A1.06,1.06,0,0,0,1.472,8.59a1.069,1.069,0,0,0,2.139.036A1.1,1.1,0,0,0,2.55,7.548Zm1.186,4.888a1.045,1.045,0,1,0-.162,2.085,1.031,1.031,0,0,0,1.15-.97.921.921,0,0,0-.97-1.114ZM5.012,4.295l-.27.054a1.078,1.078,0,0,0-.7,1.348A1.065,1.065,0,0,0,5.5,6.344a1.078,1.078,0,0,0,.593-1.15L6.054,5.05A1.078,1.078,0,0,0,5.012,4.3Z" transform="translate(54.633 36.57)" fill="none" stroke="#b7a999" stroke-miterlimit="10" stroke-width="0.18"/>
      <path id="Path_553" data-name="Path 553" d="M5.158.036,9.111.09a7.152,7.152,0,0,1,.845.054A11.286,11.286,0,0,0,11.5.234a23.307,23.307,0,0,1,2.678.108c1.222,0,2.444.234,3.666.323a1.114,1.114,0,0,1,.539.162.216.216,0,0,1,.108.234.5.5,0,0,1-.036.144c-.575,1.132-1.078,2.3-1.671,3.432a10.978,10.978,0,0,0-.467,1.024c-.359.881-.737,1.743-1.024,2.624-.09.27-.2.539-.305.791-.359.881-.683,1.761-.988,2.642-.665,1.923-1.456,3.846-2.3,5.769-.593,1.33-1.24,2.642-1.8,4.007l-.054.126c-.665,1.15-1.078,2.408-1.635,3.594l-.629,1.42a.323.323,0,0,1-.2.18c-.126.036-.234-.036-.305-.216-.647-1.456-1.2-2.965-1.725-4.493-.144-.449-.323-.881-.485-1.33-.306-.9-.629-1.779-.917-2.678a6.577,6.577,0,0,1-.323-1.222c-.5-1.761-.863-3.576-1.276-5.355-.252-1.1-.467-2.21-.755-3.307S1.042,6.02.737,4.924c-.2-.737-.27-1.474-.449-2.21A22.086,22.086,0,0,0,0,.467.431.431,0,0,1,.216.126L.485.054,1.9,0H5.158" transform="translate(14.197 2.3)" fill="#7d726d"/>
      <path id="Path_554" data-name="Path 554" d="M5.158.036,9.111.09a7.152,7.152,0,0,1,.845.054A11.286,11.286,0,0,0,11.5.234a23.307,23.307,0,0,1,2.678.108c1.222,0,2.444.234,3.666.323a1.114,1.114,0,0,1,.539.162.216.216,0,0,1,.108.234.5.5,0,0,1-.036.144c-.575,1.132-1.078,2.3-1.671,3.432a10.978,10.978,0,0,0-.467,1.024c-.359.881-.737,1.743-1.024,2.624-.09.27-.2.539-.305.791-.359.881-.683,1.761-.988,2.642-.665,1.923-1.456,3.846-2.3,5.769-.593,1.33-1.24,2.642-1.8,4.007l-.054.126c-.665,1.15-1.078,2.408-1.635,3.594l-.629,1.42a.323.323,0,0,1-.2.18c-.126.036-.234-.036-.305-.216-.647-1.456-1.2-2.965-1.725-4.493-.144-.449-.323-.881-.485-1.33-.306-.9-.629-1.779-.917-2.678a6.577,6.577,0,0,1-.323-1.222c-.5-1.761-.863-3.576-1.276-5.355-.252-1.1-.467-2.21-.755-3.307S1.042,6.02.737,4.924c-.2-.737-.27-1.474-.449-2.21A22.086,22.086,0,0,0,0,.467.431.431,0,0,1,.216.126L.485.054,1.9,0H5.158Z" transform="translate(14.197 2.3)" fill="none" stroke="#8c8279" stroke-miterlimit="10" stroke-width="0.18"/>
      <path id="Path_555" data-name="Path 555" d="M15.039,5.822q.036,2.192.09,4.385a3.63,3.63,0,0,0,.036.557,11.254,11.254,0,0,1,.09,1.977v5.948a1.366,1.366,0,0,1-.072.557.449.449,0,0,1-.2.2.611.611,0,0,1-.27.072,29.106,29.106,0,0,1-3.54-.072,9.507,9.507,0,0,0-.988-.054l-3.54-.036a21.207,21.207,0,0,0-2.534.2,1.2,1.2,0,0,0-.521.216,6.451,6.451,0,0,0-1.168,1.024,1.635,1.635,0,0,1-.431.359l-.144.036L.321,20.972a.4.4,0,0,1-.288-.288A10.011,10.011,0,0,1,.105,18.42,12.782,12.782,0,0,0,.285,16.3c.018-1.366.09-2.732.234-4.1a6.662,6.662,0,0,0,.054-.845c.054-.9.09-1.779.216-2.678C.878,8.069.86,7.458.9,6.847s.054-.755.09-1.132a.485.485,0,0,1,.377-.359H4.328l.288-.036a1.4,1.4,0,0,0,1.078-.827,3.791,3.791,0,0,0,.288-.934,11.552,11.552,0,0,0,.18-2.121A4.6,4.6,0,0,1,6.2.449.5.5,0,0,1,6.647,0C7.833.018,9-.018,10.187.054L11.75.09A10.476,10.476,0,0,1,13.583.2a7.765,7.765,0,0,0,.988.054A.521.521,0,0,1,15,.737c0,.054.018.09.018.144.018.611.018,1.222.036,1.833V5.822h-.036" transform="translate(46.708 14.161)" fill="#fff"/>
      <path id="Path_556" data-name="Path 556" d="M2.523,10.7q.036,2.336.09,4.672a3.474,3.474,0,0,0,.018.431,31.2,31.2,0,0,1,.108,4.1,3.546,3.546,0,0,1-.018.431,36.379,36.379,0,0,0-.18,3.954c0,.054-.018.09-.018.144a.359.359,0,0,1-.359.359l-.988-.108H.331a.4.4,0,0,1-.288-.27,2.719,2.719,0,0,1-.036-.288c0-1.132,0-2.264.018-3.4s.036-1.8,0-2.7A14.7,14.7,0,0,1,.1,15.476c.036-.234.036-.467.054-.7.054-1.366.126-2.732.108-4.1C.259,9.69.277,8.7.277,7.7S.295,5.341.259,4.155.295,1.693.331.471A.521.521,0,0,1,.8.022,8.41,8.41,0,0,1,2.218.04,31.789,31.789,0,0,0,5.47.2c.988.018,1.977,0,2.965.036s1.8.018,2.7.018A14.287,14.287,0,0,1,13.4.363,5.356,5.356,0,0,0,14.24.4H15.8a28.592,28.592,0,0,1,3.828.144l.7.054a.467.467,0,0,1,.288.288,1.432,1.432,0,0,1,.054.27c0,.09.018.467.018.7a17.806,17.806,0,0,0,.144,2.552c.018.18.036.377.054.557.09,1.563.306,3.091.539,4.636.144,1.078.288,2.156.341,3.235a21.076,21.076,0,0,0,.216,2.39c.072.467.072.934.108,1.42s.036,1.042.108,1.545c.108.934.144,1.887.18,2.821a23.246,23.246,0,0,0,.2,2.821.974.974,0,0,1,.018.144c.018,1.563.288,3.109.359,4.654.036.575.162,1.114.2,1.689a1.293,1.293,0,0,1-.036.413.377.377,0,0,1-.18.2.664.664,0,0,1-.27.054l-1.707.054h-.288c-1.276-.072-2.552,0-3.828.036h-.288a.467.467,0,0,1-.359-.2c-.27-.431-.539-.9-.791-1.33a.27.27,0,0,1,.234-.4h1.977l.988-.054a1.276,1.276,0,0,0,.863-.449,1.858,1.858,0,0,0,.647-1.8,5.051,5.051,0,0,0-.09-.845c-.2-.881-.216-1.779-.377-2.66a6.6,6.6,0,0,1-.09-.845c-.036-.809-.216-1.6-.27-2.39a20.188,20.188,0,0,0-.234-2.246,2.244,2.244,0,0,1-.036-.288,29.074,29.074,0,0,0-.377-2.947c-.09-.647-.252-1.294-.341-1.959s-.27-1.671-.4-2.516a6.551,6.551,0,0,1-.054-.7c-.018-.467-.036-.952-.054-1.42a4.327,4.327,0,0,0-.054-.7c-.09-.647-.144-1.312-.27-1.959a2.049,2.049,0,0,0-.683-1.2,1.132,1.132,0,0,0-.629-.288l-.7-.036-.988-.108a10.226,10.226,0,0,0-1.42-.09c-.809,0-1.6,0-2.408-.072H9.8q-1.9.054-3.828-.018A10.746,10.746,0,0,0,4,3.634a1.456,1.456,0,0,0-1.24,1.024,3.38,3.38,0,0,0-.2.97c-.018.288-.036.557-.036.845-.018.809-.054,1.6-.054,2.408s.018,1.222.036,1.833H2.487" transform="translate(68.605 9.179)" fill="#beb0a3"/>
      <path id="Path_557" data-name="Path 557" d="M2.523,10.7q.036,2.336.09,4.672a3.474,3.474,0,0,0,.018.431,31.2,31.2,0,0,1,.108,4.1,3.546,3.546,0,0,1-.018.431,36.379,36.379,0,0,0-.18,3.954c0,.054-.018.09-.018.144a.359.359,0,0,1-.359.359l-.988-.108H.331a.4.4,0,0,1-.288-.27,2.719,2.719,0,0,1-.036-.288c0-1.132,0-2.264.018-3.4s.036-1.8,0-2.7A14.7,14.7,0,0,1,.1,15.476c.036-.234.036-.467.054-.7.054-1.366.126-2.732.108-4.1C.259,9.69.277,8.7.277,7.7S.295,5.341.259,4.155.295,1.693.331.471A.521.521,0,0,1,.8.022,8.41,8.41,0,0,1,2.218.04,31.789,31.789,0,0,0,5.47.2c.988.018,1.977,0,2.965.036s1.8.018,2.7.018A14.287,14.287,0,0,1,13.4.363,5.356,5.356,0,0,0,14.24.4H15.8a28.592,28.592,0,0,1,3.828.144l.7.054a.467.467,0,0,1,.288.288,1.432,1.432,0,0,1,.054.27c0,.09.018.467.018.7a17.806,17.806,0,0,0,.144,2.552c.018.18.036.377.054.557.09,1.563.306,3.091.539,4.636.144,1.078.288,2.156.341,3.235a21.076,21.076,0,0,0,.216,2.39c.072.467.072.934.108,1.42s.036,1.042.108,1.545c.108.934.144,1.887.18,2.821a23.246,23.246,0,0,0,.2,2.821.974.974,0,0,1,.018.144c.018,1.563.288,3.109.359,4.654.036.575.162,1.114.2,1.689a1.293,1.293,0,0,1-.036.413.377.377,0,0,1-.18.2.664.664,0,0,1-.27.054l-1.707.054h-.288c-1.276-.072-2.552,0-3.828.036h-.288a.467.467,0,0,1-.359-.2c-.27-.431-.539-.9-.791-1.33a.27.27,0,0,1,.234-.4h1.977l.988-.054a1.276,1.276,0,0,0,.863-.449,1.858,1.858,0,0,0,.647-1.8,5.051,5.051,0,0,0-.09-.845c-.2-.881-.216-1.779-.377-2.66a6.6,6.6,0,0,1-.09-.845c-.036-.809-.216-1.6-.27-2.39a20.188,20.188,0,0,0-.234-2.246,2.244,2.244,0,0,1-.036-.288,29.074,29.074,0,0,0-.377-2.947c-.09-.647-.252-1.294-.341-1.959s-.27-1.671-.4-2.516a6.551,6.551,0,0,1-.054-.7c-.018-.467-.036-.952-.054-1.42a4.327,4.327,0,0,0-.054-.7c-.09-.647-.144-1.312-.27-1.959a2.049,2.049,0,0,0-.683-1.2,1.132,1.132,0,0,0-.629-.288l-.7-.036-.988-.108a10.226,10.226,0,0,0-1.42-.09c-.809,0-1.6,0-2.408-.072H9.8q-1.9.054-3.828-.018A10.746,10.746,0,0,0,4,3.634a1.456,1.456,0,0,0-1.24,1.024,3.38,3.38,0,0,0-.2.97c-.018.288-.036.557-.036.845-.018.809-.054,1.6-.054,2.408s.018,1.222.036,1.833Z" transform="translate(68.605 9.179)" fill="none" stroke="#b7a999" stroke-miterlimit="10" stroke-width="0.18"/>
      <path id="Path_558" data-name="Path 558" d="M9.8,21.043,7.536,21.1a1.941,1.941,0,0,1-.952-.216l-.647-.288a11.3,11.3,0,0,0-2.282-.737c-.521-.216-1.114-.2-1.653-.377a9.763,9.763,0,0,0-1.527-.27A.988.988,0,0,1,.222,19.1a.341.341,0,0,1-.162-.216,2.57,2.57,0,0,1-.036-.7A17.706,17.706,0,0,1,.1,16.065,32.258,32.258,0,0,0,.2,12.525Q.168,10.908.114,9.272C.1,8.841.078,8.428.042,8A17.329,17.329,0,0,1,.024,5.876.4.4,0,0,1,.4,5.535h.7l1.833-.09a1.114,1.114,0,0,0,.737-.377.9.9,0,0,0,.252-.5,4.806,4.806,0,0,0,.054-.7c0-.809-.018-1.6-.018-2.408A5.823,5.823,0,0,1,4,.323.377.377,0,0,1,4.157.107a.647.647,0,0,1,.27-.072A7.907,7.907,0,0,1,5.7.018C6.26.054,6.835.089,7.392.071a18.328,18.328,0,0,1,2.534.2.5.5,0,0,1,.485.413,12.636,12.636,0,0,1,.27,2.66,7.227,7.227,0,0,0,.18,1.833c.144.647.108,1.312.306,1.959.126,1.078.377,2.139.521,3.2.018.18.072.377.072.557a26.318,26.318,0,0,0,.306,2.66,20.57,20.57,0,0,0,.288,2.8c.072,1.42.323,2.8.485,4.205a.216.216,0,0,1-.018.144c-.054.072-.108.162-.18.18a1.384,1.384,0,0,1-.413.054H9.8" transform="translate(73.476 14.97)" fill="#fff"/>
      <path id="Path_559" data-name="Path 559" d="M26.435,8.716l-2.1-.036c-.575,0-1.132-.036-1.689-.09s-1.42-.09-2.121-.108a28.53,28.53,0,0,1-3.109-.216,11.159,11.159,0,0,0-1.132-.072L14.3,8.141a17.628,17.628,0,0,1-2.678-.2c-.377-.054-.755-.072-1.132-.09a19.465,19.465,0,0,1-2.246-.216l-.557-.054L4.565,7.368c-.9-.072-1.779-.144-2.678-.27C1.366,7.027.863,6.991.341,6.955A.467.467,0,0,1,0,6.559a9.23,9.23,0,0,1,.108-.988,12.994,12.994,0,0,0,.2-1.545,2.48,2.48,0,0,1,.018-.288C.5,2.714.539,1.671.629.647A2.3,2.3,0,0,1,.737.234.467.467,0,0,1,1.078,0a2.229,2.229,0,0,1,.413.036,7.814,7.814,0,0,0,1.258.2L3.864.377A17.406,17.406,0,0,0,6.128.611h.431c.988.144,1.977.126,2.965.18.665.036,1.312.054,1.977.054,1.132.018,2.264.036,3.4.144.413.036.845.054,1.276.054h2.552c.988,0,1.977.054,2.965.144.7.054,1.4.126,2.121.126a5.593,5.593,0,0,1,.845.054,18.133,18.133,0,0,0,1.833.126l3.4.126a.431.431,0,0,1,.431.467v.144a1.116,1.116,0,0,1-.018.144c-.234,1.168-.252,2.336-.413,3.5-.09.647-.072,1.312-.126,1.977a4.169,4.169,0,0,1-.054.557.453.453,0,0,1-.4.341H28.178L26.453,8.68" transform="translate(5.373 79.43)" fill="#beb0a3"/>
      <path id="Path_560" data-name="Path 560" d="M26.435,8.716l-2.1-.036c-.575,0-1.132-.036-1.689-.09s-1.42-.09-2.121-.108a28.53,28.53,0,0,1-3.109-.216,11.159,11.159,0,0,0-1.132-.072L14.3,8.141a17.628,17.628,0,0,1-2.678-.2c-.377-.054-.755-.072-1.132-.09a19.465,19.465,0,0,1-2.246-.216l-.557-.054L4.565,7.368c-.9-.072-1.779-.144-2.678-.27C1.366,7.027.863,6.991.341,6.955A.467.467,0,0,1,0,6.559a9.23,9.23,0,0,1,.108-.988,12.994,12.994,0,0,0,.2-1.545,2.48,2.48,0,0,1,.018-.288C.5,2.714.539,1.671.629.647A2.3,2.3,0,0,1,.737.234.467.467,0,0,1,1.078,0a2.229,2.229,0,0,1,.413.036,7.814,7.814,0,0,0,1.258.2L3.864.377A17.406,17.406,0,0,0,6.128.611h.431c.988.144,1.977.126,2.965.18.665.036,1.312.054,1.977.054,1.132.018,2.264.036,3.4.144.413.036.845.054,1.276.054h2.552c.988,0,1.977.054,2.965.144.7.054,1.4.126,2.121.126a5.593,5.593,0,0,1,.845.054,18.133,18.133,0,0,0,1.833.126l3.4.126a.431.431,0,0,1,.431.467v.144a1.116,1.116,0,0,1-.018.144c-.234,1.168-.252,2.336-.413,3.5-.09.647-.072,1.312-.126,1.977a4.169,4.169,0,0,1-.054.557.453.453,0,0,1-.4.341H28.178Z" transform="translate(5.373 79.43)" fill="none" stroke="#b7a999" stroke-miterlimit="10" stroke-width="0.18"/>
      <path id="Path_561" data-name="Path 561" d="M.809,0h.7L3.631.09C4.3.108,4.942.144,5.607.18S7.4.234,8.3.27H8.86C10.028.413,11.214.4,12.382.5c.845.072,1.689.072,2.552.144h.431c1.977.036,3.972.09,5.948.09A11.071,11.071,0,0,1,23,.809a8.534,8.534,0,0,0,1.42.036c1.653-.018,3.307.018,4.96.09h.144a.413.413,0,0,1,.323.449c-.018,1.222-.036,2.462-.162,3.684-.054.467-.072.935-.09,1.42a4.025,4.025,0,0,1-.108.988.467.467,0,0,1-.306.252l-.413.036A17.973,17.973,0,0,1,25.95,7.6l-.431-.036c-1.1.036-2.174-.126-3.253-.126h-.288a30.225,30.225,0,0,0-3.954-.216L14.916,7.17h-.431a33.343,33.343,0,0,0-4.241-.2c-1.42-.018-2.552-.072-3.81-.2A12.524,12.524,0,0,0,5.158,6.7a10.733,10.733,0,0,1-1.689-.144,9.836,9.836,0,0,0-.988-.144A18.566,18.566,0,0,1,.252,6.056.449.449,0,0,1,0,5.751a11.159,11.159,0,0,1,.18-2.1C.252,3.235.306,2.8.342,2.39c.09-.7.2-1.4.306-2.1A.634.634,0,0,1,.791.054" transform="translate(6.451 71.038)" fill="#beb0a3"/>
      <path id="Path_562" data-name="Path 562" d="M.809,0h.7L3.631.09C4.3.108,4.942.144,5.607.18S7.4.234,8.3.27H8.86C10.028.413,11.214.4,12.382.5c.845.072,1.689.072,2.552.144h.431c1.977.036,3.972.09,5.948.09A11.071,11.071,0,0,1,23,.809a8.534,8.534,0,0,0,1.42.036c1.653-.018,3.307.018,4.96.09h.144a.413.413,0,0,1,.323.449c-.018,1.222-.036,2.462-.162,3.684-.054.467-.072.935-.09,1.42a4.025,4.025,0,0,1-.108.988.467.467,0,0,1-.306.252l-.413.036A17.973,17.973,0,0,1,25.95,7.6l-.431-.036c-1.1.036-2.174-.126-3.253-.126h-.288a30.225,30.225,0,0,0-3.954-.216L14.916,7.17h-.431a33.343,33.343,0,0,0-4.241-.2c-1.42-.018-2.552-.072-3.81-.2A12.524,12.524,0,0,0,5.158,6.7a10.733,10.733,0,0,1-1.689-.144,9.836,9.836,0,0,0-.988-.144A18.566,18.566,0,0,1,.252,6.056.449.449,0,0,1,0,5.751a11.159,11.159,0,0,1,.18-2.1C.252,3.235.306,2.8.342,2.39c.09-.7.2-1.4.306-2.1A1.1,1.1,0,0,1,.809,0Z" transform="translate(6.451 71.038)" fill="none" stroke="#b7a999" stroke-miterlimit="10" stroke-width="0.18"/>
      <path id="Path_563" data-name="Path 563" d="M22.663,14.88c.018-1.042-.054-2.085-.018-3.127.036-1.312,0-2.642.018-3.972.018-.9-.108-1.8-.108-2.678a.953.953,0,0,0-.108-.413A1.923,1.923,0,0,0,20.9,3.612c-1.186.036-2.354-.036-3.54-.054L15.241,3.5,13.39,3.486c-.755,0-1.51-.036-2.264-.09a41.709,41.709,0,0,0-4.816-.18,1.276,1.276,0,0,0-1.222.791,3.63,3.63,0,0,0-.4,1.2c-.036.323-.108.647-.144.988a13.923,13.923,0,0,1-.288,2.1c-.126,1.168-.305,2.336-.341,3.522A23.149,23.149,0,0,1,3.7,14.646c-.018.18-.036.377-.054.557-.072,1.078-.09,2.174-.252,3.253a30.125,30.125,0,0,0-.144,3.4A13.226,13.226,0,0,1,3.147,23.4c-.072.467-.09.934-.144,1.4s-.072.934-.126,1.4a7.96,7.96,0,0,0-.018,1.545A1.294,1.294,0,0,0,3.6,28.861a1.33,1.33,0,0,0,.4.126l.988.09a.239.239,0,0,1,.2.305l-.665,1.24a.629.629,0,0,1-.593.323,2.228,2.228,0,0,1-.431-.018,16.677,16.677,0,0,0-1.833-.2A7.223,7.223,0,0,1,.272,30.5.413.413,0,0,1,0,30.065a25,25,0,0,0,.252-2.678,5.783,5.783,0,0,1,.072-.7,15.818,15.818,0,0,0,.18-1.833,7.6,7.6,0,0,1,.072-.845,19.068,19.068,0,0,0,.18-2.121c.036-.557.09-1.132.144-1.689.018-.234.054-.467.072-.7.054-.845.126-1.689.252-2.534.072-.467.09-.934.144-1.4.018-.18.018-.377.054-.557a26.757,26.757,0,0,0,.252-2.678c.072-1.042.18-2.067.27-3.109a4.728,4.728,0,0,1,.072-.557,11.7,11.7,0,0,0,.2-1.833c.054-1.042.216-2.067.359-3.091.09-.611.18-1.2.234-1.815A9.293,9.293,0,0,1,3.057.252.377.377,0,0,1,3.363,0H3.65A10.8,10.8,0,0,0,5.9.162H7.029c1.6-.018,3.2.054,4.8.18.845.072,1.689.09,2.552.108L19.195.5l.845.036a11.159,11.159,0,0,0,1.42.036,6.523,6.523,0,0,1,1.42.072c.647.108,1.312.036,1.977.162a.449.449,0,0,1,.288.288,1.907,1.907,0,0,1,.054.27c0,.467.018.952-.018,1.42q-.054,1.276-.018,2.552c.054,1.366.018,2.732.018,4.1,0,.988-.036,1.977-.036,2.965a16.783,16.783,0,0,1-.09,1.833c-.036.288-.036.557-.054.845-.036.845-.108,1.689-.108,2.552s.036,1.707.036,2.552c-.018,1.6-.036,3.217-.054,4.816,0,.054-.018.09-.018.144a.467.467,0,0,1-.27.305,3.217,3.217,0,0,1-1.4-.018.449.449,0,0,1-.288-.377c-.018-.234-.036-.467-.036-.7-.018-1.977-.018-3.972-.018-5.948a26.457,26.457,0,0,0-.126-2.678c-.036-.288-.036-.557-.072-.845" transform="translate(41.438 8.374)" fill="#beb0a3"/>
      <path id="Path_564" data-name="Path 564" d="M22.663,14.88c.018-1.042-.054-2.085-.018-3.127.036-1.312,0-2.642.018-3.972.018-.9-.108-1.8-.108-2.678a.953.953,0,0,0-.108-.413A1.923,1.923,0,0,0,20.9,3.612c-1.186.036-2.354-.036-3.54-.054L15.241,3.5,13.39,3.486c-.755,0-1.51-.036-2.264-.09a41.709,41.709,0,0,0-4.816-.18,1.276,1.276,0,0,0-1.222.791,3.63,3.63,0,0,0-.4,1.2c-.036.323-.108.647-.144.988a13.923,13.923,0,0,1-.288,2.1c-.126,1.168-.305,2.336-.341,3.522A23.149,23.149,0,0,1,3.7,14.646c-.018.18-.036.377-.054.557-.072,1.078-.09,2.174-.252,3.253a30.125,30.125,0,0,0-.144,3.4A13.226,13.226,0,0,1,3.147,23.4c-.072.467-.09.934-.144,1.4s-.072.934-.126,1.4a7.96,7.96,0,0,0-.018,1.545A1.294,1.294,0,0,0,3.6,28.861a1.33,1.33,0,0,0,.4.126l.988.09a.239.239,0,0,1,.2.305l-.665,1.24a.629.629,0,0,1-.593.323,2.228,2.228,0,0,1-.431-.018,16.677,16.677,0,0,0-1.833-.2A7.223,7.223,0,0,1,.272,30.5.413.413,0,0,1,0,30.065a25,25,0,0,0,.252-2.678,5.783,5.783,0,0,1,.072-.7,15.818,15.818,0,0,0,.18-1.833,7.6,7.6,0,0,1,.072-.845,19.068,19.068,0,0,0,.18-2.121c.036-.557.09-1.132.144-1.689.018-.234.054-.467.072-.7.054-.845.126-1.689.252-2.534.072-.467.09-.934.144-1.4.018-.18.018-.377.054-.557a26.757,26.757,0,0,0,.252-2.678c.072-1.042.18-2.067.27-3.109a4.728,4.728,0,0,1,.072-.557,11.7,11.7,0,0,0,.2-1.833c.054-1.042.216-2.067.359-3.091.09-.611.18-1.2.234-1.815A9.293,9.293,0,0,1,3.057.252.377.377,0,0,1,3.363,0H3.65A10.8,10.8,0,0,0,5.9.162H7.029c1.6-.018,3.2.054,4.8.18.845.072,1.689.09,2.552.108L19.195.5l.845.036a11.159,11.159,0,0,0,1.42.036,6.523,6.523,0,0,1,1.42.072c.647.108,1.312.036,1.977.162a.449.449,0,0,1,.288.288,1.907,1.907,0,0,1,.054.27c0,.467.018.952-.018,1.42q-.054,1.276-.018,2.552c.054,1.366.018,2.732.018,4.1,0,.988-.036,1.977-.036,2.965a16.783,16.783,0,0,1-.09,1.833c-.036.288-.036.557-.054.845-.036.845-.108,1.689-.108,2.552s.036,1.707.036,2.552c-.018,1.6-.036,3.217-.054,4.816,0,.054-.018.09-.018.144a.467.467,0,0,1-.27.305,3.217,3.217,0,0,1-1.4-.018.449.449,0,0,1-.288-.377c-.018-.234-.036-.467-.036-.7-.018-1.977-.018-3.972-.018-5.948a26.457,26.457,0,0,0-.126-2.678C22.7,15.437,22.681,15.149,22.663,14.88Z" transform="translate(41.438 8.374)" fill="none" stroke="#b7a999" stroke-miterlimit="10" stroke-width="0.18"/>
      <path id="Path_565" data-name="Path 565" d="M22.661,7.325l-4.547-.072h-.557C16.012,7.074,14.448,7.092,12.9,7a4.943,4.943,0,0,1-.845-.072,6.9,6.9,0,0,0-1.545-.144c-1.078,0-2.174.018-3.253-.09a9.077,9.077,0,0,0-.988-.018,4.458,4.458,0,0,1-.7-.036,21.278,21.278,0,0,0-2.821-.2A12.362,12.362,0,0,1,.234,6.139.323.323,0,0,1,0,5.834c.054-.521.108-1.024.162-1.545.018-.18.054-.377.09-.557C.413,2.8.611,1.88.755.946A2.821,2.821,0,0,1,.917.406.539.539,0,0,1,1.33.065a4.439,4.439,0,0,1,1.4-.018,19.513,19.513,0,0,0,2.66.144A8.338,8.338,0,0,1,6.793.3a4.589,4.589,0,0,0,.7.072L12.31.442,14.43.5C15.652.55,16.874.6,18.114.622s2.642.09,3.954.144l.7.036c.952,0,1.887.036,2.821.09l3.54.162a.863.863,0,0,1,.413.09.234.234,0,0,1,.144.216,14.2,14.2,0,0,1-.216,1.528c-.18.827-.234,1.689-.413,2.516-.054.27-.054.557-.09.845s-.054.377-.072.557a.593.593,0,0,1-.467.467h-.4c-1.078-.018-2.174.036-3.253-.036-.611-.036-1.222,0-2.1,0m1.15-3.181a1.15,1.15,0,0,0-.413-.863,1.024,1.024,0,0,0-.647-.252,1.078,1.078,0,0,0-1.06.773A1.024,1.024,0,0,0,22.3,4.989l.27.09a.773.773,0,0,0,.27.018,1.186,1.186,0,0,0,.629-.305,1.168,1.168,0,0,0,.341-.737M11.07,3.1a1.348,1.348,0,0,0-.359-.737,1.042,1.042,0,0,0-1.168-.18,1.05,1.05,0,0,0,.09,1.959l.126.036a.827.827,0,0,0,.539-.018,1.132,1.132,0,0,0,.755-.917A1.1,1.1,0,0,0,11.07,3.1m4.978-.431a1.078,1.078,0,1,0,1.078,1.06,1.1,1.1,0,0,0-1.078-1.06" transform="translate(4.133 62.167)" fill="#00643c"/>
      <path id="Path_566" data-name="Path 566" d="M22.661,7.325l-4.547-.072h-.557C16.012,7.074,14.448,7.092,12.9,7a4.943,4.943,0,0,1-.845-.072,6.9,6.9,0,0,0-1.545-.144c-1.078,0-2.174.018-3.253-.09a9.077,9.077,0,0,0-.988-.018,4.458,4.458,0,0,1-.7-.036,21.278,21.278,0,0,0-2.821-.2A12.362,12.362,0,0,1,.234,6.139.323.323,0,0,1,0,5.834c.054-.521.108-1.024.162-1.545.018-.18.054-.377.09-.557C.413,2.8.611,1.88.755.946A2.821,2.821,0,0,1,.917.406.539.539,0,0,1,1.33.065a4.439,4.439,0,0,1,1.4-.018,19.513,19.513,0,0,0,2.66.144A8.338,8.338,0,0,1,6.793.3a4.589,4.589,0,0,0,.7.072L12.31.442,14.43.5C15.652.55,16.874.6,18.114.622s2.642.09,3.954.144l.7.036c.952,0,1.887.036,2.821.09l3.54.162a.863.863,0,0,1,.413.09.234.234,0,0,1,.144.216,14.2,14.2,0,0,1-.216,1.528c-.18.827-.234,1.689-.413,2.516-.054.27-.054.557-.09.845s-.054.377-.072.557a.593.593,0,0,1-.467.467h-.4c-1.078-.018-2.174.036-3.253-.036A18.087,18.087,0,0,1,22.661,7.325Zm1.15-3.181a1.15,1.15,0,0,0-.413-.863,1.024,1.024,0,0,0-.647-.252,1.078,1.078,0,0,0-1.06.773,1.024,1.024,0,0,0,.593,1.276l.27.09a.772.772,0,0,0,.27.018,1.186,1.186,0,0,0,.629-.306,1.168,1.168,0,0,0,.359-.737ZM11.07,3.192a1.348,1.348,0,0,0-.359-.737,1.042,1.042,0,0,0-1.168-.18,1.05,1.05,0,0,0,.09,1.959l.126.036a.827.827,0,0,0,.539-.018,1.132,1.132,0,0,0,.755-.917A1.1,1.1,0,0,0,11.07,3.192Zm4.978-.431a1.078,1.078,0,1,0,1.078,1.06,1.1,1.1,0,0,0-1.06-1.06Z" transform="translate(4.133 62.167)" fill="none" stroke="#006341" stroke-miterlimit="10" stroke-width="0.18"/>
      <path id="Path_567" data-name="Path 567" d="M12.419,6.182H10.155c-.9,0-1.8.018-2.7-.036H6.615L.666,6.11a1.15,1.15,0,0,1-.557-.09A.252.252,0,0,1,0,5.787a.233.233,0,0,1,.054-.126,4.933,4.933,0,0,1,.377-.431c.611-.593,1.132-1.276,1.707-1.887a1.4,1.4,0,0,0,.216-.359,1.024,1.024,0,0,0,.036-.827,1.779,1.779,0,0,0-.359-.611L1.151.629A1.475,1.475,0,0,1,.9.288.162.162,0,0,1,.972.054.737.737,0,0,1,1.241,0L5.195.09A44.95,44.95,0,0,0,9.867.2l6.649.054h2.965L24.3.306l.288.036a.593.593,0,0,1,.359.4,32.814,32.814,0,0,1,.2,5.229c0,.072-.09.162-.162.216s-.09.018-.126.036h-.144c-1.42-.072-2.821-.036-4.241-.018H15.959c-1.186-.072-2.354-.054-3.54-.072" transform="translate(71.738 64.371)" fill="#00643c"/>
      <path id="Path_568" data-name="Path 568" d="M12.419,6.182H10.155c-.9,0-1.8.018-2.7-.036H6.615L.666,6.11a1.15,1.15,0,0,1-.557-.09A.252.252,0,0,1,0,5.787a.233.233,0,0,1,.054-.126,4.933,4.933,0,0,1,.377-.431c.611-.593,1.132-1.276,1.707-1.887a1.4,1.4,0,0,0,.216-.359,1.024,1.024,0,0,0,.036-.827,1.779,1.779,0,0,0-.359-.611L1.151.629A1.475,1.475,0,0,1,.9.288.162.162,0,0,1,.972.054.737.737,0,0,1,1.241,0L5.195.09A44.95,44.95,0,0,0,9.867.2l6.649.054h2.965L24.3.306l.288.036a.593.593,0,0,1,.359.4,32.814,32.814,0,0,1,.2,5.229c0,.072-.09.162-.162.216s-.09.018-.126.036h-.144c-1.42-.072-2.821-.036-4.241-.018H15.959C14.791,6.2,13.605,6.2,12.419,6.182Z" transform="translate(71.738 64.371)" fill="none" stroke="#006341" stroke-miterlimit="10" stroke-width="0.18"/>
      <path id="Path_569" data-name="Path 569" d="M1.788,27.144a7.188,7.188,0,0,1-1.33-.09l-.27-.09a.288.288,0,0,1-.18-.341L1,24.287l.341-.773a12.473,12.473,0,0,1,.719-1.545,5.972,5.972,0,0,0,.306-.629c.521-1.222,1.078-2.408,1.617-3.612q.485-1.1.952-2.21c.647-1.563,1.276-3.145,1.779-4.762l.054-.126C7.4,9.012,8.024,7.377,8.653,5.759a8.677,8.677,0,0,1,.485-1.024c.288-.539.557-1.1.809-1.653s.413-.845.629-1.276A10.08,10.08,0,0,0,11.259.26a.341.341,0,0,1,.323-.234,3.72,3.72,0,0,1,.7-.018L14.817.3c.144.018.27.09.413.108s.27.306.216.467-.072.27-.126.4c-.2.485-.413.952-.611,1.438a5.159,5.159,0,0,0-.413,1.2,3.954,3.954,0,0,1-.27.809c-.162.449-.359.881-.5,1.312-.449,1.294-.97,2.552-1.528,3.81-.4.9-.755,1.833-1.114,2.75-.216.521-.431,1.042-.683,1.545s-.485,1.024-.719,1.545-.557,1.2-.881,1.761a4.155,4.155,0,0,0-.323.629,19.392,19.392,0,0,1-.952,1.743,26.433,26.433,0,0,0-1.581,3,6.04,6.04,0,0,1-.521,1.006A17.826,17.826,0,0,0,4,26.048l-.323.629a.773.773,0,0,1-.773.5H1.824" transform="translate(23.946 3.208)" fill="#7d726d"/>
      <path id="Path_570" data-name="Path 570" d="M1.788,27.144a7.188,7.188,0,0,1-1.33-.09l-.27-.09a.288.288,0,0,1-.18-.341L1,24.287l.341-.773a12.473,12.473,0,0,1,.719-1.545,5.972,5.972,0,0,0,.306-.629c.521-1.222,1.078-2.408,1.617-3.612q.485-1.1.952-2.21c.647-1.563,1.276-3.145,1.779-4.762l.054-.126C7.4,9.012,8.024,7.377,8.653,5.759a8.677,8.677,0,0,1,.485-1.024c.288-.539.557-1.1.809-1.653s.413-.845.629-1.276A10.08,10.08,0,0,0,11.259.26a.341.341,0,0,1,.323-.234,3.72,3.72,0,0,1,.7-.018L14.817.3c.144.018.27.09.413.108s.27.306.216.467-.072.27-.126.4c-.2.485-.413.952-.611,1.438a5.159,5.159,0,0,0-.413,1.2,3.954,3.954,0,0,1-.27.809c-.162.449-.359.881-.5,1.312-.449,1.294-.97,2.552-1.528,3.81-.4.9-.755,1.833-1.114,2.75-.216.521-.431,1.042-.683,1.545s-.485,1.024-.719,1.545-.557,1.2-.881,1.761a4.155,4.155,0,0,0-.323.629,19.392,19.392,0,0,1-.952,1.743,26.433,26.433,0,0,0-1.581,3,6.04,6.04,0,0,1-.521,1.006A17.826,17.826,0,0,0,4,26.048l-.323.629a.773.773,0,0,1-.773.5Z" transform="translate(23.946 3.208)" fill="none" stroke="#8c8279" stroke-miterlimit="10" stroke-width="0.18"/>
      <path id="Path_571" data-name="Path 571" d="M19.322,3.527c-.018.755-.018,1.51-.036,2.264a1.168,1.168,0,0,1-.09.413.413.413,0,0,1-.216.18.7.7,0,0,1-.27.054H15.333a11.792,11.792,0,0,1-1.42-.072l-.7-.054L8.828,6.24H2.035A15.166,15.166,0,0,1,.345,6.133.467.467,0,0,1,0,5.737,5.05,5.05,0,0,1,.112,4.479a6.6,6.6,0,0,0,.18-1.114,4.939,4.939,0,0,1,.108-.7A7.423,7.423,0,0,0,.579,1.55,4.026,4.026,0,0,1,.938.184.323.323,0,0,1,1.172.041,3.416,3.416,0,0,1,1.873,0C2.807.076,3.76.058,4.694.166S6.2.256,6.959.292L9.367.346H9.8c1.312.18,2.642.108,3.954.162l4.942.108a1.579,1.579,0,0,1,.413.072.287.287,0,0,1,.18.2,1.006,1.006,0,0,1,.054.27V3.563h-.018M5.305,2a2.211,2.211,0,0,0-.341.108,1.15,1.15,0,0,0-.611.9.4.4,0,0,0,0,.144A1.15,1.15,0,0,0,5.377,4.156h.144a1.258,1.258,0,0,0,.629-.288,1.006,1.006,0,0,0,.341-1.006,1.114,1.114,0,0,0-1.186-.845m7.709,2.264a1.06,1.06,0,0,0,1.186-.97,1.024,1.024,0,0,0-.934-1.168A1.055,1.055,0,0,0,12.08,3.2a1.024,1.024,0,0,0,.952,1.024" transform="translate(35.398 63.54)" fill="#00643c"/>
      <path id="Path_572" data-name="Path 572" d="M19.322,3.527c-.018.755-.018,1.51-.036,2.264a1.168,1.168,0,0,1-.09.413.413.413,0,0,1-.216.18.7.7,0,0,1-.27.054H15.333a11.792,11.792,0,0,1-1.42-.072l-.7-.054L8.828,6.24H2.035A15.166,15.166,0,0,1,.345,6.133.467.467,0,0,1,0,5.737,5.05,5.05,0,0,1,.112,4.479a6.6,6.6,0,0,0,.18-1.114,4.939,4.939,0,0,1,.108-.7A7.423,7.423,0,0,0,.579,1.55,4.026,4.026,0,0,1,.938.184.323.323,0,0,1,1.172.041,3.416,3.416,0,0,1,1.873,0C2.807.076,3.76.058,4.694.166S6.2.256,6.959.292L9.367.346H9.8c1.312.18,2.642.108,3.954.162l4.942.108a1.579,1.579,0,0,1,.413.072.287.287,0,0,1,.18.2,1.006,1.006,0,0,1,.054.27V3.563ZM5.305,1.963a2.211,2.211,0,0,0-.341.108,1.15,1.15,0,0,0-.611.9.4.4,0,0,0,0,.144A1.15,1.15,0,0,0,5.377,4.12h.144a1.258,1.258,0,0,0,.629-.288,1.006,1.006,0,0,0,.341-1.006A1.114,1.114,0,0,0,5.305,1.963Zm7.709,2.264A1.06,1.06,0,0,0,14.2,3.311a1.024,1.024,0,0,0-.934-1.168A1.055,1.055,0,0,0,12.08,3.2,1.024,1.024,0,0,0,13.015,4.228Z" transform="translate(35.398 63.54)" fill="none" stroke="#006341" stroke-miterlimit="10" stroke-width="0.18"/>
      <path id="Path_573" data-name="Path 573" d="M8.183.095H9.926l.557.054c.108.018.162.09.144.18a.288.288,0,0,1-.036.126,4.851,4.851,0,0,1-.791.593A7.691,7.691,0,0,0,8.183,2.628,13.5,13.5,0,0,0,6.278,6.1l-.216.7a6.6,6.6,0,0,0-.431,1.923,6.885,6.885,0,0,1-.09.7A5.462,5.462,0,0,0,5.5,10.7c.036.431.072.845.108,1.276a13.855,13.855,0,0,0,.611,2.893,4.437,4.437,0,0,0,.2.521l.9,1.923a7.566,7.566,0,0,0,1.294,1.851.342.342,0,0,1,.108.234c0,.108-.054.2-.162.2a17.109,17.109,0,0,1-2.1-.27L5.613,19.2a7.585,7.585,0,0,1-1.492-.431.755.755,0,0,1-.234-.144,11.466,11.466,0,0,1-2.642-3.468A9.9,9.9,0,0,1,.437,13.2a2.751,2.751,0,0,1-.108-.413C.258,12.117.114,11.47.042,10.823A9.919,9.919,0,0,1,.114,8.415c.036-.234.108-.467.126-.7A9.7,9.7,0,0,1,.815,5.378,13.551,13.551,0,0,1,2.4,2.233a4.546,4.546,0,0,1,.755-.845L4.013.652A2.282,2.282,0,0,1,5.433.077,14.427,14.427,0,0,1,8.219.059" transform="translate(46.772 35.793)" fill="#beb0a3"/>
      <path id="Path_574" data-name="Path 574" d="M8.183.075H9.926l.557.054c.108.018.162.09.144.18a.288.288,0,0,1-.036.126,4.852,4.852,0,0,1-.791.593A7.691,7.691,0,0,0,8.183,2.609a13.5,13.5,0,0,0-1.9,3.468l-.216.7A6.6,6.6,0,0,0,5.631,8.7a6.887,6.887,0,0,1-.09.7A5.462,5.462,0,0,0,5.5,10.678c.036.431.072.845.108,1.276a13.855,13.855,0,0,0,.611,2.893,4.436,4.436,0,0,0,.2.521l.9,1.923a7.565,7.565,0,0,0,1.294,1.851.342.342,0,0,1,.108.234c0,.108-.054.2-.162.2a17.112,17.112,0,0,1-2.1-.27l-.845-.126a7.583,7.583,0,0,1-1.492-.431.755.755,0,0,1-.234-.144,11.466,11.466,0,0,1-2.642-3.468,9.9,9.9,0,0,1-.809-1.959,2.752,2.752,0,0,1-.108-.413C.258,12.1.114,11.45.042,10.8A9.919,9.919,0,0,1,.114,8.4c.036-.234.108-.467.126-.7A9.7,9.7,0,0,1,.815,5.358,13.55,13.55,0,0,1,2.4,2.213a4.546,4.546,0,0,1,.755-.845L4.013.632A2.282,2.282,0,0,1,5.433.057a14.43,14.43,0,0,1,2.75.018Z" transform="translate(46.772 35.813)" fill="none" stroke="#b7a999" stroke-miterlimit="10" stroke-width="0.18"/>
      <path id="Path_575" data-name="Path 575" d="M4.442,0,7.6.054h.288A.791.791,0,0,1,8.4.27a5.32,5.32,0,0,1,.5.5,18.863,18.863,0,0,0,1.438,1.546.4.4,0,0,1,0,.521l-.18.216L8.826,4.529a6.039,6.039,0,0,1-1.06.934,4.4,4.4,0,0,0-.431.359.845.845,0,0,1-.521.216H6.382L.722,5.894a1.33,1.33,0,0,1-.413-.072.576.576,0,0,1-.2-.18.27.27,0,0,1-.054-.126A3.416,3.416,0,0,1,.039,4.385a.4.4,0,0,1,.413-.305l.988.09a2.48,2.48,0,0,0,.7-.072,1.168,1.168,0,0,0,.845-.683.934.934,0,0,0,0-.827,1.276,1.276,0,0,0-1.1-.773L.758,1.761a1.33,1.33,0,0,1-.413-.09.359.359,0,0,1-.2-.2A2.3,2.3,0,0,1,.111.359a.5.5,0,0,1,.4-.341h3.9" transform="translate(60.9 64.299)" fill="#00643c"/>
      <path id="Path_576" data-name="Path 576" d="M4.442,0,7.6.054h.288A.791.791,0,0,1,8.4.27a5.32,5.32,0,0,1,.5.5,18.863,18.863,0,0,0,1.438,1.546.4.4,0,0,1,0,.521l-.18.216L8.826,4.529a6.039,6.039,0,0,1-1.06.934,4.4,4.4,0,0,0-.431.359.845.845,0,0,1-.521.216H6.382L.722,5.894a1.33,1.33,0,0,1-.413-.072.576.576,0,0,1-.2-.18.27.27,0,0,1-.054-.126A3.416,3.416,0,0,1,.039,4.385a.4.4,0,0,1,.413-.305l.988.09a2.48,2.48,0,0,0,.7-.072,1.168,1.168,0,0,0,.845-.683.934.934,0,0,0,0-.827,1.276,1.276,0,0,0-1.1-.773L.758,1.761a1.33,1.33,0,0,1-.413-.09.359.359,0,0,1-.2-.2A2.3,2.3,0,0,1,.111.359a.5.5,0,0,1,.4-.341h3.9Z" transform="translate(60.9 64.299)" fill="none" stroke="#006341" stroke-miterlimit="10" stroke-width="0.18"/>
      <path id="Path_577" data-name="Path 577" d="M7.427.043H13.2a18.708,18.708,0,0,1,2.66.234.306.306,0,0,1,.18.323c-.288.737-.575,1.492-.827,2.246a.413.413,0,0,1-.323.234H12.351a13.315,13.315,0,0,0-2.8-.216L7.571,2.81a4.763,4.763,0,0,1-.7-.054,9.345,9.345,0,0,0-1.833-.108c-.665,0-1.312-.018-1.977-.036s-1.312,0-1.977-.018L.239,2.559c-.126,0-.27-.18-.234-.288.234-.611.5-1.2.773-1.815a.611.611,0,0,1,.539-.4C2.45.007,3.582-.011,4.7.007L7.41.043" transform="translate(58.165 3.947)" fill="#7d726d"/>
      <path id="Path_578" data-name="Path 578" d="M7.427.043H13.2a18.708,18.708,0,0,1,2.66.234.306.306,0,0,1,.18.323c-.288.737-.575,1.492-.827,2.246a.413.413,0,0,1-.323.234H12.351a13.315,13.315,0,0,0-2.8-.216L7.571,2.81a4.763,4.763,0,0,1-.7-.054,9.345,9.345,0,0,0-1.833-.108c-.665,0-1.312-.018-1.977-.036s-1.312,0-1.977-.018L.239,2.559c-.126,0-.27-.18-.234-.288.234-.611.5-1.2.773-1.815a.611.611,0,0,1,.539-.4C2.45.007,3.582-.011,4.7.007Z" transform="translate(58.165 3.947)" fill="none" stroke="#8c8279" stroke-miterlimit="10" stroke-width="0.18"/>
      <path id="Path_579" data-name="Path 579" d="M1.669,3.33c-.018.5-.036,1.348-.054,2.192a.4.4,0,0,1-.27.288L1.2,5.846a3.555,3.555,0,0,1-.845-.018.431.431,0,0,1-.341-.377,26.014,26.014,0,0,1,.054-2.8c.036-.467.036-.934.054-1.4S.141.688.141.4A.521.521,0,0,1,.519.024a2.282,2.282,0,0,1,.845.036.467.467,0,0,1,.288.288,23.139,23.139,0,0,1,.018,3" transform="translate(57.005 64.186)" fill="#fff"/>
      <path id="Path_580" data-name="Path 580" d="M1.222,2.933.234,2.861A.305.305,0,0,1,0,2.556a1.815,1.815,0,0,1,.09-.413c.234-.557.5-1.114.755-1.671S1.33.022,1.653,0A9.165,9.165,0,0,1,3.343.112l.126.054a.119.119,0,0,1,.072.09.972.972,0,0,1-.018.27,11.893,11.893,0,0,1-.845,2.246.269.269,0,0,1-.09.108A.5.5,0,0,1,2.354,3L1.222,2.933h0" transform="translate(75.926 4.219)" fill="#7d726d"/>
      <path id="Path_581" data-name="Path 581" d="M1.222,2.933.234,2.861A.305.305,0,0,1,0,2.556a1.815,1.815,0,0,1,.09-.413c.234-.557.5-1.114.755-1.671S1.33.022,1.653,0A9.165,9.165,0,0,1,3.343.112l.126.054a.119.119,0,0,1,.072.09.972.972,0,0,1-.018.27,11.893,11.893,0,0,1-.845,2.246.269.269,0,0,1-.09.108A.5.5,0,0,1,2.354,3Z" transform="translate(75.926 4.219)" fill="none" stroke="#8c8279" stroke-miterlimit="10" stroke-width="0.18"/>
      <path id="Path_582" data-name="Path 582" d="M1.747,3H1.423C.848,3,.65,2.93.543,2.337a7.669,7.669,0,0,0-.27-1.1C.165.936.111.612.021.289S.147,0,.255,0H.4c.467.072.934.09,1.4.126A.539.539,0,0,1,2.268.4a9.04,9.04,0,0,1,.845,2.049.305.305,0,0,1-.18.341,1.9,1.9,0,0,1-.4.126L1.747,3" transform="translate(82.841 4.384)" fill="#7d726d"/>
      <path id="Path_583" data-name="Path 583" d="M1.747,3H1.423C.848,3,.65,2.93.543,2.337a7.669,7.669,0,0,0-.27-1.1C.165.936.111.612.021.289S.147,0,.255,0H.4c.467.072.934.09,1.4.126A.539.539,0,0,1,2.268.4a9.04,9.04,0,0,1,.845,2.049.305.305,0,0,1-.18.341,1.9,1.9,0,0,1-.4.126Z" transform="translate(82.841 4.384)" fill="none" stroke="#8c8279" stroke-miterlimit="10" stroke-width="0.18"/>
      <path id="Path_584" data-name="Path 584" d="M1.707,2.031.593,1.959A.575.575,0,0,1,.126,1.51V1.366L0,.252A.27.27,0,0,1,.27,0l.97.036c.377.018.737.036,1.114.09a.683.683,0,0,1,.539.4,3.073,3.073,0,0,1,.359,1.33.305.305,0,0,1-.27.252L2.57,2.067l-.827-.072h0" transform="translate(43.004 3.972)" fill="#7d726d"/>
      <path id="Path_585" data-name="Path 585" d="M1.707,2.031.593,1.959A.575.575,0,0,1,.126,1.51V1.366L0,.252A.27.27,0,0,1,.27,0l.97.036c.377.018.737.036,1.114.09a.683.683,0,0,1,.539.4,3.073,3.073,0,0,1,.359,1.33.305.305,0,0,1-.27.252L2.57,2.067l-.827-.072Z" transform="translate(43.004 3.972)" fill="none" stroke="#8c8279" stroke-miterlimit="10" stroke-width="0.18"/>
      <path id="Path_586" data-name="Path 586" d="M1.191,0a1.168,1.168,0,0,1,1.06,1.258,1.168,1.168,0,0,1-1.186.988,1.132,1.132,0,0,1-1.06-1.24A1.2,1.2,0,0,1,1.191,0" transform="translate(79.066 49.94)"/>
      <path id="Path_587" data-name="Path 587" d="M.018,1.121A.988.988,0,0,1,.324.366,1.011,1.011,0,0,1,1.816.295a1.132,1.132,0,0,1,.4.719.953.953,0,0,1-.036.413,1.3,1.3,0,0,1-.27.485A1.1,1.1,0,0,1,0,1.139" transform="translate(78.765 41.433)"/>
      <path id="Path_588" data-name="Path 588" d="M0,1.043A1.106,1.106,0,0,1,1.114,0,1.1,1.1,0,0,1,2.156,1.1a1.078,1.078,0,0,1-1.1,1.042A1.093,1.093,0,0,1,0,1.043" transform="translate(80.886 45.375)"/>
      <path id="Path_589" data-name="Path 589" d="M1.06,0A1.1,1.1,0,0,1,2.138,1.078a1.079,1.079,0,0,1-1.1,1.042A1.078,1.078,0,0,1,0,1.042,1.06,1.06,0,0,1,1.078,0" transform="translate(56.122 44.118)"/>
      <path id="Path_590" data-name="Path 590" d="M1.126,0a1.033,1.033,0,0,1,.988,1.114,1.174,1.174,0,0,1-1.15.97A1.045,1.045,0,1,1,1.126,0" transform="translate(57.26 49.003)"/>
      <path id="Path_591" data-name="Path 591" d="M1.02,0A1.078,1.078,0,0,1,2.062.773L2.1.917A1.078,1.078,0,0,1,1.5,2.067,1.071,1.071,0,0,1,.049,1.42,1.078,1.078,0,0,1,.75.072L1.02.018" transform="translate(58.625 40.865)"/>
      <path id="Path_592" data-name="Path 592" d="M2.173,1.114a1.168,1.168,0,0,1-.359.737,1.186,1.186,0,0,1-.629.306.774.774,0,0,1-.27-.018l-.27-.09A1.024,1.024,0,0,1,.053.773,1.078,1.078,0,0,1,1.113,0,1.024,1.024,0,0,1,1.76.252a1.15,1.15,0,0,1,.413.863" transform="translate(25.771 65.197)"/>
      <path id="Path_593" data-name="Path 593" d="M2.157,1.02a1.1,1.1,0,0,1-.018.144,1.132,1.132,0,0,1-.755.917A.827.827,0,0,1,.845,2.1L.719,2.063A1.06,1.06,0,0,1,0,1.11,1.06,1.06,0,0,1,.63.1,1.042,1.042,0,0,1,1.8.284a1.348,1.348,0,0,1,.359.737" transform="translate(13.046 64.339)"/>
      <path id="Path_594" data-name="Path 594" d="M1.042,0A1.1,1.1,0,0,1,2.121,1.06,1.06,1.06,0,1,1,1.042,0" transform="translate(19.157 64.928)"/>
      <path id="Path_595" data-name="Path 595" d="M.941.018A1.114,1.114,0,0,1,2.127.863a1.006,1.006,0,0,1-.341,1.006,1.258,1.258,0,0,1-.629.288H1.031A1.15,1.15,0,0,1,.006,1.15a.413.413,0,0,1,0-.144,1.15,1.15,0,0,1,.611-.9A2.211,2.211,0,0,1,.959,0" transform="translate(39.763 65.485)"/>
      <path id="Path_596" data-name="Path 596" d="M.954,2.091A1.024,1.024,0,0,1,0,1.067,1.064,1.064,0,0,1,1.188.007,1.024,1.024,0,0,1,2.14,1.175a1.06,1.06,0,0,1-1.168.935" transform="translate(47.459 65.676)"/>
    </g>
  </g>
</svg>
