<svg xmlns="http://www.w3.org/2000/svg" xmlns:xlink="http://www.w3.org/1999/xlink" width="301.208" height="55.099" viewBox="0 0 301.208 55.099">
  <defs>
    <clipPath id="clip-path">
      <rect id="Rectangle_5" data-name="Rectangle 5" width="301.208" height="55.099" fill="none"/>
    </clipPath>
  </defs>
  <g id="LOGO_gallery" transform="translate(150.604 27.55)">
    <g id="Group_24" data-name="Group 24" transform="translate(-150.604 -27.55)" clip-path="url(#clip-path)">
      <path id="Path_329" data-name="Path 329" d="M7.391,74.58h7.043V79.7H.855V74.58l8.259-9.525a1.773,1.773,0,0,0,.253-.963,2.837,2.837,0,0,0-.051-.557,1.875,1.875,0,0,0-.709-.963,1.824,1.824,0,0,0-1.115-.355,1.875,1.875,0,0,0-1.875,1.875H.5a6.789,6.789,0,0,1,.557-2.685,7.043,7.043,0,0,1,3.749-3.749A6.789,6.789,0,0,1,7.492,57.1a6.891,6.891,0,0,1,2.229.355,7.144,7.144,0,0,1,1.925,1.013,6.789,6.789,0,0,1,1.52,1.571,7.194,7.194,0,0,1,.963,1.976,6.739,6.739,0,0,1,.3,2.077,6.384,6.384,0,0,1-.507,2.635,8.056,8.056,0,0,1-1.52,2.229Z" transform="translate(-0.247 -28.17)" fill="#1f3932"/>
      <path id="Path_330" data-name="Path 330" d="M7.391,74.58h7.043V79.7H.855V74.58l8.259-9.525a1.773,1.773,0,0,0,.253-.963,2.837,2.837,0,0,0-.051-.557,1.875,1.875,0,0,0-.709-.963,1.824,1.824,0,0,0-1.115-.355,1.875,1.875,0,0,0-1.875,1.875H.5a6.789,6.789,0,0,1,.557-2.685,7.043,7.043,0,0,1,3.749-3.749A6.789,6.789,0,0,1,7.492,57.1a6.891,6.891,0,0,1,2.229.355,7.144,7.144,0,0,1,1.925,1.013,6.789,6.789,0,0,1,1.52,1.571,7.194,7.194,0,0,1,.963,1.976,6.739,6.739,0,0,1,.3,2.077,6.384,6.384,0,0,1-.507,2.635,8.056,8.056,0,0,1-1.52,2.229Z" transform="translate(-0.247 -28.17)" fill="none" stroke="#1f3932" stroke-miterlimit="10" stroke-width="0.507"/>
      <path id="Path_331" data-name="Path 331" d="M64.925,79.7H59.808v-7.9l-2.736,7.9H51.955L49.117,71.54V79.7H44V57.1h5.219l5.269,15.25,5.32-15.25h5.117Z" transform="translate(-21.707 -28.17)" fill="none" stroke="#006341" stroke-miterlimit="10" stroke-width="0.507"/>
      <path id="Path_332" data-name="Path 332" d="M94.717,62.217v3.648h6.435v5.067H94.717V74.58h8.765V79.7H89.6V57.1h13.882v5.117Z" transform="translate(-44.203 -28.17)" fill="none" stroke="#006341" stroke-miterlimit="10" stroke-width="0.507"/>
      <path id="Path_333" data-name="Path 333" d="M135.8,62.217h-5.168V79.7h-5.117V62.217H120.4V57.1h15.4Z" transform="translate(-59.398 -28.17)" fill="none" stroke="#006341" stroke-miterlimit="10" stroke-width="0.507"/>
      <path id="Path_334" data-name="Path 334" d="M163.12,79.7l-3.952-8.563h-.051V79.7H154V57.1h6.891a7.026,7.026,0,0,1,6.536,4.256,6.89,6.89,0,0,1,.557,2.736,6.739,6.739,0,0,1-1.064,3.749,7.093,7.093,0,0,1-2.787,2.533L168.44,79.7Z" transform="translate(-75.975 -28.169)" fill="none" stroke="#006341" stroke-miterlimit="10" stroke-width="0.507"/>
      <rect id="Rectangle_4" data-name="Rectangle 4" width="5.117" height="22.617" transform="translate(93.884 28.93)" fill="none" stroke="#006341" stroke-miterlimit="10" stroke-width="0.507"/>
      <path id="Path_335" data-name="Path 335" d="M365.66,68.4a11.306,11.306,0,0,1-3.344,8.056,11.45,11.45,0,0,1-7.4,3.293H349.7V57.1h4.56a11.6,11.6,0,0,1,4.357.811A11.248,11.248,0,0,1,365.66,68.4Z" transform="translate(-172.522 -28.169)" fill="none" stroke="#006341" stroke-miterlimit="10" stroke-width="0.507"/>
      <path id="Path_336" data-name="Path 336" d="M389.617,62.217v3.648h6.435v5.067h-6.435V74.58h8.765V79.7H384.5V57.1h13.882v5.117Z" transform="translate(-189.69 -28.17)" fill="none" stroke="#006341" stroke-miterlimit="10" stroke-width="0.507"/>
      <path id="Path_337" data-name="Path 337" d="M456.817,70.932h-4.155l-3.04,8.765H444.1l7.853-22.6h5.573l7.853,22.6h-5.523Z" transform="translate(-219.093 -28.17)" fill="none" stroke="#006341" stroke-miterlimit="10" stroke-width="0.507"/>
      <path id="Path_338" data-name="Path 338" d="M498.32,79.7l-3.952-8.563h-.051V79.7H489.2V57.1h6.891a7.026,7.026,0,0,1,6.536,4.256,6.892,6.892,0,0,1,.557,2.736,6.739,6.739,0,0,1-1.064,3.749,7.094,7.094,0,0,1-2.787,2.533L503.64,79.7Z" transform="translate(-241.343 -28.169)" fill="none" stroke="#006341" stroke-miterlimit="10" stroke-width="0.507"/>
      <path id="Path_339" data-name="Path 339" d="M535.3,62.217h-5.117V79.7h-5.117V62.217H519.9V57.1h15.4Z" transform="translate(-256.488 -28.17)" fill="none" stroke="#006341" stroke-miterlimit="10" stroke-width="0.507"/>
      <path id="Path_340" data-name="Path 340" d="M564.517,70.932h-4.155l-3.04,8.765H551.8l7.853-22.6h5.573l7.853,22.6h-5.523Z" transform="translate(-272.226 -28.17)" fill="none" stroke="#006341" stroke-miterlimit="10" stroke-width="0.507"/>
      <path id="Path_341" data-name="Path 341" d="M569.405,46.579a4.205,4.205,0,0,1-1.621-.3,4.256,4.256,0,0,1-1.368-.912,4.306,4.306,0,0,1-1.216-2.787V40.6h8.461v1.723a4.357,4.357,0,0,1-.3,1.621,4.205,4.205,0,0,1-3.9,2.635Z" transform="translate(-278.837 -20.03)" fill="none" stroke="#006341" stroke-miterlimit="10" stroke-width="0.507"/>
      <path id="Path_342" data-name="Path 342" d="M217.324,34.8l10.539,31.463-17.024,5.675L200.3,40.475Zm-2.331,21.229a7.447,7.447,0,0,0,2.635-1.52,7.853,7.853,0,0,0,1.773-2.331,7.647,7.647,0,0,0-6.283-10.994,7.448,7.448,0,0,0-2.989.355h-.051l-7.043,2.381,7.8,23.256,5.269-1.773-2.939-8.816,1.824-.608Z" transform="translate(-98.816 -17.168)" fill="#1f3932"/>
      <path id="Path_343" data-name="Path 343" d="M217.324,34.8l10.539,31.463-17.024,5.675L200.3,40.475Zm-2.331,21.229a7.447,7.447,0,0,0,2.635-1.52,7.853,7.853,0,0,0,1.773-2.331,7.647,7.647,0,0,0-6.283-10.994,7.448,7.448,0,0,0-2.989.355h-.051l-7.043,2.381,7.8,23.256,5.269-1.773-2.939-8.816,1.824-.608Z" transform="translate(-98.816 -17.168)" fill="none" stroke="#1f3932" stroke-miterlimit="10" stroke-width="0.507"/>
      <path id="Path_344" data-name="Path 344" d="M232.8,29.971,248.861,24.6,259.4,56.063l-16.112,5.371Zm23.661,22.293-1.773-5.219-7.4,2.483-6.08-18.037-5.269,1.773,7.8,23.256Z" transform="translate(-114.85 -12.136)" fill="#1f3932"/>
      <path id="Path_345" data-name="Path 345" d="M232.8,29.971,248.861,24.6,259.4,56.063l-16.112,5.371Zm23.661,22.293-1.773-5.219-7.4,2.483-6.08-18.037-5.269,1.773,7.8,23.256Z" transform="translate(-114.85 -12.136)" fill="none" stroke="#1f3932" stroke-miterlimit="10" stroke-width="0.507"/>
      <path id="Path_346" data-name="Path 346" d="M283.625,11.4l10.538,31.463-20.925,6.992L262.7,18.392Zm-.2,4.459-5.269,1.773,4.661,13.882a4.561,4.561,0,0,1,.253,1.723,4.611,4.611,0,0,1-.355,1.571,3.9,3.9,0,0,1-.861,1.267,3.546,3.546,0,0,1-1.368.811,3.7,3.7,0,0,1-1.571.2,3.85,3.85,0,0,1-1.469-.456,4.611,4.611,0,0,1-1.267-1.064,4.509,4.509,0,0,1-.861-1.52l-4.661-13.933-5.269,1.773L270.1,35.922a10.589,10.589,0,0,0,1.875,3.293,9.728,9.728,0,0,0,2.888,2.331,10.336,10.336,0,0,0,3.648,1.064,8.816,8.816,0,0,0,3.7-.405h.051A8.867,8.867,0,0,0,285.5,40.33a10.336,10.336,0,0,0,2.28-3.04,9.728,9.728,0,0,0,.912-3.6,10.639,10.639,0,0,0-.456-3.749Z" transform="translate(-129.601 -5.624)" fill="#1f3932"/>
      <path id="Path_347" data-name="Path 347" d="M283.625,11.4l10.538,31.463-20.925,6.992L262.7,18.392Zm-.2,4.459-5.269,1.773,4.661,13.882a4.561,4.561,0,0,1,.253,1.723,4.611,4.611,0,0,1-.355,1.571,3.9,3.9,0,0,1-.861,1.267,3.546,3.546,0,0,1-1.368.811,3.7,3.7,0,0,1-1.571.2,3.85,3.85,0,0,1-1.469-.456,4.611,4.611,0,0,1-1.267-1.064,4.509,4.509,0,0,1-.861-1.52l-4.661-13.933-5.269,1.773L270.1,35.922a10.589,10.589,0,0,0,1.875,3.293,9.728,9.728,0,0,0,2.888,2.331,10.336,10.336,0,0,0,3.648,1.064,8.816,8.816,0,0,0,3.7-.405h.051A8.867,8.867,0,0,0,285.5,40.33a10.336,10.336,0,0,0,2.28-3.04,9.728,9.728,0,0,0,.912-3.6,10.639,10.639,0,0,0-.456-3.749Z" transform="translate(-129.601 -5.624)" fill="none" stroke="#1f3932" stroke-miterlimit="10" stroke-width="0.507"/>
      <path id="Path_348" data-name="Path 348" d="M319.278.6l10.539,31.463L312.438,37.89,301.9,6.427Zm4.712,20.621a7.2,7.2,0,0,0-1.469-2.584,7.4,7.4,0,0,0-5.067-2.483,7.549,7.549,0,0,0-2.939.405,2.128,2.128,0,0,1-1.571-.051,1.773,1.773,0,0,1-1.013-1.115,3.346,3.346,0,0,1-.1-.608,1.926,1.926,0,0,1,.405-1.216,2.077,2.077,0,0,1,1.013-.76,2.027,2.027,0,0,1,2.533,1.267l5.269-1.773a7.346,7.346,0,0,0-1.469-2.584,7.853,7.853,0,0,0-2.331-1.773,7.448,7.448,0,0,0-2.787-.811,7.347,7.347,0,0,0-2.939.355,7.6,7.6,0,0,0-3.851,2.888,7.448,7.448,0,0,0-1.013,2.128,7.651,7.651,0,0,0-.3,2.381,7.094,7.094,0,0,0,.355,2.229,6.941,6.941,0,0,0,1.52,2.584,7.8,7.8,0,0,0,2.28,1.723,7.549,7.549,0,0,0,5.725.355,2.027,2.027,0,0,1,1.52.051,1.773,1.773,0,0,1,1.013,1.165,3.343,3.343,0,0,1,.1.608,2.028,2.028,0,1,1-4,.659L309.6,26.034a7.448,7.448,0,0,0,1.52,2.635,7.549,7.549,0,0,0,5.117,2.533,7.448,7.448,0,0,0,2.989-.355,7.6,7.6,0,0,0,3.851-2.888,7.4,7.4,0,0,0,1.013-2.128,7.651,7.651,0,0,0,.3-2.381,8.46,8.46,0,0,0-.405-2.229" transform="translate(-148.94 -0.296)" fill="#1f3932"/>
      <path id="Path_349" data-name="Path 349" d="M319.278.6l10.539,31.463L312.438,37.89,301.9,6.427Zm4.712,20.621a7.2,7.2,0,0,0-1.469-2.584,7.4,7.4,0,0,0-5.067-2.483,7.549,7.549,0,0,0-2.939.405,2.128,2.128,0,0,1-1.571-.051,1.773,1.773,0,0,1-1.013-1.115,3.346,3.346,0,0,1-.1-.608,1.926,1.926,0,0,1,.405-1.216,2.077,2.077,0,0,1,1.013-.76,2.027,2.027,0,0,1,2.533,1.267l5.269-1.773a7.346,7.346,0,0,0-1.469-2.584,7.853,7.853,0,0,0-2.331-1.773,7.448,7.448,0,0,0-2.787-.811,7.347,7.347,0,0,0-2.939.355,7.6,7.6,0,0,0-3.851,2.888,7.448,7.448,0,0,0-1.013,2.128,7.651,7.651,0,0,0-.3,2.381,7.094,7.094,0,0,0,.355,2.229,6.941,6.941,0,0,0,1.52,2.584,7.8,7.8,0,0,0,2.28,1.723,7.549,7.549,0,0,0,5.725.355,2.027,2.027,0,0,1,1.52.051,1.773,1.773,0,0,1,1.013,1.165,3.343,3.343,0,0,1,.1.608,2.028,2.028,0,1,1-4,.659L309.6,26.034a7.448,7.448,0,0,0,1.52,2.635,7.549,7.549,0,0,0,5.117,2.533,7.448,7.448,0,0,0,2.989-.355,7.6,7.6,0,0,0,3.851-2.888,7.4,7.4,0,0,0,1.013-2.128,7.651,7.651,0,0,0,.3-2.381,8.459,8.459,0,0,0-.405-2.179Z" transform="translate(-148.94 -0.296)" fill="none" stroke="#1f3932" stroke-miterlimit="10" stroke-width="0.507"/>
    </g>
  </g>
</svg>
