<svg xmlns="http://www.w3.org/2000/svg" xmlns:xlink="http://www.w3.org/1999/xlink" width="113.43" height="65.56" viewBox="0 0 113.43 65.56">
  <defs>
    <clipPath id="clip-path">
      <rect id="Rectangle_14" data-name="Rectangle 14" width="65.56" height="113.43" fill="none"/>
    </clipPath>
  </defs>
  <g id="SBUX_CUP_3" transform="translate(56.715 32.78) rotate(-90)">
    <g id="Group_32" data-name="Group 32" transform="translate(-32.78 -56.715)" clip-path="url(#clip-path)">
      <path id="Path_512" data-name="Path 512" d="M50.7,39.422a16.261,16.261,0,0,1,2.175-.039h1.078l5.565-.059c.823,0,1.646.02,2.469-.059a1.176,1.176,0,0,1,1.274.921,15.5,15.5,0,0,0,.764,2.508,32.136,32.136,0,0,1,1.332,4.428,8.4,8.4,0,0,1,.176,1.215,2.037,2.037,0,0,1,0,.313,1.136,1.136,0,0,1-.49.921l-1.058.647a1.391,1.391,0,0,1-.588.176c-.568.059-1.136.02-1.685.118a.294.294,0,0,0-.235.176,3.234,3.234,0,0,0-.2.588,9.169,9.169,0,0,0-.118.921q-.059.764-.176,1.528a10.382,10.382,0,0,0-.118,1.234c-.02.411-.039.823-.1,1.234-.137.921-.2,1.842-.255,2.763a5.369,5.369,0,0,1-.078.764c-.118.607-.137,1.234-.235,1.842q-.206,1.381-.294,2.763a2.411,2.411,0,0,1-.059.451,13.911,13.911,0,0,0-.274,1.979c-.137,1.176-.235,2.351-.411,3.527-.039.313-.078.607-.118.921a15.967,15.967,0,0,1-.216,1.685,1.116,1.116,0,0,0-.02.157c-.078,1.078-.2,2.155-.372,3.213s-.353,2.332-.431,3.527-.392,2.861-.568,4.291c-.02.255-.059.509-.1.764a12.129,12.129,0,0,0-.176,1.215c-.039.411-.118.823-.176,1.215s-.1.509-.118.764c-.039.568-.157,1.117-.216,1.685-.118,1.078-.294,2.136-.431,3.213-.039.353-.1.705-.157,1.078s-.1.705-.137,1.078-.1,1.019-.2,1.528a4.874,4.874,0,0,0-.1.921c-.137,1.332-.372,2.645-.392,4a24.152,24.152,0,0,0-.294,2.919,4.153,4.153,0,0,1-.039.47,26.554,26.554,0,0,0-.274,2.919c-.059.921-.157,1.842-.255,2.763a.843.843,0,0,1-.059.294,4.031,4.031,0,0,0-.255,1.352,1.293,1.293,0,0,1-.94.921,12.107,12.107,0,0,1-2.155.216c-.509,0-1.019.02-1.548.039H43.083l-3.86.059h-.313a18.777,18.777,0,0,1-2.782.137l-1.234.039H31.209c-.313,0-.627.02-.921,0-1.548-.118-3.1-.059-4.624-.059a4.58,4.58,0,0,1-.607-.02,5.193,5.193,0,0,0-1.528-.02,1.313,1.313,0,0,1-.47,0,4.8,4.8,0,0,0-1.685.02,2.273,2.273,0,0,1-.764-.039,7.679,7.679,0,0,0-1.391-.118l-4.33-.078-.607-.039a1.43,1.43,0,0,1-1.1-.96,1.562,1.562,0,0,1-.059-.294c-.137-1.019-.313-2.038-.411-3.057s-.333-2.136-.372-3.213a18.2,18.2,0,0,0-.49-3.351,18.322,18.322,0,0,1-.431-3.213,22.919,22.919,0,0,0-.49-3.37c-.039-.2-.059-.411-.078-.607-.118-.96-.216-1.94-.392-2.9s-.372-2.449-.568-3.664c-.1-.549-.235-1.1-.313-1.665-.216-1.528-.451-3.057-.627-4.585-.216-.9-.216-1.842-.392-2.743s-.2-1.744-.392-2.586a1.626,1.626,0,0,1-.039-.313c-.039-1.136-.274-2.253-.392-3.37-.078-.725-.274-1.411-.313-2.136s-.255-1.626-.372-2.449-.176-1.117-.235-1.685c-.02-.255-.1-.509-.137-.764s-.1-.509-.118-.764c-.1-1.234-.353-2.449-.529-3.664a30.523,30.523,0,0,1-.431-3.37,3.488,3.488,0,0,0-.059-.607c-.176-.8-.2-1.626-.313-2.449s-.137-1.744-.255-2.606q-.056-.454-.157-.9a1.254,1.254,0,0,0-.2-.411.431.431,0,0,0-.235-.176,2.351,2.351,0,0,0-.607-.039,18.319,18.319,0,0,1-1.842.137,1.528,1.528,0,0,1-.96-.216,2.978,2.978,0,0,1-.764-.745,1.136,1.136,0,0,1-.2-.882,15.471,15.471,0,0,1,.392-1.646c.255-.843.392-1.7.705-2.528a7.093,7.093,0,0,0,.176-.745l.764-3a1.2,1.2,0,0,1,1.215-.98,35.17,35.17,0,0,0,3.546-.176c.509-.039,1.038-.039,1.548-.039h2.469a45.436,45.436,0,0,0,4.781-.216,12.8,12.8,0,0,1,2.626,0,9.053,9.053,0,0,0,2,.02L21,40.323l3.546-.078c1.078-.039,2.155-.059,3.233-.176.451-.059.921-.039,1.391-.078a1.45,1.45,0,0,0,.451-.1.647.647,0,0,0,.216-.216.294.294,0,0,0,.039-.137c.118-1.176.274-2.351.372-3.527.059-.666.216-1.313.274-1.979a15.852,15.852,0,0,1,.2-1.842,10.444,10.444,0,0,0,.137-1.078,9.777,9.777,0,0,1,.216-1.528,3.958,3.958,0,0,0,.078-.451c.137-1.019.255-2.038.392-3.057s.333-1.92.47-2.9.333-2.038.47-3.057.294-1.724.431-2.586.255-1.313.333-1.979c.118-1.019.333-2.038.431-3.057a27.007,27.007,0,0,1,.411-2.743c.1-.509.137-1.019.235-1.528.216-1.215.294-2.449.49-3.664.157-.921.235-1.842.372-2.743a.98.98,0,0,1,.666-.784,3.35,3.35,0,0,1,.588-.157,4.8,4.8,0,0,1,.764-.1C38.811.744,40.379.509,41.966.392h.313a1.4,1.4,0,0,1,1.234.49l.1.118a.921.921,0,0,1,.294.686,8.7,8.7,0,0,1-.176,1.685,11.991,11.991,0,0,0-.235,1.685q-.157,1.763-.451,3.527c-.039.313-.1.607-.137.921a10.992,10.992,0,0,1-.176,1.372,2.685,2.685,0,0,0-.059.451c-.078,1.489-.353,2.959-.568,4.448a10.008,10.008,0,0,0-.1,1.078,10.345,10.345,0,0,1-.2,1.528,1.665,1.665,0,0,0-.059.313c-.059,1.078-.235,2.155-.372,3.213s-.274,2.038-.372,3.057a22.487,22.487,0,0,1-.372,2.292c-.078.451-.157.9-.216,1.372s-.078.607-.137.921a8.494,8.494,0,0,0-.137,1.078,11.324,11.324,0,0,1-.216,1.528,3.369,3.369,0,0,0-.078.451c-.118,1.332-.372,2.645-.549,3.978-.118.862-.2,1.744-.294,2.606,0,.059.02.1.02.157a.392.392,0,0,0,.274.313l.313.039h1.861l3.86-.118c.666-.02,1.332.039,2,.02s1.332-.059,2-.039H50.7M19.237,66.971a11.344,11.344,0,0,1,.216,1.665c.02.255.039.509.078.764.235,1.528.451,3.057.588,4.585a.745.745,0,0,0,.078.294.607.607,0,0,0,.216.216.744.744,0,0,0,.294.1,12.188,12.188,0,0,0,1.842,0,1.332,1.332,0,0,1,.725.216,1.186,1.186,0,0,1,.451,1.724,1.078,1.078,0,0,1-.588.49,3.1,3.1,0,0,1-.588.157c-.255.039-.509.02-.764.039l-.764.039a.451.451,0,0,0-.392.392,15.165,15.165,0,0,0,.176,2.312c.059.411.118.823.157,1.215a10.228,10.228,0,0,0,.313,1.665.509.509,0,0,0,.451.353,4.31,4.31,0,0,1,.764.078,1.332,1.332,0,0,1,1.058,1,1.22,1.22,0,0,1-.9,1.411l-.607.078a.431.431,0,0,0-.372.411c.1.666.2,1.332.294,1.979.059.294.137.607.216.9a.529.529,0,0,0,.333.294,7.153,7.153,0,0,0,1.234,0,7.3,7.3,0,0,1,.921-.02,1.156,1.156,0,0,1,.98.647,1.038,1.038,0,0,1,.157.588,1.352,1.352,0,0,1-1.038,1.2,4,4,0,0,1-.607.078l-1.234.078a.411.411,0,0,0-.353.431c.118.666.2,1.313.274,1.979s.235,1.626.392,2.43c.078.411.137.8.2,1.215s.137,1.019.2,1.528c.1.862.255,1.724.353,2.606s.372,2.136.451,3.213c.157.705.216,1.43.313,2.136s.235,1.528.294,2.292a4.487,4.487,0,0,0,.078.451,1.633,1.633,0,0,0,.078.294c.039.1.274.549.627.549h2.626a6.367,6.367,0,0,1,1.234.059,7.839,7.839,0,0,0,1.548.1H33.7a9.6,9.6,0,0,0,1.234-.039,16.478,16.478,0,0,1,2-.1l1.861-.039,4.173-.078h4.644a11.561,11.561,0,0,0,2.155-.118,3.761,3.761,0,0,1,.607-.039h.764l.313-.039a.529.529,0,0,0,.411-.411c.1-1.019.216-2.038.294-3.076s.157-2.155.274-3.233.216-2.351.353-3.527.118-1.842.294-2.763a5.053,5.053,0,0,0,.078-.764,8.208,8.208,0,0,1,.1-.921c.059-.294.157-1.117.216-1.685s.1-.705.157-1.078a13.638,13.638,0,0,0,.2-1.842.588.588,0,0,0-.255-.353l-.294-.078a5.877,5.877,0,0,0-1.234.039l-.764.1a1.548,1.548,0,0,1-.882-.216A1.176,1.176,0,0,1,50,89.21a1.313,1.313,0,0,1,.745-.509,7.211,7.211,0,0,1,1.685-.216h1.234l.294-.039a.549.549,0,0,0,.333-.294c.137-.862.274-1.724.392-2.586.059-.451.1-.921.157-1.372a.372.372,0,0,0-.372-.372H53.389a10.483,10.483,0,0,1-1.234.02,1.274,1.274,0,0,1-1.117-1.117,1.2,1.2,0,0,1,.509-1.058,1.47,1.47,0,0,1,.705-.274l2-.157.607-.078a.549.549,0,0,0,.411-.411c.1-.921.314-1.822.392-2.743.02-.313.118-.607.157-.921s.059-.725.1-1.078a.47.47,0,0,0-.372-.431c-.313-.02-.607-.059-.921-.059s-.607.059-.921.078a2.253,2.253,0,0,1-.9-.157,1.2,1.2,0,0,1,.216-2.234,3.429,3.429,0,0,1,.9-.157h1.234l.764-.039a.47.47,0,0,0,.333-.274,9.365,9.365,0,0,0,.274-1.509,16.929,16.929,0,0,1,.255-2,4.623,4.623,0,0,0,.078-.607c.137-1.489.274-2.978.549-4.448a7.486,7.486,0,0,0,.1-.921c.039-.666.118-1.332.216-2s.176-1.626.274-2.449a.372.372,0,0,0-.274-.333l-.451-.039c-1.744,0-3.507.118-5.251.1a32.471,32.471,0,0,0-3.39.118l-1.078.039-3.7.1H41.692c-.627-.02-1.234-.02-1.861.02-1.078.059-2.155.118-3.233.1h-.764a9.092,9.092,0,0,1-2,.02,4.977,4.977,0,0,0-1.234.02,17.79,17.79,0,0,1-2.469.118c-.725,0-1.45-.02-2.155.02s-1.959.059-2.939.039a14.969,14.969,0,0,0-2.469.137,11.6,11.6,0,0,1-1.234.1l-2.626.137a.333.333,0,0,0-.274.313c.157,1.117.255,2.253.392,3.37s.372,2.332.431,3.527a3.292,3.292,0,0,0,.059.333M45,42.048h0l-5.408.078-.47.039-.294.078a.411.411,0,0,0-.216.216,2.492,2.492,0,0,0-.118.764c-.157.96-.313,1.92-.451,2.9s-.137,1.43-.2,2.155a.392.392,0,0,0,.353.431,15.087,15.087,0,0,0,2.155.02c1.489-.059,2.978-.078,4.467-.137.921-.039,1.842-.078,2.782-.059,1.548.039,3.1-.078,4.624-.1s3.605-.157,5.408-.2l.764-.059,1.078-.078,2.469-.078a2.351,2.351,0,0,0,.451-.039.446.446,0,0,0,.353-.451,3.468,3.468,0,0,0-.157-.921,44.322,44.322,0,0,0-1.45-4.232l-.078-.137a.49.49,0,0,0-.372-.255,5.486,5.486,0,0,0-1.234-.059H52.1a6.994,6.994,0,0,0-.921.059,9.739,9.739,0,0,1-1.548.059H48.393L45,42.106M34.344,39.794h0l1.391-.078a.647.647,0,0,0,.49-.333,1.391,1.391,0,0,0,.255-.568c.1-.607.216-1.215.255-1.822a17.243,17.243,0,0,1,.255-1.979c.137-.764.255-1.528.333-2.292.118-1.117.353-2.234.431-3.37.157-.705.176-1.43.314-2.136s.216-1.528.392-2.273a5.368,5.368,0,0,0,.137-.921c.059-1.136.294-2.234.411-3.37a15.2,15.2,0,0,0,.255-2.292c.059-.764.274-1.509.294-2.292a1.293,1.293,0,0,1,.02-.157c.039-.353.1-.705.137-1.078s.1-.509.118-.764c.118-1.117.372-2.234.392-3.37a2.567,2.567,0,0,1,.059-.451c.216-1,.216-2.038.451-3.057a3.918,3.918,0,0,0,.059-.451c.059-.451.118-.921.157-1.372s.118-1.117.157-1.685a.686.686,0,0,0-.02-.313.49.49,0,0,0-.2-.235.568.568,0,0,0-.333-.078l-2.626.157A.607.607,0,0,0,37.5,3.6a2.117,2.117,0,0,0-.078.294c-.1,1.117-.353,2.234-.411,3.37-.02.255-.078.509-.118.764l-.137.921-.431,3.057q-.255,1.685-.509,3.351c-.137.921-.255,1.822-.451,2.743s-.274,1.822-.451,2.743-.274,1.94-.451,2.9c-.118.666-.176,1.332-.294,1.979-.235,1.215-.353,2.449-.529,3.664l-.157,1.058c-.039.255-.078.509-.1.764a16.184,16.184,0,0,1-.255,1.979,4.408,4.408,0,0,0-.078.607,16.087,16.087,0,0,1-.235,2,6.486,6.486,0,0,0-.078.764c-.059.862-.1,1.744-.235,2.606a.588.588,0,0,0,0,.157c0,.059.02.1.02.157a.47.47,0,0,0,.431.372l1.391-.1M18.846,111h0l2,.078c.411,0,.823-.02,1.234-.039a.451.451,0,0,0,.47-.47,15.381,15.381,0,0,0-.176-1.842c-.039-.313-.118-.607-.137-.921-.078-1.078-.353-2.136-.431-3.213a17.224,17.224,0,0,1-.294-1.979c-.1-.647-.2-1.313-.294-1.979s-.216-1.626-.294-2.449c-.02-.255-.1-.509-.137-.764-.137-.862-.313-1.724-.411-2.586s-.235-1.626-.392-2.43a.568.568,0,0,0-.451-.353h-.274a27.784,27.784,0,0,1-4.311-.059,5.957,5.957,0,0,0-1.685.078.49.49,0,0,0-.255.353,2.626,2.626,0,0,0,.02.313,22.919,22.919,0,0,1,.294,2.292c.02.2.059.411.1.607.137.96.333,1.94.411,2.9s.353,2.234.451,3.37c.039.411.157.8.216,1.215.2,1.47.353,2.959.568,4.448a24.022,24.022,0,0,0,.411,2.9.725.725,0,0,0,.1.294.47.47,0,0,0,.235.2,1.745,1.745,0,0,0,.451.059l2.626.059M11.694,59.623l-1.842.1-1.234.059c-.1,0-.274.216-.294.313A3.821,3.821,0,0,0,8.4,61.308c.216,1.313.47,2.626.568,3.958.02.2.059.411.1.607s.1.509.137.764c.137.96.235,1.94.392,2.9s.216,1.528.353,2.292.2,1.215.274,1.822l.059.294a.666.666,0,0,0,.411.411l.294.078.607.059c1.744.039,3.488.02,5.232.1h.313a.431.431,0,0,0,.392-.372,8.112,8.112,0,0,0-.039-.921c-.1-.705-.176-1.43-.294-2.136s-.255-1.822-.333-2.743c-.02-.157-.039-.313-.059-.451-.059-.451-.137-.921-.176-1.372s-.118-.921-.176-1.372c-.157-1.215-.372-2.43-.451-3.664a7.6,7.6,0,0,0-.313-1.665.451.451,0,0,0-.333-.294,1.979,1.979,0,0,0-.921-.039,10.678,10.678,0,0,1-1.842.118h-.9M49.9,51.022v.039H48.51c-1.8-.039-3.605.059-5.408.078a18.692,18.692,0,0,0-2.626.157,5.29,5.29,0,0,1-.764.039H38.322a1.8,1.8,0,0,0-.451.059.431.431,0,0,0-.235.176,2.057,2.057,0,0,0-.216.882c-.059.764-.118,1.548-.137,2.312a8.5,8.5,0,0,0-.118,1.215.47.47,0,0,0,.274.333,2.919,2.919,0,0,0,.921.039q1.852-.118,3.7-.059a16.488,16.488,0,0,0,1.7-.02c1.489-.118,2.978-.118,4.467-.176l3.076-.078c1.332-.02,2.684.02,4.017-.078.353-.02.725-.02,1.078-.02h.607a2.43,2.43,0,0,0,1.038-.274.529.529,0,0,0,.176-.235.843.843,0,0,0,.059-.294,25.9,25.9,0,0,1,.294-2.763,4.977,4.977,0,0,0,.059-1.234.451.451,0,0,0-.274-.313l-.314-.039c-1.744-.02-3.488.078-5.232.2-.47.039-.921.059-1.391.059H49.882M22.235,48.905c1.744.039,3.488-.059,5.251.039a4.917,4.917,0,0,0,1.078-.059A.529.529,0,0,0,29,48.494c.1-.666.157-1.332.294-1.979a2.528,2.528,0,0,0,.039-.451,15.322,15.322,0,0,1,.274-2.449,4.507,4.507,0,0,0,.039-.607c.02-.255-.137-.431-.333-.411-2.253.118-4.526.118-6.779.313h-.313c-1.43-.02-2.88.1-4.311.02h-.333a.666.666,0,0,0-.588.411,10.365,10.365,0,0,0-.588,2.077,20.32,20.32,0,0,1-.529,2.077c-.1.353-.2.686-.274,1.038a.313.313,0,0,0,.313.411h2c1.176,0,2.371.039,3.546-.059.255-.02.509,0,.764,0M8.97,43.067l-1.509.078c-.862.059-1.744.137-2.606.157a.8.8,0,0,0-.294.059.49.49,0,0,0-.235.176,2.214,2.214,0,0,0-.235.568c-.255,1.1-.529,2.194-.862,3.272-.118.392-.2.8-.274,1.2a.294.294,0,0,0,0,.157.274.274,0,0,0,.1.1.647.647,0,0,0,.431.118,26.9,26.9,0,0,1,3.684.137h.47l4.624-.039a.705.705,0,0,0,.705-.49l.764-2.665a3.86,3.86,0,0,0,.157-.588,13.6,13.6,0,0,1,.333-1.509,2.508,2.508,0,0,0,.039-.451.382.382,0,0,0-.02-.157.627.627,0,0,0-.255-.137,1.92,1.92,0,0,0-.451-.02,29.8,29.8,0,0,1-3.39.039H8.97m14.774,13.5h3.213c.255,0,.509-.059.764-.078a.607.607,0,0,0,.431-.392,8.679,8.679,0,0,0,.176-1.058c.059-.98.157-1.94.294-2.9a1.469,1.469,0,0,0-.02-.294.529.529,0,0,0-.294-.314l-.607-.059H22.764a11.659,11.659,0,0,0-2,.1,4.624,4.624,0,0,1-.764.039c-.823,0-1.646.039-2.449-.039H17.4a.431.431,0,0,0-.392.392,4.468,4.468,0,0,0,.078.607q.47,1.861.8,3.762l.039.157a.529.529,0,0,0,.431.392,4.663,4.663,0,0,0,1.372,0,12.442,12.442,0,0,1,2-.118L22.8,56.7l.921-.059M14.535,76.983h-3.1a1.313,1.313,0,0,0-.451.078.333.333,0,0,0-.2.216,5.134,5.134,0,0,0,.1,1.528c.039.294.137.607.157.9.078.98.294,1.92.392,2.9a.568.568,0,0,0,.549.451H12.3a14.891,14.891,0,0,1,3.37.02,15.363,15.363,0,0,0,2.606.02.49.49,0,0,0,.294-.333c0-.059.02-.1.02-.157-.039-.411-.059-.823-.118-1.215-.137-.921-.255-1.822-.333-2.743a10.933,10.933,0,0,0-.216-1.2.549.549,0,0,0-.353-.274L14.535,77M11.557,57.115h0c.47-.02.921,0,1.391-.059s1.234-.1,1.842-.118L15.1,56.9a.392.392,0,0,0,.255-.333,14.754,14.754,0,0,0-.353-1.979q-.353-1.352-.588-2.7c-.078-.078-.137-.176-.216-.2a1.313,1.313,0,0,0-.451-.078h-5.7a1.234,1.234,0,0,0-.451.078.6.6,0,0,0-.2.235.274.274,0,0,0-.02.157c.118,1.528.274,3.076.431,4.6a1.352,1.352,0,0,0,.039.157.588.588,0,0,0,.451.372H9.852l1.7-.078m4.271,28.509a22.493,22.493,0,0,0-2.508-.078c-.314,0-.607.039-.921.059a.47.47,0,0,0-.411.529,7.6,7.6,0,0,0,.157,1.215c.078.353.137.705.216,1.058l.078.451a.588.588,0,0,0,.529.47l.764.059h4.761a2.273,2.273,0,0,0,.764-.078.353.353,0,0,0,.216-.216,1.509,1.509,0,0,0,.02-.451c-.039-.882-.274-1.724-.392-2.586a.549.549,0,0,0-.549-.431H15.828M31.836,45.653a14.871,14.871,0,0,1-.274,2.43,2.723,2.723,0,0,0-.02.313.47.47,0,0,0,.372.411,18.712,18.712,0,0,0,2.9-.039.549.549,0,0,0,.392-.411c.059-.451.137-.9.176-1.372s.157-1.411.274-2.136.157-1.313.216-1.979a1.057,1.057,0,0,0-.02-.157.47.47,0,0,0-.411-.372,15.773,15.773,0,0,0-2.449.039l-.451.078a.451.451,0,0,0-.313.313,1.509,1.509,0,0,0-.118.451,19.142,19.142,0,0,1-.255,1.979,3.7,3.7,0,0,0-.059.451M32.62,56.41h1.372a.549.549,0,0,0,.529-.451c.078-.509.157-1.019.2-1.528a18.105,18.105,0,0,0,.118-2.763.431.431,0,0,0-.314-.294h-.157l-2.763.039h-.059a.431.431,0,0,0-.314.294l-.294,2.43a9.973,9.973,0,0,0-.1,1.979.372.372,0,0,0,.294.294h1.528" transform="translate(0.004 -0.313)"/>
      <path id="Path_513" data-name="Path 513" d="M94.582,304.9a3.3,3.3,0,0,1-.059-.333c-.059-1.176-.274-2.351-.431-3.527s-.235-2.253-.392-3.37a.333.333,0,0,1,.274-.313l2.626-.137a11.611,11.611,0,0,0,1.234-.1,14.952,14.952,0,0,1,2.469-.137c.98.02,1.959.02,2.939-.039s1.45,0,2.155-.02a17.766,17.766,0,0,0,2.469-.118,4.976,4.976,0,0,1,1.234-.02,9.091,9.091,0,0,0,2-.02h.764c1.078.02,2.155-.039,3.233-.1.627-.039,1.234-.02,1.861-.02h2.155l3.7-.1,1.078-.039c1.136-.1,2.253-.118,3.39-.118,1.744.02,3.507-.1,5.251-.1l.451.039a.372.372,0,0,1,.274.333c-.078.823-.137,1.646-.274,2.449a16.258,16.258,0,0,0-.216,2,7.483,7.483,0,0,1-.1.921,42.4,42.4,0,0,0-.549,4.448,4.622,4.622,0,0,1-.078.607,16.969,16.969,0,0,0-.255,2,9.367,9.367,0,0,1-.274,1.528.47.47,0,0,1-.333.274l-.764.039h-1.2a3.431,3.431,0,0,0-.9.157,1.2,1.2,0,0,0-.216,2.234,2.253,2.253,0,0,0,.9.157c.314-.02.607-.078.921-.078s.607.039.921.059a.47.47,0,0,1,.372.431c-.02.353-.059.725-.1,1.078s-.137.607-.157.921c-.078.921-.274,1.822-.392,2.743a.549.549,0,0,1-.411.411l-.607.078-2,.157a1.47,1.47,0,0,0-.705.274,1.2,1.2,0,0,0-.509,1.058,1.274,1.274,0,0,0,1.117,1.117,10.484,10.484,0,0,0,1.234-.02h1.078a.372.372,0,0,1,.372.372c-.059.451-.1.921-.157,1.372-.118.862-.255,1.724-.392,2.586a.549.549,0,0,1-.333.294l-.294.039h-1.234a7.21,7.21,0,0,0-1.685.216,1.313,1.313,0,0,0-.745.509,1.176,1.176,0,0,0,.372,1.724,1.548,1.548,0,0,0,.882.216l.764-.1a5.859,5.859,0,0,1,1.234-.039l.294.078a.588.588,0,0,1,.255.353,13.656,13.656,0,0,1-.2,1.842c-.059.353-.118.705-.157,1.078s-.118,1.117-.216,1.685a5.365,5.365,0,0,0-.1.921,4.367,4.367,0,0,1-.078.764c-.176.921-.2,1.842-.294,2.763s-.216,2.351-.353,3.527-.216,2.155-.274,3.233-.2,2.057-.294,3.076a.529.529,0,0,1-.411.411l-.313.039H125.7a3.763,3.763,0,0,0-.607.039,11.54,11.54,0,0,1-2.155.118H118.29l-4.173.078-1.861.039a16.473,16.473,0,0,0-2,.1,9.607,9.607,0,0,1-1.234.039h-2.449a7.856,7.856,0,0,1-1.548-.1,6.37,6.37,0,0,0-1.234-.059h-2.626a.575.575,0,0,1-.627-.549c-.078-.392-.059-.2-.078-.294a4.489,4.489,0,0,1-.078-.451c-.059-.764-.176-1.528-.294-2.292s-.157-1.43-.313-2.136c-.078-1.078-.313-2.136-.451-3.213s-.255-1.724-.353-2.606c-.059-.509-.137-1.019-.2-1.528s-.118-.823-.2-1.215c-.157-.8-.294-1.626-.392-2.43s-.157-1.332-.274-1.979a.411.411,0,0,1,.353-.431l1.234-.078a3.994,3.994,0,0,0,.607-.078,1.352,1.352,0,0,0,1.038-1.2,1.019,1.019,0,0,0-.157-.588,1.156,1.156,0,0,0-.98-.647q-.461-.013-.921.02a7.15,7.15,0,0,1-1.234,0,.529.529,0,0,1-.333-.294c-.078-.294-.157-.588-.216-.9-.118-.666-.2-1.313-.294-1.979a.431.431,0,0,1,.372-.411l.607-.078a1.21,1.21,0,0,0,.9-1.411,1.332,1.332,0,0,0-1.058-1,4.291,4.291,0,0,0-.764-.078.529.529,0,0,1-.451-.353,10.269,10.269,0,0,1-.313-1.665c-.039-.411-.1-.823-.157-1.215a15.166,15.166,0,0,1-.176-2.312.451.451,0,0,1,.392-.392l.764-.039c.255-.02.509,0,.764-.039a3.1,3.1,0,0,0,.588-.157,1.078,1.078,0,0,0,.588-.49,1.2,1.2,0,0,0-.451-1.724,1.333,1.333,0,0,0-.725-.216,12.19,12.19,0,0,1-1.842,0,.744.744,0,0,1-.294-.1.608.608,0,0,1-.216-.216.745.745,0,0,1-.078-.294c-.137-1.548-.353-3.076-.588-4.585-.039-.255-.059-.509-.078-.764a11.364,11.364,0,0,0-.216-1.665m7.23,14.186v.078a5.844,5.844,0,0,0,.353,2.586c.078.2.1.392.157.588a7.817,7.817,0,0,0,.725,1.7,14.306,14.306,0,0,0,.921,1.43,3.311,3.311,0,0,0,.411.47c.451.411.9.843,1.391,1.234a7.661,7.661,0,0,0,1.979,1.176,11.606,11.606,0,0,0,2.8.862,11.747,11.747,0,0,0,4.134.216l.451-.059a10.834,10.834,0,0,0,2.194-.705l1.391-.666a7.348,7.348,0,0,0,2.7-2.234,11.991,11.991,0,0,0,2.371-5.467,19.83,19.83,0,0,0,.255-2.136,8.523,8.523,0,0,0-.333-3.213,9.425,9.425,0,0,0-1.293-2.8c-.353-.509-.725-1-1.117-1.489a5.153,5.153,0,0,0-1-.96,13.245,13.245,0,0,0-3.1-1.724l-.431-.137a9.385,9.385,0,0,0-2.136-.255,12.771,12.771,0,0,0-2.449.176l-.451.059a7.665,7.665,0,0,0-1.058.216,15.556,15.556,0,0,0-4.1,1.783,4.037,4.037,0,0,0-1.176.98,10.11,10.11,0,0,1-.843.9,7.27,7.27,0,0,0-1.842,2.822c-.059.2-.157.372-.235.568a8.817,8.817,0,0,0-.627,2.841c-.02.314-.039.607-.078,1.156" transform="translate(-75.341 -238.244)" fill="#d7934a"/>
      <path id="Path_514" data-name="Path 514" d="M94.582,304.9a3.3,3.3,0,0,1-.059-.333c-.059-1.176-.274-2.351-.431-3.527s-.235-2.253-.392-3.37a.333.333,0,0,1,.274-.313l2.626-.137a11.611,11.611,0,0,0,1.234-.1,14.952,14.952,0,0,1,2.469-.137c.98.02,1.959.02,2.939-.039s1.45,0,2.155-.02a17.766,17.766,0,0,0,2.469-.118,4.976,4.976,0,0,1,1.234-.02,9.091,9.091,0,0,0,2-.02h.764c1.078.02,2.155-.039,3.233-.1.627-.039,1.234-.02,1.861-.02h2.155l3.7-.1,1.078-.039c1.136-.1,2.253-.118,3.39-.118,1.744.02,3.507-.1,5.251-.1l.451.039a.372.372,0,0,1,.274.333c-.078.823-.137,1.646-.274,2.449a16.258,16.258,0,0,0-.216,2,7.483,7.483,0,0,1-.1.921,42.4,42.4,0,0,0-.549,4.448,4.622,4.622,0,0,1-.078.607,16.969,16.969,0,0,0-.255,2,9.367,9.367,0,0,1-.274,1.528.47.47,0,0,1-.333.274l-.764.039h-1.2a3.431,3.431,0,0,0-.9.157,1.2,1.2,0,0,0-.216,2.234,2.253,2.253,0,0,0,.9.157c.314-.02.607-.078.921-.078s.607.039.921.059a.47.47,0,0,1,.372.431c-.02.353-.059.725-.1,1.078s-.137.607-.157.921c-.078.921-.274,1.822-.392,2.743a.549.549,0,0,1-.411.411l-.607.078-2,.157a1.47,1.47,0,0,0-.705.274,1.2,1.2,0,0,0-.509,1.058,1.274,1.274,0,0,0,1.117,1.117,10.484,10.484,0,0,0,1.234-.02h1.078a.372.372,0,0,1,.372.372c-.059.451-.1.921-.157,1.372-.118.862-.255,1.724-.392,2.586a.549.549,0,0,1-.333.294l-.294.039h-1.234a7.21,7.21,0,0,0-1.685.216,1.313,1.313,0,0,0-.745.509,1.176,1.176,0,0,0,.372,1.724,1.548,1.548,0,0,0,.882.216l.764-.1a5.859,5.859,0,0,1,1.234-.039l.294.078a.588.588,0,0,1,.255.353,13.656,13.656,0,0,1-.2,1.842c-.059.353-.118.705-.157,1.078s-.118,1.117-.216,1.685a5.365,5.365,0,0,0-.1.921,4.367,4.367,0,0,1-.078.764c-.176.921-.2,1.842-.294,2.763s-.216,2.351-.353,3.527-.216,2.155-.274,3.233-.2,2.057-.294,3.076a.529.529,0,0,1-.411.411l-.313.039H125.7a3.763,3.763,0,0,0-.607.039,11.54,11.54,0,0,1-2.155.118H118.29l-4.173.078-1.861.039a16.473,16.473,0,0,0-2,.1,9.607,9.607,0,0,1-1.234.039h-2.449a7.856,7.856,0,0,1-1.548-.1,6.37,6.37,0,0,0-1.234-.059h-2.626a.575.575,0,0,1-.627-.549c-.078-.392-.059-.2-.078-.294a4.489,4.489,0,0,1-.078-.451c-.059-.764-.176-1.528-.294-2.292s-.157-1.43-.313-2.136c-.078-1.078-.313-2.136-.451-3.213s-.255-1.724-.353-2.606c-.059-.509-.137-1.019-.2-1.528s-.118-.823-.2-1.215c-.157-.8-.294-1.626-.392-2.43s-.157-1.332-.274-1.979a.411.411,0,0,1,.353-.431l1.234-.078a3.994,3.994,0,0,0,.607-.078,1.352,1.352,0,0,0,1.038-1.2,1.019,1.019,0,0,0-.157-.588,1.156,1.156,0,0,0-.98-.647q-.461-.013-.921.02a7.15,7.15,0,0,1-1.234,0,.529.529,0,0,1-.333-.294c-.078-.294-.157-.588-.216-.9-.118-.666-.2-1.313-.294-1.979a.431.431,0,0,1,.372-.411l.607-.078a1.21,1.21,0,0,0,.9-1.411,1.332,1.332,0,0,0-1.058-1,4.291,4.291,0,0,0-.764-.078.529.529,0,0,1-.451-.353,10.269,10.269,0,0,1-.313-1.665c-.039-.411-.1-.823-.157-1.215a15.166,15.166,0,0,1-.176-2.312.451.451,0,0,1,.392-.392l.764-.039c.255-.02.509,0,.764-.039a3.1,3.1,0,0,0,.588-.157,1.078,1.078,0,0,0,.588-.49,1.2,1.2,0,0,0-.451-1.724,1.333,1.333,0,0,0-.725-.216,12.19,12.19,0,0,1-1.842,0,.744.744,0,0,1-.294-.1.608.608,0,0,1-.216-.216.745.745,0,0,1-.078-.294c-.137-1.548-.353-3.076-.588-4.585-.039-.255-.059-.509-.078-.764A11.363,11.363,0,0,0,94.582,304.9Zm7.23,14.186v.078a5.844,5.844,0,0,0,.353,2.586c.078.2.1.392.157.588a7.817,7.817,0,0,0,.725,1.7,14.3,14.3,0,0,0,.921,1.43,3.311,3.311,0,0,0,.411.47c.451.411.9.842,1.391,1.234a7.661,7.661,0,0,0,1.979,1.176,11.607,11.607,0,0,0,2.8.862,11.745,11.745,0,0,0,4.134.216l.451-.059a10.834,10.834,0,0,0,2.194-.705l1.391-.666a7.348,7.348,0,0,0,2.7-2.234A11.992,11.992,0,0,0,123.8,320.3a19.828,19.828,0,0,0,.255-2.136,8.523,8.523,0,0,0-.333-3.213,9.425,9.425,0,0,0-1.293-2.8c-.353-.509-.725-1-1.117-1.489a5.154,5.154,0,0,0-1-.96,13.246,13.246,0,0,0-3.1-1.724l-.431-.137a9.386,9.386,0,0,0-2.136-.255,12.771,12.771,0,0,0-2.449.176l-.451.059a7.665,7.665,0,0,0-1.058.216,15.556,15.556,0,0,0-4.1,1.783,4.037,4.037,0,0,0-1.176.98,10.11,10.11,0,0,1-.843.9,7.269,7.269,0,0,0-1.842,2.822c-.059.2-.157.372-.235.568a8.817,8.817,0,0,0-.627,2.841C101.871,318.245,101.851,318.558,101.812,319.087Z" transform="translate(-75.341 -238.244)" fill="none" stroke="#c6893f" stroke-miterlimit="10" stroke-width="0.196"/>
      <path id="Path_515" data-name="Path 515" d="M200.5,212.068l3.39-.059h1.234a9.76,9.76,0,0,0,1.548-.059,6.973,6.973,0,0,1,.921-.059l7.406-.039a5.486,5.486,0,0,1,1.234.059.49.49,0,0,1,.372.255l.078.137a44.275,44.275,0,0,1,1.45,4.232,3.467,3.467,0,0,1,.157.9.446.446,0,0,1-.353.451,2.352,2.352,0,0,1-.451.039l-2.469.078-1.078.078-.764.059c-1.8.039-3.605.157-5.408.2s-3.076.137-4.624.1c-.921-.02-1.861.039-2.782.059-1.489.059-2.978.059-4.467.137a15.09,15.09,0,0,1-2.155-.02.392.392,0,0,1-.353-.431c.059-.725.1-1.43.2-2.155s.294-1.94.451-2.9a2.586,2.586,0,0,1,.118-.764.411.411,0,0,1,.216-.216l.294-.078.47-.039,5.408-.078h0" transform="translate(-155.497 -170.333)" fill="#d4e8e1"/>
      <path id="Path_516" data-name="Path 516" d="M167.72,50.654l-1.391.1a.47.47,0,0,1-.431-.372c0-.059-.02-.1-.02-.157a.587.587,0,0,1,0-.157c.137-.862.176-1.744.235-2.606a6.492,6.492,0,0,1,.078-.764,16.066,16.066,0,0,0,.235-2,4.412,4.412,0,0,1,.078-.607,16.184,16.184,0,0,0,.255-1.979c.02-.255.078-.509.1-.764l.157-1.058c.176-1.215.294-2.449.529-3.664.118-.647.176-1.332.294-1.979.176-.96.274-1.94.451-2.9s.274-1.822.451-2.743.294-1.822.451-2.743.333-2.234.509-3.351l.431-3.037.137-.921c.039-.255.1-.509.118-.764.059-1.136.314-2.234.411-3.37a2.116,2.116,0,0,1,.078-.294.607.607,0,0,1,.431-.392l2.626-.137a.568.568,0,0,1,.294.059.49.49,0,0,1,.2.235.686.686,0,0,1,.02.313l-.157,1.685c-.039.451-.1.921-.157,1.372a3.914,3.914,0,0,1-.059.451c-.235,1-.235,2.038-.451,3.057a2.569,2.569,0,0,0-.059.451c-.02,1.136-.274,2.234-.392,3.37-.02.255-.078.509-.118.764s-.1.705-.137,1.078a1.35,1.35,0,0,0-.02.157c-.02.784-.216,1.528-.294,2.292a17.837,17.837,0,0,1-.255,2.292c-.1,1.117-.333,2.234-.411,3.37a5.368,5.368,0,0,1-.118.921c-.176.745-.235,1.528-.392,2.273s-.157,1.43-.313,2.136c-.059,1.136-.314,2.234-.431,3.37-.078.764-.2,1.528-.333,2.292a17.242,17.242,0,0,0-.255,1.979c-.039.627-.176,1.215-.255,1.822a1.391,1.391,0,0,1-.255.568.647.647,0,0,1-.49.333l-1.391.078h0" transform="translate(-133.373 -11.251)" fill="#0d754c"/>
      <path id="Path_517" data-name="Path 517" d="M167.72,50.654l-1.391.1a.47.47,0,0,1-.431-.372c0-.059-.02-.1-.02-.157a.587.587,0,0,1,0-.157c.137-.862.176-1.744.235-2.606a6.492,6.492,0,0,1,.078-.764,16.066,16.066,0,0,0,.235-2,4.412,4.412,0,0,1,.078-.607,16.184,16.184,0,0,0,.255-1.979c.02-.255.078-.509.1-.764l.157-1.058c.176-1.215.294-2.449.529-3.664.118-.647.176-1.332.294-1.979.176-.96.274-1.94.451-2.9s.274-1.822.451-2.743.294-1.822.451-2.743.333-2.234.509-3.351l.431-3.037.137-.921c.039-.255.1-.509.118-.764.059-1.136.314-2.234.411-3.37a2.116,2.116,0,0,1,.078-.294.607.607,0,0,1,.431-.392l2.626-.137a.568.568,0,0,1,.294.059.49.49,0,0,1,.2.235.686.686,0,0,1,.02.313l-.157,1.685c-.039.451-.1.921-.157,1.372a3.914,3.914,0,0,1-.059.451c-.235,1-.235,2.038-.451,3.057a2.569,2.569,0,0,0-.059.451c-.02,1.136-.274,2.234-.392,3.37-.02.255-.078.509-.118.764s-.1.705-.137,1.078a1.35,1.35,0,0,0-.02.157c-.02.784-.216,1.528-.294,2.292a17.837,17.837,0,0,1-.255,2.292c-.1,1.117-.333,2.234-.411,3.37a5.368,5.368,0,0,1-.118.921c-.176.745-.235,1.528-.392,2.273s-.157,1.43-.313,2.136c-.059,1.136-.314,2.234-.431,3.37-.078.764-.2,1.528-.333,2.292a17.242,17.242,0,0,0-.255,1.979c-.039.627-.176,1.215-.255,1.822a1.391,1.391,0,0,1-.255.568.647.647,0,0,1-.49.333l-1.391.078Z" transform="translate(-133.373 -11.251)" fill="none" stroke="#0d744b" stroke-miterlimit="10" stroke-width="0.196"/>
      <path id="Path_518" data-name="Path 518" d="M72.078,486.472l-2.626-.059a1.746,1.746,0,0,1-.451-.059.47.47,0,0,1-.235-.2.725.725,0,0,1-.1-.294,24.022,24.022,0,0,1-.411-2.9c-.216-1.47-.372-2.959-.568-4.448-.059-.411-.176-.8-.216-1.215-.118-1.136-.353-2.234-.451-3.37s-.274-1.94-.411-2.9c-.039-.2-.078-.411-.1-.607-.059-.764-.176-1.528-.294-2.292a2.586,2.586,0,0,1-.02-.313.49.49,0,0,1,.255-.353,5.937,5.937,0,0,1,1.685-.078,27.8,27.8,0,0,0,4.311.059h.313a.568.568,0,0,1,.451.353c.137.8.294,1.626.392,2.43s.274,1.724.411,2.586c.039.255.118.509.137.764.078.823.176,1.626.294,2.449s.2,1.332.294,1.979a17.223,17.223,0,0,0,.294,1.979c.078,1.078.353,2.136.431,3.213.02.313.1.607.137.921a15.381,15.381,0,0,1,.176,1.842.451.451,0,0,1-.47.47c-.411.02-.823.059-1.234.059l-2-.078h0" transform="translate(-53.229 -375.787)" fill="#d7934a"/>
      <path id="Path_519" data-name="Path 519" d="M72.078,486.472l-2.626-.059a1.746,1.746,0,0,1-.451-.059.47.47,0,0,1-.235-.2.725.725,0,0,1-.1-.294,24.022,24.022,0,0,1-.411-2.9c-.216-1.47-.372-2.959-.568-4.448-.059-.411-.176-.8-.216-1.215-.118-1.136-.353-2.234-.451-3.37s-.274-1.94-.411-2.9c-.039-.2-.078-.411-.1-.607-.059-.764-.176-1.528-.294-2.292a2.586,2.586,0,0,1-.02-.313.49.49,0,0,1,.255-.353,5.937,5.937,0,0,1,1.685-.078,27.8,27.8,0,0,0,4.311.059h.313a.568.568,0,0,1,.451.353c.137.8.294,1.626.392,2.43s.274,1.724.411,2.586c.039.255.118.509.137.764.078.823.176,1.626.294,2.449s.2,1.332.294,1.979a17.223,17.223,0,0,0,.294,1.979c.078,1.078.353,2.136.431,3.213.02.313.1.607.137.921a15.381,15.381,0,0,1,.176,1.842.451.451,0,0,1-.47.47c-.411.02-.823.059-1.234.059l-2-.078Z" transform="translate(-53.229 -375.787)" fill="none" stroke="#c6893f" stroke-miterlimit="10" stroke-width="0.196"/>
      <path id="Path_520" data-name="Path 520" d="M45.879,302.068H46.8a10.7,10.7,0,0,0,1.842-.118,1.979,1.979,0,0,1,.921.039.451.451,0,0,1,.333.294,7.622,7.622,0,0,1,.313,1.665c.078,1.234.294,2.449.451,3.664.059.451.118.921.176,1.372s.118.921.176,1.372a4.074,4.074,0,0,1,.059.451c.078.921.2,1.842.333,2.743s.176,1.43.294,2.136a8.17,8.17,0,0,1,.039.921.431.431,0,0,1-.392.372h-.313c-1.744-.1-3.488-.059-5.232-.1l-.607-.059-.294-.078a.666.666,0,0,1-.411-.411l-.059-.294c-.059-.607-.157-1.215-.274-1.822s-.216-1.528-.353-2.292-.255-1.94-.392-2.9c-.039-.255-.1-.509-.137-.764s-.078-.411-.1-.607c-.118-1.332-.353-2.645-.568-3.958a3.821,3.821,0,0,1-.078-1.215c.02-.1.2-.314.294-.314l1.234-.059,1.842-.1" transform="translate(-34.182 -242.758)" fill="#d7934a"/>
      <path id="Path_521" data-name="Path 521" d="M45.879,302.068H46.8a10.7,10.7,0,0,0,1.842-.118,1.979,1.979,0,0,1,.921.039.451.451,0,0,1,.333.294,7.622,7.622,0,0,1,.313,1.665c.078,1.234.294,2.449.451,3.664.059.451.118.921.176,1.372s.118.921.176,1.372a4.074,4.074,0,0,1,.059.451c.078.921.2,1.842.333,2.743s.176,1.43.294,2.136a8.17,8.17,0,0,1,.039.921.431.431,0,0,1-.392.372h-.313c-1.744-.1-3.488-.059-5.232-.1l-.607-.059-.294-.078a.666.666,0,0,1-.411-.411l-.059-.294c-.059-.607-.157-1.215-.274-1.822s-.216-1.528-.353-2.292-.255-1.94-.392-2.9c-.039-.255-.1-.509-.137-.764s-.078-.411-.1-.607c-.118-1.332-.353-2.645-.568-3.958a3.821,3.821,0,0,1-.078-1.215c.02-.1.2-.314.294-.314l1.234-.059Z" transform="translate(-34.182 -242.758)" fill="none" stroke="#c6893f" stroke-miterlimit="10" stroke-width="0.196"/>
      <path id="Path_522" data-name="Path 522" d="M202.51,257.444h1.548c.47,0,.921-.02,1.391-.059,1.744-.118,3.488-.216,5.251-.2l.313.039a.451.451,0,0,1,.274.314,5,5,0,0,1-.059,1.234,25.886,25.886,0,0,0-.294,2.763.842.842,0,0,1-.059.294.529.529,0,0,1-.176.235,2.43,2.43,0,0,1-1.038.274h-.647c-.353,0-.725,0-1.078.02-1.332.1-2.665.059-4.017.078l-3.076.078c-1.489.059-2.978.059-4.467.176a16.494,16.494,0,0,1-1.7.02q-1.852-.029-3.7.059a2.918,2.918,0,0,1-.921-.039.47.47,0,0,1-.274-.333c-.039-.411.118-.8.118-1.215.039-.764.1-1.548.137-2.312a2.058,2.058,0,0,1,.216-.882.431.431,0,0,1,.235-.176,1.8,1.8,0,0,1,.451-.059h1.391a5.272,5.272,0,0,0,.764-.039,18.694,18.694,0,0,1,2.626-.157c1.8-.039,3.605-.118,5.408-.078h1.391Z" transform="translate(-152.585 -206.795)" fill="#d4e8e1"/>
      <path id="Path_523" data-name="Path 523" d="M86.177,222.109c-.255,0-.509-.02-.764,0-1.176.1-2.371.059-3.546.059H79.849a.313.313,0,0,1-.313-.411c.1-.353.176-.705.274-1.038a20.318,20.318,0,0,0,.509-2.1,10.346,10.346,0,0,1,.588-2.077.666.666,0,0,1,.588-.411h.314c1.43.1,2.88-.02,4.311-.02h.313c2.253-.2,4.526-.2,6.779-.314a.354.354,0,0,1,.333.411,4.449,4.449,0,0,1-.039.607,15.3,15.3,0,0,0-.274,2.449,2.529,2.529,0,0,1-.039.451c-.137.647-.2,1.332-.294,1.979a.529.529,0,0,1-.431.392,4.919,4.919,0,0,1-1.078.059c-1.744-.078-3.488.02-5.251-.039" transform="translate(-63.938 -173.517)" fill="#d4e8e1"/>
      <path id="Path_524" data-name="Path 524" d="M20.991,218.017h1.1a29.8,29.8,0,0,0,3.39-.039,1.92,1.92,0,0,1,.451.02.627.627,0,0,1,.255.137.337.337,0,0,1,.02.157,2.488,2.488,0,0,1-.039.451,13.6,13.6,0,0,0-.333,1.509,3.881,3.881,0,0,1-.157.588l-.725,2.665a.705.705,0,0,1-.705.49l-4.624.039h-.451a26.885,26.885,0,0,0-3.684-.137.646.646,0,0,1-.431-.118.274.274,0,0,1-.1-.1.294.294,0,0,1,0-.157c.1-.392.157-.8.274-1.2.333-1.078.607-2.175.862-3.272a2.214,2.214,0,0,1,.235-.568.51.51,0,0,1,.235-.176.8.8,0,0,1,.294-.059c.882-.02,1.744-.078,2.606-.157s1.234-.059,1.509-.078" transform="translate(-12.017 -175.264)" fill="#d4e8e1"/>
      <path id="Path_525" data-name="Path 525" d="M93.521,265.84l-.921.059-1.078.059a12.439,12.439,0,0,0-2,.118,4.665,4.665,0,0,1-1.372,0,.529.529,0,0,1-.431-.392l-.039-.157q-.313-1.9-.8-3.762a4.466,4.466,0,0,1-.078-.607.431.431,0,0,1,.392-.392h.157c.823.078,1.646.039,2.449.039a4.646,4.646,0,0,0,.764-.039,11.642,11.642,0,0,1,2-.1h4.918l.607.059a.529.529,0,0,1,.294.314,1.469,1.469,0,0,1,.02.294,29.074,29.074,0,0,0-.294,2.9,8.679,8.679,0,0,1-.176,1.058.607.607,0,0,1-.431.392c-.255.02-.509.078-.764.078H93.521Z" transform="translate(-69.793 -209.587)" fill="#d4e8e1"/>
      <path id="Path_526" data-name="Path 526" d="M58.765,391.22l3.037.176a.549.549,0,0,1,.353.274,10.955,10.955,0,0,1,.216,1.2c.078.921.176,1.842.333,2.743.059.411.078.823.118,1.215,0,.039-.02.1-.02.157a.49.49,0,0,1-.294.333,15.36,15.36,0,0,1-2.606-.02,14.893,14.893,0,0,0-3.37-.02h-.313a.568.568,0,0,1-.549-.451c-.118-.96-.333-1.92-.392-2.9-.02-.313-.118-.607-.157-.9a5.134,5.134,0,0,1-.1-1.528.333.333,0,0,1,.2-.216,1.312,1.312,0,0,1,.451-.078h3.1" transform="translate(-44.227 -314.55)" fill="#d7934a"/>
      <path id="Path_527" data-name="Path 527" d="M58.765,391.22l3.037.176a.549.549,0,0,1,.353.274,10.955,10.955,0,0,1,.216,1.2c.078.921.176,1.842.333,2.743.059.411.078.823.118,1.215,0,.039-.02.1-.02.157a.49.49,0,0,1-.294.333,15.36,15.36,0,0,1-2.606-.02,14.893,14.893,0,0,0-3.37-.02h-.313a.568.568,0,0,1-.549-.451c-.118-.96-.333-1.92-.392-2.9-.02-.313-.118-.607-.157-.9a5.134,5.134,0,0,1-.1-1.528.333.333,0,0,1,.2-.216,1.312,1.312,0,0,1,.451-.078Z" transform="translate(-44.227 -314.55)" fill="none" stroke="#c6893f" stroke-miterlimit="10" stroke-width="0.196"/>
      <path id="Path_528" data-name="Path 528" d="M41.938,267.225l-1.7.078H38.705a.588.588,0,0,1-.451-.372,1.39,1.39,0,0,1-.039-.157c-.157-1.528-.313-3.076-.431-4.6a.274.274,0,0,1,.02-.157c.059-.078.1-.2.2-.235a1.234,1.234,0,0,1,.451-.078h5.682a1.314,1.314,0,0,1,.451.078,1.029,1.029,0,0,1,.216.2q.235,1.381.588,2.7a14.714,14.714,0,0,1,.353,1.979.392.392,0,0,1-.255.333l-.313.039c-.607.02-1.234.039-1.842.118a12.142,12.142,0,0,1-1.391.059h0" transform="translate(-30.378 -210.423)" fill="#d4e8e1"/>
      <path id="Path_529" data-name="Path 529" d="M65.024,435.151h2.724a.549.549,0,0,1,.549.431c.118.862.353,1.7.392,2.586a1.509,1.509,0,0,1-.02.451.353.353,0,0,1-.216.216,2.273,2.273,0,0,1-.764.078H62.927l-.764-.059a.588.588,0,0,1-.529-.47l-.078-.451c-.059-.353-.137-.705-.216-1.058a7.6,7.6,0,0,1-.157-1.215.47.47,0,0,1,.411-.529c.313-.02.607-.059.921-.059a22.488,22.488,0,0,1,2.508.078" transform="translate(-49.192 -349.82)" fill="#d7934a"/>
      <path id="Path_530" data-name="Path 530" d="M65.024,435.151h2.724a.549.549,0,0,1,.549.431c.118.862.353,1.7.392,2.586a1.509,1.509,0,0,1-.02.451.353.353,0,0,1-.216.216,2.273,2.273,0,0,1-.764.078H62.927l-.764-.059a.588.588,0,0,1-.529-.47l-.078-.451c-.059-.353-.137-.705-.216-1.058a7.6,7.6,0,0,1-.157-1.215.47.47,0,0,1,.411-.529c.313-.02.607-.059.921-.059A22.5,22.5,0,0,1,65.024,435.151Z" transform="translate(-49.192 -349.82)" fill="none" stroke="#c6893f" stroke-miterlimit="10" stroke-width="0.196"/>
      <path id="Path_531" data-name="Path 531" d="M161.455,217.589a3.747,3.747,0,0,1,.059-.451,19.1,19.1,0,0,0,.255-1.979,1.509,1.509,0,0,1,.118-.451.451.451,0,0,1,.314-.313l.451-.078a15.812,15.812,0,0,1,2.449-.039.47.47,0,0,1,.411.372,1.077,1.077,0,0,1,.02.157c-.059.666-.1,1.332-.216,1.979s-.2,1.411-.274,2.136-.118.921-.176,1.372a.549.549,0,0,1-.392.411,18.691,18.691,0,0,1-2.9.039.47.47,0,0,1-.372-.411,2.76,2.76,0,0,1,.02-.313,14.851,14.851,0,0,0,.274-2.43" transform="translate(-129.615 -172.268)" fill="#0d754c"/>
      <path id="Path_532" data-name="Path 532" d="M161.455,217.589a3.747,3.747,0,0,1,.059-.451,19.1,19.1,0,0,0,.255-1.979,1.509,1.509,0,0,1,.118-.451.451.451,0,0,1,.314-.313l.451-.078a15.812,15.812,0,0,1,2.449-.039.47.47,0,0,1,.411.372,1.077,1.077,0,0,1,.02.157c-.059.666-.1,1.332-.216,1.979s-.2,1.411-.274,2.136-.118.921-.176,1.372a.549.549,0,0,1-.392.411,18.691,18.691,0,0,1-2.9.039.47.47,0,0,1-.372-.411,2.76,2.76,0,0,1,.02-.313A14.852,14.852,0,0,0,161.455,217.589Z" transform="translate(-129.615 -172.268)" fill="none" stroke="#0d744b" stroke-miterlimit="10" stroke-width="0.196"/>
      <path id="Path_533" data-name="Path 533" d="M159.171,265.536h-1.528a.372.372,0,0,1-.294-.294,9.972,9.972,0,0,1,.1-1.979l.294-2.43a.431.431,0,0,1,.314-.294h.157l2.763-.039h.157a.431.431,0,0,1,.314.294,18.105,18.105,0,0,1-.118,2.763c-.039.509-.137,1.019-.2,1.528a.549.549,0,0,1-.529.451H159.23" transform="translate(-126.508 -209.459)" fill="#0d754c"/>
      <path id="Path_534" data-name="Path 534" d="M159.171,265.536h-1.528a.372.372,0,0,1-.294-.294,9.972,9.972,0,0,1,.1-1.979l.294-2.43a.431.431,0,0,1,.314-.294h.157l2.763-.039h.157a.431.431,0,0,1,.314.294,18.105,18.105,0,0,1-.118,2.763c-.039.509-.137,1.019-.2,1.528a.549.549,0,0,1-.529.451h-1.43Z" transform="translate(-126.508 -209.459)" fill="none" stroke="#0d744b" stroke-miterlimit="10" stroke-width="0.196"/>
      <path id="Path_535" data-name="Path 535" d="M135.1,365.4c.039-.529.059-.843.078-1.156a8.818,8.818,0,0,1,.627-2.841c.078-.2.176-.372.235-.568a7.269,7.269,0,0,1,1.842-2.822,10.113,10.113,0,0,0,.843-.9,4.036,4.036,0,0,1,1.176-.98,16.227,16.227,0,0,1,4.1-1.783,7.718,7.718,0,0,1,1.058-.216l.451-.059a11.37,11.37,0,0,1,2.449-.176,9.386,9.386,0,0,1,2.136.255l.431.137a13.247,13.247,0,0,1,3.1,1.724,5.154,5.154,0,0,1,1,.96c.372.49.764.98,1.117,1.489a9.425,9.425,0,0,1,1.293,2.8,8.524,8.524,0,0,1,.333,3.213c-.078.725-.137,1.43-.255,2.136a11.992,11.992,0,0,1-2.371,5.467,7.348,7.348,0,0,1-2.7,2.234l-1.391.666a10.816,10.816,0,0,1-2.194.705l-.451.059a12.2,12.2,0,0,1-4.134-.216,11.881,11.881,0,0,1-2.8-.862,7.66,7.66,0,0,1-1.979-1.176c-.47-.392-.941-.8-1.391-1.234a3.31,3.31,0,0,1-.411-.47,14.245,14.245,0,0,1-.921-1.43,7.8,7.8,0,0,1-.725-1.7,5.152,5.152,0,0,0-.157-.588,6.1,6.1,0,0,1-.353-2.586V365.4m2.528.059a4.761,4.761,0,0,0,.314,2.1c.059.137.059.314.118.451a6.4,6.4,0,0,0,1.822,2.8l.568.509a5.781,5.781,0,0,0,1.685,1.058,12.482,12.482,0,0,0,3.272.862,7.681,7.681,0,0,0,4.369-.647l1.254-.607a4.643,4.643,0,0,0,1.332-1.038,8.915,8.915,0,0,0,1.92-3.488,9.444,9.444,0,0,0,.431-2.273c.02-.353.1-.705.118-1.078a3.49,3.49,0,0,0,.02-.607,7.838,7.838,0,0,0-.8-2.959c-.216-.411-.49-.784-.745-1.176a5.76,5.76,0,0,0-2.136-1.959l-.96-.509a3.683,3.683,0,0,0-1.626-.411,16.482,16.482,0,0,0-1.7,0,10.561,10.561,0,0,0-3.605.745c-.529.216-1.019.509-1.528.745a2.371,2.371,0,0,0-1.038.882,2.077,2.077,0,0,1-.568.529,5.27,5.27,0,0,0-1.8,2.449l-.157.431a7.093,7.093,0,0,0-.529,2.39c0,.2-.02.411-.039.784" transform="translate(-108.629 -284.558)"/>
      <path id="Path_536" data-name="Path 536" d="M148,376.094c.02-.372.039-.588.039-.784a7.093,7.093,0,0,1,.529-2.39l.157-.431a5.271,5.271,0,0,1,1.8-2.449,2.077,2.077,0,0,0,.568-.529,2.371,2.371,0,0,1,1.038-.882c.509-.235,1-.529,1.528-.745a10.561,10.561,0,0,1,3.605-.745q.852-.029,1.7,0a3.683,3.683,0,0,1,1.626.411l.96.509a5.761,5.761,0,0,1,2.136,1.959c.235.392.529.764.745,1.176a7.837,7.837,0,0,1,.8,2.959,3.487,3.487,0,0,1-.02.607,9.542,9.542,0,0,0-.118,1.078,9.446,9.446,0,0,1-.431,2.273,8.916,8.916,0,0,1-1.92,3.488,4.644,4.644,0,0,1-1.332,1.038l-1.254.607a7.681,7.681,0,0,1-4.369.647,12.479,12.479,0,0,1-3.272-.862,5.781,5.781,0,0,1-1.685-1.058l-.568-.509a6.512,6.512,0,0,1-1.822-2.8c-.059-.137-.059-.314-.118-.451a4.761,4.761,0,0,1-.313-2.1" transform="translate(-119.001 -295.192)" fill="#00643c"/>
      <path id="Path_537" data-name="Path 537" d="M147.951,376.094c.02-.372.039-.588.039-.784a7.093,7.093,0,0,1,.529-2.39l.157-.431a5.271,5.271,0,0,1,1.8-2.449,2.077,2.077,0,0,0,.568-.529,2.371,2.371,0,0,1,1.038-.882c.509-.235,1-.529,1.528-.745a10.561,10.561,0,0,1,3.605-.745q.852-.029,1.7,0a3.683,3.683,0,0,1,1.626.411l.96.509a5.761,5.761,0,0,1,2.136,1.959c.235.392.529.764.745,1.176a7.838,7.838,0,0,1,.8,2.959,3.487,3.487,0,0,1-.02.607,9.542,9.542,0,0,0-.118,1.078,9.445,9.445,0,0,1-.431,2.273,8.916,8.916,0,0,1-1.92,3.488,4.644,4.644,0,0,1-1.332,1.038l-1.254.607a7.681,7.681,0,0,1-4.369.647,12.479,12.479,0,0,1-3.272-.862,5.781,5.781,0,0,1-1.685-1.058l-.568-.509a6.512,6.512,0,0,1-1.822-2.8c-.059-.137-.059-.314-.118-.451A4.761,4.761,0,0,1,147.951,376.094Z" transform="translate(-118.952 -295.192)" fill="none" stroke="#006341" stroke-miterlimit="10" stroke-width="0.196"/>
    </g>
  </g>
</svg>
