<svg xmlns="http://www.w3.org/2000/svg" xmlns:xlink="http://www.w3.org/1999/xlink" width="101.256" height="65.036" viewBox="0 0 101.256 65.036">
  <defs>
    <clipPath id="clip-path">
      <rect id="Rectangle_13" data-name="Rectangle 13" width="65.036" height="101.256" fill="none"/>
    </clipPath>
  </defs>
  <g id="SBUX_CUP1" transform="translate(50.628 32.518) rotate(90)">
    <g id="Group_31" data-name="Group 31" transform="translate(-32.518 -50.628)" clip-path="url(#clip-path)">
      <path id="Path_492" data-name="Path 492" d="M28.526,101.024h-1.21a17.558,17.558,0,0,1-2.148-.1,10.752,10.752,0,0,0-1.21-.051h-5.1c-.852.017-1.7-.068-2.557-.1-2.557-.119-3.989-.256-5.37-.222H10.54a1.756,1.756,0,0,1-1.091-.46,1.5,1.5,0,0,1-.511-.921c-.051-.443-.153-.886-.2-1.33-.1-.886-.341-1.756-.375-2.659a2.148,2.148,0,0,0-.068-.392c-.256-1.04-.358-2.114-.58-3.171a4.108,4.108,0,0,1-.051-.528,23.065,23.065,0,0,0-.256-2.4,1.807,1.807,0,0,1-.034-.273c-.051-1.517-.324-3.034-.375-4.552a3.733,3.733,0,0,0-.034-.409c-.136-1.074-.188-2.148-.256-3.2-.017-.17-.034-.358-.051-.528A18.088,18.088,0,0,1,6.5,77.839a12.82,12.82,0,0,0-.136-1.6,11.235,11.235,0,0,1-.1-1.21c-.051-.8-.085-1.6-.188-2.4-.051-.358-.051-.716-.085-1.074s-.051-.716-.085-1.074c-.1-.8-.153-1.6-.188-2.4a16.2,16.2,0,0,0-.153-1.739,8.029,8.029,0,0,1-.068-.8c-.034-.665-.068-1.347-.1-2.012a3.085,3.085,0,0,0-.017-.409c-.17-.886-.136-1.79-.239-2.676s-.2-2.046-.273-3.069a2.25,2.25,0,0,0-.034-.273,18.651,18.651,0,0,1-.2-2.4c-.017-.358-.034-.716-.085-1.074s-.119-1.074-.153-1.6a13.741,13.741,0,0,0-.2-1.875,5.949,5.949,0,0,1-.085-.8,10.365,10.365,0,0,0-.17-1.33,4.944,4.944,0,0,1-.085-.665c-.034-.58-.051-1.159-.085-1.739s-.1-1.159-.119-1.739c-.017-1.159-.051-2.336-.1-3.495a.341.341,0,0,0-.222-.307l-.256-.085a6,6,0,0,0-1.074-.085l-.938-.034a1.159,1.159,0,0,1-.716-.324,1.023,1.023,0,0,1-.324-.852.938.938,0,0,1,.034-.273C.346,37.522.516,36.6.806,35.7a21.122,21.122,0,0,0,.614-2.336,1.4,1.4,0,0,1,.2-.494,1.108,1.108,0,0,1,.153-.222,3.273,3.273,0,0,1,1.04-.6A.784.784,0,0,1,3.074,32H3.6l1.6.051a3.716,3.716,0,0,1,1.057.136,3.716,3.716,0,0,0,1.057.119.426.426,0,0,0,.426-.426v-.273c.017-.307.034-.631.051-.938a13.058,13.058,0,0,1,.2-1.6q.256-1.313.528-2.625a14.9,14.9,0,0,1,1.006-3.052c.341-.784.733-1.534,1.125-2.284a7.5,7.5,0,0,1,.409-.7l.955-1.449c.17-.256.358-.511.546-.767a27.481,27.481,0,0,1,2.318-2.506,8.865,8.865,0,0,1,.921-.784q1.244-.921,2.574-1.722c.494-.307,1.006-.58,1.483-.938a1.023,1.023,0,0,1,.631-.188l2.949.068c.443.017.886.068,1.347.1a20.816,20.816,0,0,0,2.421.1c1.432-.034,2.864.017,4.3.034h2.4a.511.511,0,0,0,.409-.307c.017-.085.051-.17.068-.256s.051-.443.085-.665.085-.614.136-.938c.1-.716.2-1.415.375-2.114.239-1.057.341-2.114.511-3.188s.307-1.943.494-2.915c.051-.307.085-.614.153-.921a2.1,2.1,0,0,1,.188-.494A1.006,1.006,0,0,1,37.186,0h.409a9.561,9.561,0,0,0,1.21.017,4.177,4.177,0,0,1,.8.034c.58.1,1.142.188,1.722.256a2.012,2.012,0,0,1,.75.273.989.989,0,0,1,.511.75,2.165,2.165,0,0,1,.034.392c-.017.443-.051.886-.085,1.347a1.636,1.636,0,0,1-.051.392c-.188.563-.2,1.142-.358,1.7a3.631,3.631,0,0,0-.119.665c-.051.631-.17,1.244-.222,1.858-.119,1.159-.29,2.3-.46,3.461a5.744,5.744,0,0,0-.085,1.074.375.375,0,0,0,.341.341l.409.034,1.739.034a16.638,16.638,0,0,1,2.54.17l.409.034a2.935,2.935,0,0,1,.938.1c.307.119.921.341,1.364.563a13.467,13.467,0,0,1,3,2.216,6.128,6.128,0,0,0,.6.546,12.036,12.036,0,0,1,1.807,1.978c.324.426.682.835.989,1.279a16.332,16.332,0,0,1,1.5,2.694l.665,1.466.153.375c.392,1.057.767,2.1,1.108,3.171a4.8,4.8,0,0,1,.119.528c.034.188.153.784.273,1.176a8.558,8.558,0,0,1,.341,2.25.784.784,0,0,0,.017.136c.136.75.2,1.5.273,2.267a.46.46,0,0,0,.375.324h2.557a1.074,1.074,0,0,1,.494.17,1.6,1.6,0,0,1,.733.938c.222.869.494,1.722.631,2.608a10.227,10.227,0,0,0,.324,1.3,3.034,3.034,0,0,1-.017,1.585.972.972,0,0,1-.716.733,11.167,11.167,0,0,1-2.25.409c-.8.051-1.6.1-2.421.1l-1.074.034a1.909,1.909,0,0,0-.392.1.29.29,0,0,0-.188.17,3.512,3.512,0,0,0-.2.921c-.1.75-.17,1.517-.307,2.267a9.837,9.837,0,0,0-.085,1.074,6.462,6.462,0,0,1-.068.8c-.17.835-.188,1.688-.29,2.54s-.222,1.688-.341,2.523a4.366,4.366,0,0,0-.051.665c-.034.716-.1,1.432-.188,2.148s-.085,1.074-.119,1.6-.068,1.347-.136,2.012-.1,1.347-.136,2.012a20.005,20.005,0,0,1-.17,2.012,8.671,8.671,0,0,0-.068.938,5.842,5.842,0,0,1-.1.938,13.931,13.931,0,0,0-.188,1.6,7.279,7.279,0,0,1-.1.8c-.085.392-.119.8-.17,1.193s-.085.614-.136.938a3.488,3.488,0,0,0-.085.528c-.085,1.125-.341,2.216-.511,3.324-.119.835-.307,1.671-.375,2.523-.051.494-.2.972-.239,1.449s-.222,1.227-.273,1.858a16.855,16.855,0,0,1-.29,1.858c-.119.614-.188.972-.29,1.449-.273,1.449-.528,2.9-.8,4.364s-.6,3.256-.938,4.876c-.222,1.057-.409,2.114-.631,3.154-.068.358-.153.7-.239,1.04-.256,1.142-.494,2.267-.8,3.392q-.188.648-.375,1.279a2,2,0,0,1-.17.358,1.057,1.057,0,0,1-.733.546,12.653,12.653,0,0,1-1.33.188,4.928,4.928,0,0,1-.938-.017,14.117,14.117,0,0,0-2.284-.034H42.641c-.358,0-.716-.017-1.074.017a17.984,17.984,0,0,1-2.421-.017c-.8-.051-1.62-.017-2.421,0-.546,0-1.074,0-1.62-.017H31.492c-.665,0-1.347-.017-2.012-.068l-.938-.051h0M19.115,22.588l.1-.034c.017-.017.017-.034.034-.051s-.085.034-.085.119a.324.324,0,0,0-.256.068,16.639,16.639,0,0,0-1.892,1.892,5.592,5.592,0,0,1-1.5,1.313l-.1.085a.716.716,0,0,0-.239.324c-.1.341-.2.682-.29,1.04q-.256,1.108-.563,2.2c-.153.511-.29,1.04-.426,1.551a5.438,5.438,0,0,0-.17,1.33.392.392,0,0,0,.034.119.29.29,0,0,0,.188.17l.119.034,1.739.1a.409.409,0,0,0,.409-.273,13.28,13.28,0,0,0,.477-2.216,17.832,17.832,0,0,1,.494-2.216,33.532,33.532,0,0,1,1.415-3.9c.17-.409.358-.818.511-1.244a1.3,1.3,0,0,0,.017-.392m2.847,18.531h0l-1.739-.051-3.495-.2-1.483-.051-.392.034a.443.443,0,0,0-.273.256,9.6,9.6,0,0,0-.085,1.739c.034.409.034.8.051,1.21.051,1.074.034,2.148.136,3.222s.17,2.318.239,3.478a7.672,7.672,0,0,0,.068.8c.119.8.153,1.6.2,2.4a8.669,8.669,0,0,0,.068.938,19.571,19.571,0,0,1,.153,2.012c.034,1.432.1,2.864.222,4.3s.153,2.421.222,3.614c.051.767.068,1.517.1,2.284.068,1.3.034,2.591.188,3.887a3.285,3.285,0,0,1,.017.409c.017.9.051,1.79.068,2.694s.051,1.432.068,2.148.136,1.875.188,2.813c.017.494.051.989.1,1.466a22.128,22.128,0,0,1,.153,2.284,12.377,12.377,0,0,0,.068,1.347c.1.852.136,1.688.188,2.54a17.979,17.979,0,0,0,.222,2.4,1.91,1.91,0,0,1,.017.273c.034.9.136,1.79.222,2.676s.119,1.96.307,2.932.29,2.046.443,3.052a1.33,1.33,0,0,0,.068.256.58.58,0,0,0,.136.239.46.46,0,0,0,.239.085,16.96,16.96,0,0,0,2.012.051c1.7-.051,3.41-.034,5.1.068H28.2a9.034,9.034,0,0,1,1.466.1,9.222,9.222,0,0,0,1.466.085h2.421l8.063.034c1.568,0,3.137-.051,4.705,0h.546a.58.58,0,0,0,.477-.409c.426-1.5.75-3.034,1.074-4.569.068-.341.136-.7.2-1.057.222-.955.409-1.926.614-2.9.136-.665.2-1.33.358-1.978s.239-1.33.375-1.978c.222-1.091.409-2.2.614-3.307.136-.8.307-1.585.46-2.37s.256-1.313.341-1.978.153-1.159.256-1.722.222-1.227.29-1.858c.188-1.466.477-2.915.7-4.381.034-.222.085-.443.1-.665.068-.989.324-1.943.375-2.932a21.581,21.581,0,0,1,.426-3.188,6.239,6.239,0,0,0,.051-.8c.034-.409.034-.8.085-1.21a26.01,26.01,0,0,0,.2-2.813,6.922,6.922,0,0,1,.051-.8,14.319,14.319,0,0,0,.136-1.875c.051-1.517.307-3.034.375-4.552a1.7,1.7,0,0,1,.034-.273c.17-1.193.341-2.387.426-3.6a5.233,5.233,0,0,1,.068-.528,18.347,18.347,0,0,0,.2-1.875,8.95,8.95,0,0,1,.119-1.074,17.455,17.455,0,0,0,.239-2.131.29.29,0,0,0-.256-.256h-.8c-1.654.017-3.307.051-4.978.051L39.811,41.9c-1.023,0-2.063,0-3.086-.034s-2.148,0-3.222-.136h-.136l-2.148-.068a18.021,18.021,0,0,1-1.875-.119l-.8-.068c-1.568-.051-3.137-.153-4.688-.273l-1.875-.119m-12.8-.75L6.3,40.181a1.176,1.176,0,0,0-.256.034.392.392,0,0,0-.256.273A11.3,11.3,0,0,0,5.8,42.5a17.255,17.255,0,0,1,.085,1.875c0,.631.034,1.432.068,2.148a5.131,5.131,0,0,0,.085.8,13.314,13.314,0,0,1,.188,1.6,6.58,6.58,0,0,0,.085.8,11.746,11.746,0,0,1,.17,1.6c.034.409.051.8.1,1.21a19.592,19.592,0,0,1,.17,2.012A12.189,12.189,0,0,0,6.841,55.9c.119.75.153,1.517.2,2.267.017.273.034.546.068.8.1.665.136,1.33.188,2.012q.026.537.1,1.074a10.587,10.587,0,0,1,.119,1.466A19.742,19.742,0,0,0,7.676,65.8c.085.631.119,1.244.153,1.875s.068,1.244.153,1.875c.051.358.068.716.1,1.074.034.716.119,1.432.2,2.131s.1,1.517.153,2.284c.017.222.051.443.085.665s.085.886.119,1.33.068,1.347.17,2.012A10.484,10.484,0,0,1,8.9,80.124c.034.767.085,1.517.188,2.267a6.427,6.427,0,0,1,.068.8c.017,1.62.324,3.2.375,4.824a1.466,1.466,0,0,0,.034.273,15.906,15.906,0,0,1,.188,1.6c.068.528.153,1.057.222,1.6.017.136.017.273.034.409a4.21,4.21,0,0,0,.068.528c.153.648.17,1.33.375,1.978a1.654,1.654,0,0,1,.051.392c.051.9.273,1.773.375,2.659a3.955,3.955,0,0,0,.17.648.494.494,0,0,0,.307.239l2.284.119,1.6.051.409-.034a.375.375,0,0,0,.256-.273,3.273,3.273,0,0,0-.017-.392,14.255,14.255,0,0,1-.239-1.449c-.085-1.023-.29-2.046-.341-3.069a3.1,3.1,0,0,0-.051-.392,13.058,13.058,0,0,1-.153-1.739,14.387,14.387,0,0,0-.1-1.466,19.593,19.593,0,0,1-.17-2.012c-.017-.358-.034-.716-.085-1.074-.1-.75-.119-1.517-.17-2.267s-.051-1.074-.068-1.6a7.553,7.553,0,0,0-.051-.8,29.6,29.6,0,0,1-.222-3.222c-.017-.546-.051-1.074-.119-1.6a12.512,12.512,0,0,1-.085-1.466c-.017-1.381-.068-2.779-.153-4.16-.051-.8-.085-1.6-.1-2.421-.017-1.262-.034-2.506-.17-3.75-.051-.494-.085-.989-.1-1.466a25.759,25.759,0,0,0-.2-2.949,4.415,4.415,0,0,1-.034-.528c-.017-.767-.034-1.517-.068-2.284s-.034-1.262-.1-1.875-.136-1.33-.153-2.012a13.5,13.5,0,0,0-.136-1.739,10.467,10.467,0,0,1-.119-1.466,14.252,14.252,0,0,0-.136-1.875,4.367,4.367,0,0,1-.051-.665c-.034-.886-.068-1.79-.119-2.676s-.068-1.79-.136-2.676a5.4,5.4,0,0,1,0-1.074c.017-.17.034-.358.051-.528a1.407,1.407,0,0,0,0-.273.511.511,0,0,0-.392-.477c-.972-.1-1.96-.239-2.762-.256M46.016,28.128a.921.921,0,0,1-.153-.528c0-.17.017-.358.017-.528s.034-.358.017-.528-.051-.8-.1-1.193a.494.494,0,0,0-.2-.341,3.239,3.239,0,0,0-.443-.307c-.818-.443-1.7-.784-2.557-1.193a.682.682,0,0,0-.528-.017,11.626,11.626,0,0,1-1.551.409,6.972,6.972,0,0,0-1.517.511l-.614.273a1.091,1.091,0,0,1-.392.068l-.8-.051a1.517,1.517,0,0,1-.511-.153,7.125,7.125,0,0,0-.955-.477,14.353,14.353,0,0,1-1.347-.614,8.95,8.95,0,0,1-2.131-1.4,7.33,7.33,0,0,0-1.756-1.21,2.745,2.745,0,0,1-.341-.222l-.222-.136a.426.426,0,0,0-.392-.017A24.924,24.924,0,0,0,26.463,22.4l-1.193.852a1.057,1.057,0,0,1-.648.153.955.955,0,0,1-.6-.222l-.989-.9a1.483,1.483,0,0,0-.716-.358.136.136,0,0,0-.119.034,1.721,1.721,0,0,0-.239.307A35.817,35.817,0,0,0,19.456,28.2a13.092,13.092,0,0,0-.6,2.608,4.537,4.537,0,0,1-.119.665L18.5,32.663a.2.2,0,0,0,.017.136c.051.068.085.17.153.2a1.023,1.023,0,0,0,.392.085h2.148a7.245,7.245,0,0,1,1.347.085,12.1,12.1,0,0,0,2.012.153l3.887.1h.273a23.415,23.415,0,0,0,2.676.1c.886.017,1.432-.017,2.148.017l2.012.034,4.569.051a4.926,4.926,0,0,1,.665.034,13.519,13.519,0,0,0,2.012.1l.938.034,2.012.068c.58.017,1.159.034,1.739.068a38.834,38.834,0,0,0,4.023.119l2.676-.1h.136a.341.341,0,0,0,.256-.392c-.2-.631-.409-1.279-.631-1.909a6.939,6.939,0,0,0-.546-1.227l-.153-.222a.529.529,0,0,0-.358-.136,12.341,12.341,0,0,0-1.279.409,6.547,6.547,0,0,0-.75.273.75.75,0,0,1-.528-.017l-.256-.085a15.941,15.941,0,0,1-1.773-.938,5.233,5.233,0,0,1-.767-.546,7.075,7.075,0,0,0-1.108-.75l-.426-.29m.29,11.643c.75-.017,1.739-.017,2.728.017h.938l4.432-.068c.273,0,.546,0,.8-.017.8-.085,1.6-.085,2.421-.1l3.086-.068c.409-.017.8-.051,1.21-.085a3.153,3.153,0,0,0,.511-.136A.29.29,0,0,0,62.621,39c-.085-.443-.188-.869-.273-1.313a10.041,10.041,0,0,0-.358-1.3.375.375,0,0,0-.29-.239l-.392-.051a33.906,33.906,0,0,0-4.16.119,5.217,5.217,0,0,1-.665.017H48.966a11.047,11.047,0,0,1-1.347-.068,16.672,16.672,0,0,0-2.421-.136c-.307,0-.631,0-.938-.017-.716-.051-1.432-.051-2.148-.051a12.785,12.785,0,0,1-1.347-.068l-1.21-.085c-1.654-.051-3.307-.1-4.978-.085-1.347.017-2.694-.017-4.023-.034-.989-.017-1.978-.034-2.949-.1q-1.943-.153-3.887-.153a7.331,7.331,0,0,1-1.466-.119,5.9,5.9,0,0,0-1.21-.085c-1.125,0-2.233,0-3.358-.1a8.606,8.606,0,0,0-.938-.017A6.955,6.955,0,0,1,15.416,35H15.28a.426.426,0,0,0-.392.307,9.393,9.393,0,0,1-.358,1.432,4.586,4.586,0,0,0-.153.511c-.051.256-.085.528-.119.8a.358.358,0,0,0,.273.392,11.643,11.643,0,0,0,1.466.17l1.6.085,1.62.051,1.6.119,3.495.153,1.347.085c.886.085,1.79.153,2.676.153a14.865,14.865,0,0,1,1.875.136,9.871,9.871,0,0,0,1.074.085c1.483.034,2.949.119,4.432.119a7.279,7.279,0,0,1,.938.034,16.725,16.725,0,0,0,2.148.085h7.484M43.221,14.848l-.989-.085-1.074-.034a.528.528,0,0,0-.307.239,2.694,2.694,0,0,0-.119.375c-.119.835-.239,1.688-.358,2.523-.051.358-.1.7-.17,1.057a2.91,2.91,0,0,0-.085.665c-.034.58-.1,1.159-.188,1.739a.9.9,0,0,0,.017.136.29.29,0,0,0,.29.222,3.222,3.222,0,0,0,1.125-.392,1.671,1.671,0,0,1,.375-.136,1.006,1.006,0,0,1,.528-.034A6.58,6.58,0,0,1,43.8,21.6c.8.392,1.637.716,2.438,1.125a2.182,2.182,0,0,1,.358.188l1.057.818a1.057,1.057,0,0,1,.341.563,2.455,2.455,0,0,1,.068.392c.017.17.017.358.017.528.034.443.051.886.085,1.347a.545.545,0,0,0,.17.358,17.491,17.491,0,0,0,2.046,1.5.29.29,0,0,0,.256.034,7.382,7.382,0,0,0,1.142-.409,8.371,8.371,0,0,1,1.943-.511.6.6,0,0,1,.256.034,1.227,1.227,0,0,1,.75.528,5.575,5.575,0,0,1,.341.58c.17.358.324.733.511,1.091a13.485,13.485,0,0,1,.665,1.62l.7,2.029a1.04,1.04,0,0,0,.188.358.246.246,0,0,0,.426-.1,2.693,2.693,0,0,0-.017-1.057,5.165,5.165,0,0,1-.153-1.057,9.4,9.4,0,0,0-.358-2.387,3.32,3.32,0,0,1-.1-.392,13.963,13.963,0,0,0-.631-2.182q-.563-1.585-1.227-3.12a14.439,14.439,0,0,0-2.131-3.563l-.494-.631a8.763,8.763,0,0,0-1.006-1.091l-.886-.818a11.593,11.593,0,0,0-2.642-1.858,8.132,8.132,0,0,0-1.4-.443,25.707,25.707,0,0,0-2.813-.222H43.2m-22.3-.563a31.829,31.829,0,0,0-3.29,2.029c-.29.2-.58.426-.852.648a23.51,23.51,0,0,0-2.711,2.966,25.844,25.844,0,0,0-2.114,3.58,16.417,16.417,0,0,0-1.415,4.313c-.119.614-.256,1.227-.375,1.841a2.353,2.353,0,0,0-.068.392c-.017.665-.1,1.33-.085,2.012a.665.665,0,0,0,.051.256.409.409,0,0,0,.188.188,1.432,1.432,0,0,0,.665.051.477.477,0,0,0,.392-.307c.29-1.074.563-2.165.852-3.239.2-.784.426-1.551.6-2.336a12.615,12.615,0,0,1,.546-1.79,1.3,1.3,0,0,1,.7-.767l.119-.051a2.676,2.676,0,0,0,1.159-.869,15,15,0,0,1,1.193-1.279l1.432-1.415a19.485,19.485,0,0,1,2.046-1.756A.955.955,0,0,1,20.7,18.6l.392.1.375.119a.341.341,0,0,0,.256-.051,4.177,4.177,0,0,0,.7-.631,15.343,15.343,0,0,1,3.2-2.421l1.159-.665.2-.17a.256.256,0,0,0,.085-.239c0-.017-.068-.051-.1-.051l-.665-.051c-.852-.034-1.7-.068-2.54-.17a21.565,21.565,0,0,0-2.847-.068M7.2,38l1.074.085L9.6,38.2l1.995.136a.358.358,0,0,0,.307-.2,2.114,2.114,0,0,0,.2-.631,12.53,12.53,0,0,1,.375-1.551l.153-.511a.528.528,0,0,0,0-.256.375.375,0,0,0-.153-.2,1.6,1.6,0,0,0-.784-.17c-.8-.017-1.6-.017-2.4-.1s-1.858-.17-2.8-.256a6.069,6.069,0,0,1-.784-.119,6.529,6.529,0,0,0-1.995-.085.239.239,0,0,0-.2.153,1.347,1.347,0,0,0-.119.239c-.17.7-.392,1.364-.6,2.046-.068.2-.1.426-.153.648s.068.324.29.341c1.415.17,2.847.256,4.262.324m26.27-20.934.068-.341.307-1.585a.443.443,0,0,0-.341-.494,1.756,1.756,0,0,0-.8-.017,5.523,5.523,0,0,0-1.023.307A20.048,20.048,0,0,0,28.8,16.383c-.716.443-1.449.869-2.2,1.3a7.662,7.662,0,0,0-2.353,1.756l-.375.375a.239.239,0,0,0,0,.341l.648.477a.511.511,0,0,0,.631,0c1.159-.852,2.4-1.551,3.631-2.3a2.1,2.1,0,0,1,1.3-.239l.256.068a2.625,2.625,0,0,1,.7.392,4.91,4.91,0,0,0,.784.528l.955.477c.1.051.273-.051.307-.17a9.206,9.206,0,0,0,.307-1.722c.017-.222.051-.443.068-.6m3.239-5.881-.1.972a.443.443,0,0,0,.307.392,8.251,8.251,0,0,0,1.6,0,.614.614,0,0,0,.443-.443,3.544,3.544,0,0,0,.051-.392,10.262,10.262,0,0,1,.2-1.466,7.332,7.332,0,0,0,.1-.8,6.477,6.477,0,0,1,.085-.665,10.124,10.124,0,0,0,.17-1.33,29.442,29.442,0,0,1,.716-4.364c.017-.085.017-.17.034-.273a.392.392,0,0,0-.29-.392l-.921-.2a1.637,1.637,0,0,0-.665.017.392.392,0,0,0-.2.153,1.023,1.023,0,0,0-.17.358c-.136.7-.273,1.4-.375,2.114-.17,1.244-.324,2.489-.58,3.716-.153.75-.29,1.5-.375,2.25l-.068.358m.6,3.392-.852.068a.477.477,0,0,0-.29.256l-.1.528c-.2,1.091-.46,2.182-.563,3.29a4.739,4.739,0,0,1-.1.528l-.324,1.568a.6.6,0,0,0,.341.665,5.677,5.677,0,0,0,.955.477l.886.307a.341.341,0,0,0,.375-.273c.034-.273.085-.528.1-.8.068-.886.188-1.773.341-2.659s.256-1.943.426-2.915a5.134,5.134,0,0,0,.051-.528v-.136a.392.392,0,0,0-.341-.341l-.886-.034" transform="translate(0.012 0)"/>
      <path id="Path_493" data-name="Path 493" d="M7.492.256,9.368.375c1.568.119,3.12.222,4.688.273l.8.068a18.073,18.073,0,0,0,1.875.119L18.88.9h.136c1.074.136,2.148.085,3.222.136s2.063.034,3.086.034l9.683.034c1.654,0,3.307-.034,4.978-.051h.8a.29.29,0,0,1,.256.256A17.474,17.474,0,0,1,40.8,3.444a8.967,8.967,0,0,0-.119,1.074,18.393,18.393,0,0,1-.2,1.875,5.22,5.22,0,0,0-.068.528c-.1,1.21-.256,2.4-.426,3.6a1.325,1.325,0,0,0-.034.273c-.085,1.517-.324,3.034-.375,4.552a14.251,14.251,0,0,1-.136,1.875,6.956,6.956,0,0,0-.051.8c-.051.938-.085,1.875-.2,2.813-.051.392-.068.8-.085,1.21a6.235,6.235,0,0,1-.051.8c-.2,1.057-.188,2.148-.426,3.188a17.938,17.938,0,0,0-.375,2.932c-.017.222-.068.443-.1.665-.222,1.466-.511,2.915-.7,4.381-.085.614-.188,1.244-.29,1.858s-.17,1.142-.256,1.722-.222,1.33-.341,1.978-.307,1.585-.46,2.37c-.2,1.108-.392,2.2-.614,3.307-.136.665-.2,1.33-.375,1.978s-.239,1.33-.358,1.978c-.188.972-.392,1.926-.614,2.9-.085.358-.136.7-.2,1.057-.324,1.534-.648,3.069-1.074,4.569a.58.58,0,0,1-.477.409h-.528c-1.568-.051-3.137,0-4.705,0L19.085,58.1H16.647a9.226,9.226,0,0,1-1.466-.085,9.056,9.056,0,0,0-1.466-.1H11.277c-1.7-.1-3.41-.119-5.1-.068a16.962,16.962,0,0,1-2.012-.051.46.46,0,0,1-.239-.085.58.58,0,0,1-.136-.239,1.313,1.313,0,0,1-.068-.256c-.153-1.023-.392-2.029-.443-3.052s-.2-1.96-.307-2.932-.17-1.79-.222-2.676a1.909,1.909,0,0,0-.017-.273,22.9,22.9,0,0,1-.222-2.4c-.068-.8-.085-1.7-.188-2.54a12.379,12.379,0,0,1-.068-1.347A22.123,22.123,0,0,0,2.105,39.7,14.454,14.454,0,0,1,2,38.238a22.272,22.272,0,0,0-.188-2.813,11.86,11.86,0,0,1-.068-2.148c-.017-.716-.051-1.79-.068-2.694a3.284,3.284,0,0,0-.017-.409c-.153-1.3-.119-2.591-.188-3.887-.034-.767-.068-1.517-.1-2.284-.068-1.21-.119-2.421-.222-3.614s-.188-2.864-.222-4.3a19.553,19.553,0,0,0-.153-2.012c-.034-.307-.034-.631-.068-.938a22.857,22.857,0,0,0-.2-2.4,7.686,7.686,0,0,1-.068-.8C.383,8.779.315,7.62.2,6.461S.111,4.313.06,3.239c-.017-.409-.017-.8-.051-1.21A9.58,9.58,0,0,1,.094.29.443.443,0,0,1,.366.034L.759,0,2.242.051l3.495.2L7.475.307h0M7,25.179a20.661,20.661,0,0,0,.477,4.262,10.432,10.432,0,0,0,.256,1.04c.222.682.46,1.347.75,2.012a7.552,7.552,0,0,0,.7,1.3,6.171,6.171,0,0,0,.58.733c.222.222.426.46.631.7a4.944,4.944,0,0,0,1.091.989,27.329,27.329,0,0,0,2.813,1.824,7.553,7.553,0,0,0,2.165,1.057,2.83,2.83,0,0,1,.494.222,3.461,3.461,0,0,0,.9.273,9.053,9.053,0,0,0,1.995.171h.955c.8-.017,1.6-.188,2.4-.273a12.428,12.428,0,0,0,7.774-5.336A12.241,12.241,0,0,0,32.5,31.163l.17-.511a14.149,14.149,0,0,0,.8-3.256,4.842,4.842,0,0,1,.085-.528,7.058,7.058,0,0,0,.136-1.466c0-.665-.017-1.347-.034-2.012a12.309,12.309,0,0,0-.222-1.466,10.228,10.228,0,0,0-.563-2.063,13.909,13.909,0,0,0-1.125-2.284,6.8,6.8,0,0,0-1.96-2.182L28.052,14.2l-.358-.188a13.16,13.16,0,0,0-2.779-.989,11.133,11.133,0,0,0-2.25-.358L22,12.632a22.791,22.791,0,0,0-2.421.051c-1.006.17-2.046.256-3.052.494a9.767,9.767,0,0,0-3.682,1.551c-.256.188-.528.341-.784.511l-1.108.767a7.6,7.6,0,0,0-1.6,1.62,8.779,8.779,0,0,0-1.244,2.216,4.893,4.893,0,0,1-.256.631,13.085,13.085,0,0,0-.784,3.12l-.1,1.6" transform="translate(14.482 40.863)" fill="#d7934a"/>
      <path id="Path_494" data-name="Path 494" d="M7.492.256,9.368.375c1.568.119,3.12.222,4.688.273l.8.068a18.073,18.073,0,0,0,1.875.119L18.88.9h.136c1.074.136,2.148.085,3.222.136s2.063.034,3.086.034l9.683.034c1.654,0,3.307-.034,4.978-.051h.8a.29.29,0,0,1,.256.256A17.474,17.474,0,0,1,40.8,3.444a8.967,8.967,0,0,0-.119,1.074,18.393,18.393,0,0,1-.2,1.875,5.22,5.22,0,0,0-.068.528c-.1,1.21-.256,2.4-.426,3.6a1.325,1.325,0,0,0-.034.273c-.085,1.517-.324,3.034-.375,4.552a14.251,14.251,0,0,1-.136,1.875,6.956,6.956,0,0,0-.051.8c-.051.938-.085,1.875-.2,2.813-.051.392-.068.8-.085,1.21a6.235,6.235,0,0,1-.051.8c-.2,1.057-.188,2.148-.426,3.188a17.938,17.938,0,0,0-.375,2.932c-.017.222-.068.443-.1.665-.222,1.466-.511,2.915-.7,4.381-.085.614-.188,1.244-.29,1.858s-.17,1.142-.256,1.722-.222,1.33-.341,1.978-.307,1.585-.46,2.37c-.2,1.108-.392,2.2-.614,3.307-.136.665-.2,1.33-.375,1.978s-.239,1.33-.358,1.978c-.188.972-.392,1.926-.614,2.9-.085.358-.136.7-.2,1.057-.324,1.534-.648,3.069-1.074,4.569a.58.58,0,0,1-.477.409h-.528c-1.568-.051-3.137,0-4.705,0L19.085,58.1H16.647a9.226,9.226,0,0,1-1.466-.085,9.056,9.056,0,0,0-1.466-.1H11.277c-1.7-.1-3.41-.119-5.1-.068a16.962,16.962,0,0,1-2.012-.051.46.46,0,0,1-.239-.085.58.58,0,0,1-.136-.239,1.313,1.313,0,0,1-.068-.256c-.153-1.023-.392-2.029-.443-3.052s-.2-1.96-.307-2.932-.17-1.79-.222-2.676a1.909,1.909,0,0,0-.017-.273,22.9,22.9,0,0,1-.222-2.4c-.068-.8-.085-1.7-.188-2.54a12.379,12.379,0,0,1-.068-1.347A22.123,22.123,0,0,0,2.105,39.7,14.454,14.454,0,0,1,2,38.238a22.272,22.272,0,0,0-.188-2.813,11.86,11.86,0,0,1-.068-2.148c-.017-.716-.051-1.79-.068-2.694a3.284,3.284,0,0,0-.017-.409c-.153-1.3-.119-2.591-.188-3.887-.034-.767-.068-1.517-.1-2.284-.068-1.21-.119-2.421-.222-3.614s-.188-2.864-.222-4.3a19.553,19.553,0,0,0-.153-2.012c-.034-.307-.034-.631-.068-.938a22.857,22.857,0,0,0-.2-2.4,7.686,7.686,0,0,1-.068-.8C.383,8.779.315,7.62.2,6.461S.111,4.313.06,3.239c-.017-.409-.017-.8-.051-1.21A9.58,9.58,0,0,1,.094.29.443.443,0,0,1,.366.034L.759,0,2.242.051l3.495.2L7.475.307ZM7,25.179a20.661,20.661,0,0,0,.477,4.262,10.432,10.432,0,0,0,.256,1.04c.222.682.46,1.347.75,2.012a7.552,7.552,0,0,0,.7,1.3,6.171,6.171,0,0,0,.58.733c.222.222.426.46.631.7a4.944,4.944,0,0,0,1.091.989,27.329,27.329,0,0,0,2.813,1.824,7.553,7.553,0,0,0,2.165,1.057,2.83,2.83,0,0,1,.494.222,3.461,3.461,0,0,0,.9.273,9.053,9.053,0,0,0,1.995.171h.955c.8-.017,1.6-.188,2.4-.273a12.428,12.428,0,0,0,7.774-5.336A12.241,12.241,0,0,0,32.5,31.163l.17-.511a14.149,14.149,0,0,0,.8-3.256,4.842,4.842,0,0,1,.085-.528,7.058,7.058,0,0,0,.136-1.466c0-.665-.017-1.347-.034-2.012a12.309,12.309,0,0,0-.222-1.466,10.228,10.228,0,0,0-.563-2.063,13.909,13.909,0,0,0-1.125-2.284,6.8,6.8,0,0,0-1.96-2.182L28.052,14.2l-.358-.188a13.16,13.16,0,0,0-2.779-.989,11.133,11.133,0,0,0-2.25-.358L22,12.632a22.791,22.791,0,0,0-2.421.051c-1.006.17-2.046.256-3.052.494a9.767,9.767,0,0,0-3.682,1.551c-.256.188-.528.341-.784.511l-1.108.767a7.6,7.6,0,0,0-1.6,1.62,8.779,8.779,0,0,0-1.244,2.216,4.893,4.893,0,0,1-.256.631,13.085,13.085,0,0,0-.784,3.12Z" transform="translate(14.482 40.863)" fill="none" stroke="#c6893f" stroke-miterlimit="10" stroke-width="0.17"/>
      <path id="Path_495" data-name="Path 495" d="M3.4.29c.818.017,1.79.153,2.762.256a.511.511,0,0,1,.392.477,1.458,1.458,0,0,1,0,.273c-.017.085-.017.358-.051.528A5.4,5.4,0,0,0,6.5,2.9c.051.886.085,1.79.136,2.676s.068,1.79.119,2.676c.017.222.017.443.051.665a14.253,14.253,0,0,1,.136,1.875,10.5,10.5,0,0,0,.119,1.466A13.5,13.5,0,0,1,7.2,14a19.967,19.967,0,0,0,.153,2.012,17.757,17.757,0,0,1,.1,1.875c.017.631.051,1.517.068,2.284a4.449,4.449,0,0,0,.034.528,25.724,25.724,0,0,1,.2,2.949c.017.494.051.989.1,1.466.119,1.244.153,2.506.17,3.75.017.8.034,1.62.1,2.421.1,1.381.153,2.779.153,4.16a12.565,12.565,0,0,0,.085,1.466c.068.528.085,1.074.119,1.6a29.543,29.543,0,0,0,.222,3.256,7.586,7.586,0,0,1,.051.8c.017.528.034,1.074.068,1.6S8.9,45.687,9,46.438c.051.358.068.716.085,1.074.034.665.085,1.347.17,2.012a14.421,14.421,0,0,1,.1,1.466,13.093,13.093,0,0,0,.153,1.739,3.07,3.07,0,0,1,.051.392c.051,1.023.256,2.046.341,3.069a13.513,13.513,0,0,0,.239,1.449,3.274,3.274,0,0,1,.017.392.375.375,0,0,1-.256.273l-.409.034-1.6-.051-2.284-.119a.494.494,0,0,1-.307-.239,3.937,3.937,0,0,1-.17-.648c-.1-.886-.324-1.756-.375-2.659a1.654,1.654,0,0,0-.051-.392c-.2-.648-.2-1.33-.375-1.978a4.21,4.21,0,0,1-.068-.528c-.017-.136-.017-.273-.034-.409-.068-.528-.17-1.057-.222-1.6a15.869,15.869,0,0,0-.188-1.6,1.484,1.484,0,0,1-.034-.273c-.051-1.62-.358-3.2-.375-4.824a6.426,6.426,0,0,0-.068-.8c-.1-.75-.153-1.517-.188-2.267a10.519,10.519,0,0,0-.085-1.074,19.593,19.593,0,0,1-.17-2.012c-.034-.682-.068-.886-.119-1.33s-.068-.443-.085-.665c-.051-.767-.051-1.517-.153-2.284s-.153-1.415-.2-2.131q-.026-.537-.1-1.074A17.027,17.027,0,0,1,2.082,27.5a17.375,17.375,0,0,0-.153-1.875,19.706,19.706,0,0,1-.153-2.284,10.586,10.586,0,0,0-.119-1.466q-.077-.537-.1-1.074a16.047,16.047,0,0,0-.188-2.012c-.034-.273-.051-.528-.068-.8-.051-.75-.085-1.517-.2-2.267a12.189,12.189,0,0,1-.085-1.347,20.007,20.007,0,0,0-.17-2.012c-.051-.392-.085-.8-.1-1.21a11.745,11.745,0,0,0-.17-1.6,6.58,6.58,0,0,1-.085-.8,13.333,13.333,0,0,0-.188-1.6,5.132,5.132,0,0,1-.085-.8Q.156,5.268.139,4.194C.122,3.563.1,2.949.054,2.318A11.3,11.3,0,0,1,.037.307.392.392,0,0,1,.292.034,1.16,1.16,0,0,1,.548,0L3.4.2" transform="translate(5.776 40.079)" fill="#d7934a"/>
      <path id="Path_496" data-name="Path 496" d="M3.4.29c.818.017,1.79.153,2.762.256a.511.511,0,0,1,.392.477,1.458,1.458,0,0,1,0,.273c-.017.085-.017.358-.051.528A5.4,5.4,0,0,0,6.5,2.9c.051.886.085,1.79.136,2.676s.068,1.79.119,2.676c.017.222.017.443.051.665a14.253,14.253,0,0,1,.136,1.875,10.5,10.5,0,0,0,.119,1.466A13.5,13.5,0,0,1,7.2,14a19.967,19.967,0,0,0,.153,2.012,17.757,17.757,0,0,1,.1,1.875c.017.631.051,1.517.068,2.284a4.449,4.449,0,0,0,.034.528,25.724,25.724,0,0,1,.2,2.949c.017.494.051.989.1,1.466.119,1.244.153,2.506.17,3.75.017.8.034,1.62.1,2.421.1,1.381.153,2.779.153,4.16a12.565,12.565,0,0,0,.085,1.466c.068.528.085,1.074.119,1.6a29.543,29.543,0,0,0,.222,3.256,7.586,7.586,0,0,1,.051.8c.017.528.034,1.074.068,1.6S8.9,45.687,9,46.438c.051.358.068.716.085,1.074.034.665.085,1.347.17,2.012a14.421,14.421,0,0,1,.1,1.466,13.093,13.093,0,0,0,.153,1.739,3.07,3.07,0,0,1,.051.392c.051,1.023.256,2.046.341,3.069a13.513,13.513,0,0,0,.239,1.449,3.274,3.274,0,0,1,.017.392.375.375,0,0,1-.256.273l-.409.034-1.6-.051-2.284-.119a.494.494,0,0,1-.307-.239,3.937,3.937,0,0,1-.17-.648c-.1-.886-.324-1.756-.375-2.659a1.654,1.654,0,0,0-.051-.392c-.2-.648-.2-1.33-.375-1.978a4.21,4.21,0,0,1-.068-.528c-.017-.136-.017-.273-.034-.409-.068-.528-.17-1.057-.222-1.6a15.869,15.869,0,0,0-.188-1.6,1.484,1.484,0,0,1-.034-.273c-.051-1.62-.358-3.2-.375-4.824a6.426,6.426,0,0,0-.068-.8c-.1-.75-.153-1.517-.188-2.267a10.519,10.519,0,0,0-.085-1.074,19.593,19.593,0,0,1-.17-2.012c-.034-.682-.068-.886-.119-1.33s-.068-.443-.085-.665c-.051-.767-.051-1.517-.153-2.284s-.153-1.415-.2-2.131q-.026-.537-.1-1.074A17.027,17.027,0,0,1,2.082,27.5a17.375,17.375,0,0,0-.153-1.875,19.706,19.706,0,0,1-.153-2.284,10.586,10.586,0,0,0-.119-1.466q-.077-.537-.1-1.074a16.047,16.047,0,0,0-.188-2.012c-.034-.273-.051-.528-.068-.8-.051-.75-.085-1.517-.2-2.267a12.189,12.189,0,0,1-.085-1.347,20.007,20.007,0,0,0-.17-2.012c-.051-.392-.085-.8-.1-1.21a11.745,11.745,0,0,0-.17-1.6,6.58,6.58,0,0,1-.085-.8,13.333,13.333,0,0,0-.188-1.6,5.132,5.132,0,0,1-.085-.8Q.156,5.268.139,4.194C.122,3.563.1,2.949.054,2.318A11.3,11.3,0,0,1,.037.307.392.392,0,0,1,.292.034,1.16,1.16,0,0,1,.548,0Z" transform="translate(5.776 40.079)" fill="none" stroke="#c6893f" stroke-miterlimit="10" stroke-width="0.17"/>
      <path id="Path_497" data-name="Path 497" d="M27.52,7.694l.426.273a7.092,7.092,0,0,1,1.108.75,5.252,5.252,0,0,0,.767.546,14.7,14.7,0,0,0,1.773.938l.256.085a.75.75,0,0,0,.528.017,6.525,6.525,0,0,1,.75-.273,11.149,11.149,0,0,1,1.279-.409.528.528,0,0,1,.358.136l.153.222a6.938,6.938,0,0,1,.546,1.227c.222.631.426,1.279.631,1.909a.341.341,0,0,1-.256.392H35.7l-2.676.1A38.891,38.891,0,0,1,29,13.49c-.58-.034-1.159-.051-1.739-.068l-2.012-.068-.938-.034a13.518,13.518,0,0,1-2.012-.1,4.977,4.977,0,0,0-.665-.034l-4.569-.051L15.058,13.1c-.716-.034-1.432-.017-2.148-.017a21.181,21.181,0,0,1-2.676-.1H9.961l-3.887-.1a12.137,12.137,0,0,1-2.012-.153,7.245,7.245,0,0,0-1.347-.085H.567a1.006,1.006,0,0,1-.392-.085.465.465,0,0,1-.153-.2A.2.2,0,0,1,0,12.212l.239-1.193c.034-.222.1-.443.119-.665a13.076,13.076,0,0,1,.6-2.608A35.816,35.816,0,0,1,3.466,1.813,1.739,1.739,0,0,1,3.7,1.506a.136.136,0,0,1,.119-.034,1.483,1.483,0,0,1,.716.358l.989.921a.955.955,0,0,0,.614.222,1.057,1.057,0,0,0,.648-.153l1.193-.852A24.957,24.957,0,0,1,11.052.04a.426.426,0,0,1,.392.017l.222.136a2.745,2.745,0,0,0,.341.222,7.347,7.347,0,0,1,1.756,1.21,8.967,8.967,0,0,0,2.131,1.4,12.045,12.045,0,0,0,1.347.614,5.5,5.5,0,0,1,.955.477,1.517,1.517,0,0,0,.511.153l.8.051A1.091,1.091,0,0,0,19.9,4.25l.614-.273a6.973,6.973,0,0,1,1.517-.511,11.625,11.625,0,0,0,1.551-.409.682.682,0,0,1,.528.017c.852.409,1.722.733,2.557,1.193a3.256,3.256,0,0,1,.443.307.494.494,0,0,1,.2.341c.034.392.068.8.1,1.193a2.049,2.049,0,0,1-.017.528c0,.17-.017.358-.017.528a.921.921,0,0,0,.153.528" transform="translate(18.509 20.434)" fill="#fff"/>
      <path id="Path_498" data-name="Path 498" d="M32.035,4.722H24.551A16.754,16.754,0,0,1,22.4,4.637a7.243,7.243,0,0,0-.938-.034c-1.483,0-2.949-.085-4.432-.119A9.913,9.913,0,0,1,15.959,4.4a14.867,14.867,0,0,0-1.875-.136c-.9,0-1.79-.068-2.676-.153l-1.347-.085L6.566,3.87l-1.6-.119L3.344,3.7l-1.6-.085a11.606,11.606,0,0,1-1.466-.17A.358.358,0,0,1,0,3.052c.034-.273.068-.528.119-.8a4.636,4.636,0,0,1,.153-.511A9.393,9.393,0,0,0,.633.307.426.426,0,0,1,1.026,0h.136a6.937,6.937,0,0,0,1.33.119c.307,0,.631,0,.938.017,1.125.1,2.233.1,3.358.1A5.9,5.9,0,0,1,8,.324,7.33,7.33,0,0,0,9.464.443q1.943,0,3.887.153c.989.068,1.978.085,2.949.1,1.347.017,2.694.051,4.023.034C21.977.716,23.631.767,25.3.818L26.512.9a12.79,12.79,0,0,0,1.347.068c.716,0,1.432,0,2.148.051.307.017.631.017.938.017a16.654,16.654,0,0,1,2.421.136,11.043,11.043,0,0,0,1.347.068H42.23a5.146,5.146,0,0,0,.665-.017,33.909,33.909,0,0,1,4.16-.119l.392.051a.375.375,0,0,1,.29.239,10.04,10.04,0,0,1,.358,1.3c.068.443.188.869.273,1.313a.29.29,0,0,1-.188.307,3.171,3.171,0,0,1-.511.136,9.4,9.4,0,0,1-1.21.085L43.372,4.6a23,23,0,0,0-2.421.1,6.288,6.288,0,0,1-.8.017l-4.432.068H34.78c-.989-.051-1.978-.034-2.728-.017" transform="translate(14.283 35.05)" fill="#fff"/>
      <path id="Path_499" data-name="Path 499" d="M3.307.119H3.8A26.041,26.041,0,0,1,6.614.341a8.114,8.114,0,0,1,1.4.443,11.593,11.593,0,0,1,2.608,1.858l.886.818a8.763,8.763,0,0,1,1.006,1.091l.494.631a14.456,14.456,0,0,1,2.131,3.563c.443,1.023.869,2.063,1.227,3.12A13.964,13.964,0,0,1,17,14.047a3.316,3.316,0,0,0,.1.392,8.7,8.7,0,0,1,.358,2.387,5.184,5.184,0,0,0,.153,1.057,2.693,2.693,0,0,1,.017,1.057.246.246,0,0,1-.426.1,1.04,1.04,0,0,1-.188-.358l-.7-2.029a13.537,13.537,0,0,0-.665-1.62c-.188-.358-.324-.733-.511-1.091a5.575,5.575,0,0,0-.341-.58,1.227,1.227,0,0,0-.75-.528.6.6,0,0,0-.256-.034,8.6,8.6,0,0,0-1.943.511,7.4,7.4,0,0,1-1.142.409.29.29,0,0,1-.256-.034,16.166,16.166,0,0,1-2.046-1.5.545.545,0,0,1-.17-.358c-.034-.443-.068-.886-.085-1.347-.017-.17,0-.358-.017-.528a2.469,2.469,0,0,0-.068-.392A1.057,1.057,0,0,0,7.723,9L6.666,8.183A2.182,2.182,0,0,0,6.308,8C5.506,7.6,4.671,7.279,3.87,6.87a6.58,6.58,0,0,0-1.534-.477,1.006,1.006,0,0,0-.528.034,1.654,1.654,0,0,0-.375.136,3.222,3.222,0,0,1-1.125.392.29.29,0,0,1-.29-.222A.921.921,0,0,1,0,6.6,15.051,15.051,0,0,0,.188,4.859c.017-.222.051-.443.085-.665s.119-.7.17-1.057C.563,2.3.682,1.449.8.614A2.693,2.693,0,0,1,.921.239.529.529,0,0,1,1.227,0L2.3.034,3.29.119" transform="translate(39.925 14.729)" fill="#d4e8e1"/>
      <path id="Path_500" data-name="Path 500" d="M10.918.019a21.583,21.583,0,0,1,2.847.068c.852.1,1.688.136,2.54.17l.665.051c.034,0,.1.034.1.051A.256.256,0,0,1,16.987.6l-.2.17-1.159.665a15.343,15.343,0,0,0-3.2,2.421,4.177,4.177,0,0,1-.7.631.341.341,0,0,1-.256.051l-.375-.119-.392-.1a.955.955,0,0,0-.767.153A19.484,19.484,0,0,0,7.9,6.224L6.469,7.639A14.969,14.969,0,0,0,5.276,8.918a2.677,2.677,0,0,1-1.159.869L4,9.838a1.3,1.3,0,0,0-.7.784,12.616,12.616,0,0,0-.546,1.79c-.17.784-.392,1.568-.6,2.336-.29,1.074-.58,2.165-.852,3.239a.477.477,0,0,1-.392.307,1.432,1.432,0,0,1-.665-.051.409.409,0,0,1-.188-.188A.665.665,0,0,1,.008,17.8a19.848,19.848,0,0,1,.085-2.012A2.354,2.354,0,0,1,.161,15.4c.119-.614.256-1.227.375-1.841A16.417,16.417,0,0,1,1.951,9.242a25.843,25.843,0,0,1,2.114-3.58A23.508,23.508,0,0,1,6.776,2.7c.273-.222.563-.443.852-.648A31.843,31.843,0,0,1,10.918.019" transform="translate(9.999 14.267)" fill="#d4e8e1"/>
      <path id="Path_501" data-name="Path 501" d="M4.558,3.79C3.126,3.722,1.711,3.654.3,3.467c-.222-.034-.324-.17-.29-.341s.1-.443.153-.648c.2-.682.426-1.364.6-2.046A1.347,1.347,0,0,1,.876.193.239.239,0,0,1,1.08.04,6.529,6.529,0,0,1,3.075.125a6.1,6.1,0,0,0,.8.119C4.814.33,5.751.4,6.672.5s1.6.085,2.4.1a1.6,1.6,0,0,1,.784.17.375.375,0,0,1,.153.2.546.546,0,0,1,0,.256c-.034.17-.1.341-.153.511A12.53,12.53,0,0,0,9.485,3.3a2.114,2.114,0,0,1-.2.631.358.358,0,0,1-.307.2L6.979,4l-1.33-.119L4.592,3.79" transform="translate(2.636 34.209)" fill="#fff"/>
      <path id="Path_502" data-name="Path 502" d="M9.652,2.459c-.017.153-.051.375-.068.6a9.224,9.224,0,0,1-.307,1.722c-.034.119-.2.222-.307.17L8.016,4.47a4.892,4.892,0,0,1-.784-.528,2.626,2.626,0,0,0-.7-.392l-.256-.068a2.08,2.08,0,0,0-1.3.239,40.634,40.634,0,0,0-3.631,2.3.511.511,0,0,1-.631,0L.072,5.544a.239.239,0,0,1,0-.341l.375-.375A7.464,7.464,0,0,1,2.8,3.072c.733-.426,1.466-.852,2.2-1.3A20.047,20.047,0,0,1,7.879.345,5.507,5.507,0,0,1,8.9.038a1.773,1.773,0,0,1,.8.017.443.443,0,0,1,.341.494L9.738,2.135l-.068.341" transform="translate(23.829 14.606)" fill="#d4e8e1"/>
      <path id="Path_503" data-name="Path 503" d="M.068,8.993l.068-.358c.085-.75.222-1.5.375-2.25.256-1.227.409-2.472.58-3.716.1-.716.239-1.415.375-2.114A1.023,1.023,0,0,1,1.637.2a.392.392,0,0,1,.2-.153A1.637,1.637,0,0,1,2.506.026l.921.2a.392.392,0,0,1,.29.392C3.7.708,3.7.793,3.682.9A29.44,29.44,0,0,0,2.966,5.26a10.092,10.092,0,0,1-.17,1.33,6.521,6.521,0,0,0-.085.665,7.362,7.362,0,0,1-.1.8,10.264,10.264,0,0,0-.2,1.466c-.017.136-.034.273-.051.392a.614.614,0,0,1-.443.443,8.251,8.251,0,0,1-1.6,0A.443.443,0,0,1,0,9.965l.1-.972" transform="translate(36.652 2.19)" fill="#0d754c"/>
      <path id="Path_504" data-name="Path 504" d="M.068,8.993l.068-.358c.085-.75.222-1.5.375-2.25.256-1.227.409-2.472.58-3.716.1-.716.239-1.415.375-2.114A1.023,1.023,0,0,1,1.637.2a.392.392,0,0,1,.2-.153A1.637,1.637,0,0,1,2.506.026l.921.2a.392.392,0,0,1,.29.392C3.7.708,3.7.793,3.682.9A29.44,29.44,0,0,0,2.966,5.26a10.092,10.092,0,0,1-.17,1.33,6.521,6.521,0,0,0-.085.665,7.362,7.362,0,0,1-.1.8,10.264,10.264,0,0,0-.2,1.466c-.017.136-.034.273-.051.392a.614.614,0,0,1-.443.443,8.251,8.251,0,0,1-1.6,0A.443.443,0,0,1,0,9.965Z" transform="translate(36.652 2.19)" fill="none" stroke="#0d744b" stroke-miterlimit="10" stroke-width="0.17"/>
      <path id="Path_505" data-name="Path 505" d="M5.4,0a1.3,1.3,0,0,1-.017.392c-.153.409-.341.818-.511,1.244a33.567,33.567,0,0,0-1.415,3.9,17.815,17.815,0,0,0-.494,2.216,13.3,13.3,0,0,1-.477,2.216.409.409,0,0,1-.409.273l-1.739-.1-.119-.034a.29.29,0,0,1-.188-.17A.375.375,0,0,1,0,9.819,5.421,5.421,0,0,1,.17,8.49C.307,7.978.443,7.45.6,6.938s.392-1.466.563-2.2c.085-.341.188-.682.29-1.04a.716.716,0,0,1,.239-.324l.1-.085a5.592,5.592,0,0,0,1.5-1.313A16.64,16.64,0,0,1,5.2.1.324.324,0,0,1,5.455.034Z" transform="translate(13.723 22.588)" fill="#fff"/>
      <path id="Path_506" data-name="Path 506" d="M2.262,0l.886.034a.392.392,0,0,1,.341.341V.511a5.129,5.129,0,0,1-.051.528c-.17.972-.273,1.943-.426,2.915s-.273,1.756-.341,2.659c-.017.273-.068.528-.1.8a.341.341,0,0,1-.375.273l-.886-.307A5.677,5.677,0,0,1,.353,6.9a.607.607,0,0,1-.341-.665L.335,4.671a4.744,4.744,0,0,0,.1-.528A30.843,30.843,0,0,1,1,.852L1.1.324a.477.477,0,0,1,.29-.256L2.245,0" transform="translate(35.038 14.576)" fill="#0d754c"/>
      <path id="Path_507" data-name="Path 507" d="M2.262,0l.886.034a.392.392,0,0,1,.341.341V.511a5.129,5.129,0,0,1-.051.528c-.17.972-.273,1.943-.426,2.915s-.273,1.756-.341,2.659c-.017.273-.068.528-.1.8a.341.341,0,0,1-.375.273l-.886-.307A5.677,5.677,0,0,1,.353,6.9a.607.607,0,0,1-.341-.665L.335,4.671a4.744,4.744,0,0,0,.1-.528A30.843,30.843,0,0,1,1,.852L1.1.324a.477.477,0,0,1,.29-.256Z" transform="translate(35.038 14.576)" fill="none" stroke="#0d744b" stroke-miterlimit="10" stroke-width="0.17"/>
      <path id="Path_508" data-name="Path 508" d="M.051.121Q.068-.015.136,0C.119.019.119.053.1.053L0,.087Z" transform="translate(19.11 22.501)" fill="#fff"/>
      <path id="Path_509" data-name="Path 509" d="M0,12.576l.1-1.6a13.084,13.084,0,0,1,.784-3.12c.085-.2.17-.409.256-.631A8.779,8.779,0,0,1,2.387,5.007a7.6,7.6,0,0,1,1.6-1.62L5.1,2.62c.256-.171.546-.324.784-.511A9.542,9.542,0,0,1,9.564.557C10.569.319,11.592.233,12.615.063A22.792,22.792,0,0,1,15.036.012L15.7.046A11.152,11.152,0,0,1,17.951.4a13.161,13.161,0,0,1,2.779.989l.358.188,1.773,1.227a6.8,6.8,0,0,1,1.96,2.182,13.928,13.928,0,0,1,1.125,2.284,10.229,10.229,0,0,1,.563,2.063,10.638,10.638,0,0,1,.222,1.449c0,.494.034,1.347.034,2.012a7.057,7.057,0,0,1-.136,1.466,4.8,4.8,0,0,0-.085.528,14.15,14.15,0,0,1-.8,3.256l-.17.511a12.258,12.258,0,0,1-1.517,2.983A12.428,12.428,0,0,1,16.2,26.879c-.8.085-1.585.256-2.4.273h-.938a9.053,9.053,0,0,1-1.995-.17,3.462,3.462,0,0,1-.9-.273,2.828,2.828,0,0,0-.494-.222A7.552,7.552,0,0,1,7.3,25.43a23.327,23.327,0,0,1-2.813-1.824,4.944,4.944,0,0,1-1.091-.989c-.2-.239-.409-.477-.631-.7a6.189,6.189,0,0,1-.58-.733,7.535,7.535,0,0,1-.7-1.3c-.29-.665-.511-1.33-.75-2.012a10.432,10.432,0,0,1-.256-1.04A20.661,20.661,0,0,1,0,12.576M14.149,2.194l-1.193.051c-.972.188-1.943.256-2.915.46a7.911,7.911,0,0,0-1.892.648A21.274,21.274,0,0,0,5.643,4.9a7.376,7.376,0,0,0-.631.511,5.1,5.1,0,0,0-.477.477A7.2,7.2,0,0,0,3.188,8.041c-.085.2-.153.426-.239.631A10.813,10.813,0,0,0,2.284,11.4a9.155,9.155,0,0,0-.051,2.148c.051.631.136,1.244.222,1.858a15.583,15.583,0,0,0,.75,2.847,5.815,5.815,0,0,0,1.5,2.506,11.043,11.043,0,0,0,1.585,1.432l.546.392a11.32,11.32,0,0,0,1.244.8,5.138,5.138,0,0,1,.58.341,6.6,6.6,0,0,0,1.568.75,3.223,3.223,0,0,1,.375.136,4.347,4.347,0,0,0,1.551.375,7.6,7.6,0,0,0,1.875-.017l.8-.085a7.453,7.453,0,0,0,1.585-.29,10.041,10.041,0,0,0,4.16-2.37,11.729,11.729,0,0,0,2.182-2.864L22.946,19a15.6,15.6,0,0,0,1.381-4.6c.017-.17.051-.358.085-.528a9.922,9.922,0,0,0-.017-3.478c-.017-.136-.051-.256-.068-.392a8.421,8.421,0,0,0-.716-2.438,3.529,3.529,0,0,0-.46-.818,3.87,3.87,0,0,1-.477-.8,2.949,2.949,0,0,0-.835-1.04,16.176,16.176,0,0,0-2.216-1.5,4.721,4.721,0,0,0-.733-.324,13.45,13.45,0,0,0-4.739-.835" transform="translate(21.48 53.467)"/>
      <path id="Path_510" data-name="Path 510" d="M11.957.051A13.45,13.45,0,0,1,16.7.886a4.724,4.724,0,0,1,.733.324,16.176,16.176,0,0,1,2.216,1.5,2.949,2.949,0,0,1,.835,1.04,3.869,3.869,0,0,0,.477.8,3.529,3.529,0,0,1,.46.818,8.422,8.422,0,0,1,.716,2.438A2.678,2.678,0,0,0,22.2,8.2a9.922,9.922,0,0,1,.017,3.478c-.034.171-.068.358-.085.528a15.45,15.45,0,0,1-1.381,4.6l-.188.358a11.729,11.729,0,0,1-2.182,2.864,10.041,10.041,0,0,1-4.16,2.37,7.452,7.452,0,0,1-1.585.29l-.8.085a7.6,7.6,0,0,1-1.875.017,4.347,4.347,0,0,1-1.551-.375,3.228,3.228,0,0,0-.375-.136,6.6,6.6,0,0,1-1.568-.75c-.188-.119-.392-.222-.58-.341a11.318,11.318,0,0,1-1.244-.8L4.1,20a4.821,4.821,0,0,1-1.585-1.432,9.231,9.231,0,0,1-1.5-2.506,15.581,15.581,0,0,1-.75-2.847C.177,12.6.091,11.967.04,11.354A9.155,9.155,0,0,1,.091,9.206,10.133,10.133,0,0,1,.756,6.478c.085-.2.17-.409.239-.631A7.2,7.2,0,0,1,2.342,3.7a5.1,5.1,0,0,1,.477-.477,7.379,7.379,0,0,1,.631-.511A21.274,21.274,0,0,1,5.956,1.159,7.911,7.911,0,0,1,7.848.511C8.82.29,9.791.239,10.763.051L11.957,0" transform="translate(23.673 55.609)" fill="#00643c"/>
      <path id="Path_511" data-name="Path 511" d="M11.957,0A13.45,13.45,0,0,1,16.7.836a4.721,4.721,0,0,1,.733.324,16.179,16.179,0,0,1,2.216,1.5A2.949,2.949,0,0,1,20.48,3.7a3.87,3.87,0,0,0,.477.8,3.529,3.529,0,0,1,.46.818,8.422,8.422,0,0,1,.716,2.438,2.678,2.678,0,0,0,.068.392,9.922,9.922,0,0,1,.017,3.478c-.034.17-.068.358-.085.528a15.45,15.45,0,0,1-1.381,4.6l-.188.358a11.728,11.728,0,0,1-2.182,2.864,10.041,10.041,0,0,1-4.16,2.37,7.447,7.447,0,0,1-1.585.29l-.8.085a7.6,7.6,0,0,1-1.875.017,4.347,4.347,0,0,1-1.551-.375,3.216,3.216,0,0,0-.375-.136,6.6,6.6,0,0,1-1.568-.75c-.188-.119-.392-.222-.58-.341a11.318,11.318,0,0,1-1.244-.8L4.1,19.946a4.821,4.821,0,0,1-1.585-1.432,9.23,9.23,0,0,1-1.5-2.506,15.58,15.58,0,0,1-.75-2.847C.177,12.547.091,11.916.04,11.3A9.155,9.155,0,0,1,.091,9.155,10.133,10.133,0,0,1,.756,6.427c.085-.2.17-.409.239-.631A7.194,7.194,0,0,1,2.342,3.648a5.1,5.1,0,0,1,.477-.477A7.384,7.384,0,0,1,3.45,2.66,21.274,21.274,0,0,1,5.956,1.108,7.909,7.909,0,0,1,7.848.46C8.82.239,9.791.188,10.763,0Z" transform="translate(23.673 55.66)" fill="none" stroke="#006341" stroke-miterlimit="10" stroke-width="0.17"/>
    </g>
  </g>
</svg>
