<svg xmlns="http://www.w3.org/2000/svg" xmlns:xlink="http://www.w3.org/1999/xlink" width="43.125" height="47.88" viewBox="0 0 43.125 47.88">
  <defs>
    <clipPath id="clip-path">
      <rect id="Rectangle_11" data-name="Rectangle 11" width="43.125" height="47.88" fill="none"/>
    </clipPath>
  </defs>
  <g id="Scroll_UP" transform="translate(21.562 23.94)">
    <g id="Group_29" data-name="Group 29" transform="translate(-21.562 -23.94)" clip-path="url(#clip-path)">
      <path id="Path_475" data-name="Path 475" d="M14.876.151l.233.027a7.654,7.654,0,0,0,1.084.055h.864c1.619-.027,3.237.055,4.869.11,1.262.137,2.524.082,3.786.151a18.073,18.073,0,0,1,1.934.123,4.376,4.376,0,0,0,.535.027l3.031.1L31.857.8a9.944,9.944,0,0,0,1.509.082c.974,0,1.948.055,2.922.123l.974.041,2.812.123a.933.933,0,0,1,.727.425,1.6,1.6,0,0,1,.206.37,5.46,5.46,0,0,0,.233.6A22.521,22.521,0,0,1,42.3,5.171c.178.48.329.96.508,1.427a6.075,6.075,0,0,1,.288,1.042,1.07,1.07,0,0,1-.082.631.6.6,0,0,1-.11.192c-.219.233-.453.466-.686.686a.782.782,0,0,1-.494.206,5.446,5.446,0,0,1-1.289-.082,3.305,3.305,0,0,0-.645-.055.343.343,0,0,0-.315.247,3.512,3.512,0,0,0-.082.425c-.027.219-.027.425-.041.645a18.763,18.763,0,0,1-.165,1.934,6.405,6.405,0,0,0-.069,1.084v.754a3.771,3.771,0,0,1-.027.425c-.041.357-.11.713-.151,1.07s-.055.713-.1,1.07-.165.919-.247,1.385c-.027.178-.069.357-.1.535-.082.713-.165,1.427-.247,2.153a2.745,2.745,0,0,1-.041.315c-.11.453-.123.933-.219,1.385-.151.741-.178,1.509-.329,2.249a4.322,4.322,0,0,0-.055.535,6.459,6.459,0,0,1-.11.85,3.126,3.126,0,0,0-.069.425c-.055.686-.137,1.358-.233,2.044-.055.425-.082.864-.165,1.289a3.964,3.964,0,0,0-.055.425c-.082.892-.219,1.783-.384,2.675-.027.137-.041.288-.055.425a10.369,10.369,0,0,1-.151,1.07c-.041.206-.055.425-.082.645l-.137,1.07a2.853,2.853,0,0,0-.041.315c-.027.8-.192,1.577-.274,2.359-.041.4-.123.782-.165,1.18a9.408,9.408,0,0,1-.178,1.18,1.1,1.1,0,0,0-.027.219c-.027.754-.206,1.5-.288,2.249s-.151,1.221-.261,1.824c-.069.384-.137.782-.178,1.18a1.166,1.166,0,0,1-.192.508.96.96,0,0,1-.8.48q-1.029.027-2.057,0c-.754-.014-1.509.014-2.263.014H27.8c-1.3.082-2.592-.041-3.9-.027h-.219c-2.016-.137-4.033-.178-6.049-.178-1.221,0-2.455-.014-3.676-.055H12.545a3.334,3.334,0,0,1-.535,0c-.576-.1-1.152-.082-1.728-.123a.823.823,0,0,1-.686-.466A2.64,2.64,0,0,1,9.2,45.9c-.165-.631-.178-1.289-.315-1.92-.165-1.317-.439-2.634-.631-3.95-.027-.137-.041-.288-.055-.425a10.219,10.219,0,0,0-.178-1.18c-.123-.562-.192-1.138-.288-1.7s-.137-1-.247-1.5c-.151-.7-.165-1.427-.343-2.14l-.247-2.153c-.027-.247-.041-.508-.082-.754a12.043,12.043,0,0,1-.165-1.289c-.027-.247-.055-.494-.1-.754l-.1-.754c-.027-.178-.027-.357-.069-.535-.11-.494-.123-1-.219-1.5s-.123-.933-.206-1.385-.151-1.221-.3-1.811a4.862,4.862,0,0,1-.1-.645c-.082-.6-.178-1.207-.315-1.811-.041-.206-.082-.425-.11-.631-.11-.6-.206-1.207-.329-1.811s-.247-1.193-.315-1.811-.206-1.207-.315-1.811a4.225,4.225,0,0,1-.082-.425c-.055-.686-.165-1.358-.233-2.044-.041-.4-.082-.782-.151-1.18a6.474,6.474,0,0,1-.069-.645c-.014-.178-.014-.357-.027-.535-.027-.48-.178-.535-.617-.535H1.036a.8.8,0,0,1-.48-.233,2.538,2.538,0,0,1-.508-.686A.754.754,0,0,1-.02,6.831,9.5,9.5,0,0,0,.172,5.775,8.518,8.518,0,0,1,.406,4.718,14.4,14.4,0,0,0,.762,3.251c.082-.425.192-.85.315-1.262A12.231,12.231,0,0,0,1.434.631.653.653,0,0,1,2.147.055h.329L4.3,0C4.808,0,5.316.014,5.81.041S7.031.082,7.648.069a28.873,28.873,0,0,1,3.031.082,8.751,8.751,0,0,0,1.084.014A25.979,25.979,0,0,1,14.876.151m13.3,45.936v.027l1.193-.027c.686-.014,1.372-.055,2.057-.027.425.014.864,0,1.289-.014a.384.384,0,0,0,.329-.233,5.747,5.747,0,0,0,.165-.741c.069-.713.247-1.427.288-2.14a16.06,16.06,0,0,0,.219-1.715,2.91,2.91,0,0,1,.055-.315c.151-.782.233-1.564.329-2.346s.233-1.564.274-2.359c.014-.137.041-.288.069-.425s.069-.494.1-.754c.055-.754.219-1.5.3-2.249.027-.247.11-.494.123-.741.069-.713.233-1.427.274-2.14a2.524,2.524,0,0,1,.069-.425,6.72,6.72,0,0,0,.11-.85c.027-.247.041-.508.082-.754s.11-.782.137-1.18a4.169,4.169,0,0,1,.055-.535c.178-.85.206-1.715.357-2.565.069-.384.1-.782.178-1.18s.082-.864.192-1.276a2.14,2.14,0,0,0,.069-.425c.027-.727.192-1.427.247-2.14a3.868,3.868,0,0,1,.055-.425,19.452,19.452,0,0,0,.384-2.675,3.869,3.869,0,0,1,.069-.535,5.624,5.624,0,0,0,.1-1.289,9.286,9.286,0,0,1,.082-1.619c.123-.823.137-1.646.192-2.483V9.313a.384.384,0,0,0-.206-.261,2.112,2.112,0,0,0-.315-.069l-1.18-.069a6.139,6.139,0,0,1-.864-.082,7.7,7.7,0,0,0-1.18-.1q-1.084-.014-2.153-.123c-.686-.069-1.372-.1-2.044-.123L28.7,8.463a6.982,6.982,0,0,1-.974-.082A8.34,8.34,0,0,0,26.439,8.3L25.15,8.271c-.535-.027-1.084-.041-1.619-.027a9.519,9.519,0,0,1-.974-.014,5.185,5.185,0,0,0-1.07,0,5.884,5.884,0,0,1-1.509-.014,3.168,3.168,0,0,0-.864-.014,6.611,6.611,0,0,1-1.619,0,1.824,1.824,0,0,0-.425,0,9.176,9.176,0,0,1-2.153,0,1.8,1.8,0,0,0-.425-.014,13.292,13.292,0,0,1-1.619.055H11.365l-.329.027h-.11l-.1.055a.178.178,0,0,0-.11.178,3.361,3.361,0,0,0,.137,1.166,10.1,10.1,0,0,1,.357,2.126,6.35,6.35,0,0,0,.055.645c.069.494.1,1,.137,1.509.027.288.041.576.082.864a32.038,32.038,0,0,1,.4,3.21c.014.137.041.288.055.425l.123.96.1.864.123,1.07.069.645c.041.357.1.713.123,1.07s.082.782.137,1.18c.1.672.151,1.358.274,2.03.027.137.027.288.041.425a3.95,3.95,0,0,0,.055.425c.178.85.219,1.715.357,2.565a22.385,22.385,0,0,1,.288,2.249,2.373,2.373,0,0,0,.055.315c.11.562.137,1.138.274,1.7a15.843,15.843,0,0,1,.261,1.92c.027.219.055.425.1.645.137.809.315,1.619.384,2.455.014.11.041.219.055.315s.082.562.123.85c.1.713.206,1.427.247,2.14a4.2,4.2,0,0,0,.055.425c.137.892.329,1.769.384,2.675a1.015,1.015,0,0,0,.027.11.425.425,0,0,0,.288.288,10.025,10.025,0,0,0,1.509.069h.864c1.289.041,2.592.014,3.9.069.576.027,1.152,0,1.728.082a4.579,4.579,0,0,0,.535.014l.864.027c.713.041,1.44.041,2.153.027h.754M31.5,6.8a8.326,8.326,0,0,1,.837.055,11.069,11.069,0,0,0,1.619.11,7.133,7.133,0,0,1,1.18.069,13.346,13.346,0,0,0,1.4.123,16.625,16.625,0,0,1,1.934.165h.219l1.084.055,1.18.082a.224.224,0,0,0,.165-.233c-.123-.343-.233-.686-.357-1.015L40.17,4.6a10.3,10.3,0,0,0-.617-1.372.535.535,0,0,0-.412-.3l-.535-.055-1.728-.055c-.288-.014-.576,0-.864-.041A25.759,25.759,0,0,0,33,2.62c-.425,0-.864-.027-1.289-.055C30.6,2.469,29.484,2.4,28.36,2.4a11.179,11.179,0,0,1-1.289-.069c-.315-.041-.645-.069-.974-.082l-3.676-.1a10.7,10.7,0,0,1-1.193-.069c-.247-.027-.508-.041-.754-.055-1.152-.041-2.3-.082-3.457-.055a21.549,21.549,0,0,1-2.922-.11,4.622,4.622,0,0,0-.974,0,19,19,0,0,1-2.812.041H9.993a.192.192,0,0,0-.1.041.453.453,0,0,0-.192.274,12.4,12.4,0,0,0-.233,1.385,8.2,8.2,0,0,1-.123.85c-.123.562-.178,1.138-.288,1.7a.334.334,0,0,0,.261.288,9.78,9.78,0,0,0,1.838.027A16.542,16.542,0,0,1,13,6.406h1.4c.549-.014,1.084.055,1.619.082a11.7,11.7,0,0,1,1.728-.082q.6.021,1.193,0a9.108,9.108,0,0,1,1.4.027,4.513,4.513,0,0,0,.864,0l.974-.041H23.9a8.134,8.134,0,0,1,.864.041,12.4,12.4,0,0,0,1.4.069,17.818,17.818,0,0,1,2.373.151l.425.041,2.51.1M7.223,8.285H6.139L5.6,8.312a.274.274,0,0,0-.219.206,2.678,2.678,0,0,0-.027.315c-.014.439.123.85.151,1.289.055.864.233,1.715.288,2.579a4.6,4.6,0,0,0,.082.535c.123.713.261,1.413.357,2.126s.178,1.07.288,1.591.233,1.125.315,1.7c.027.219.069.425.11.645a18.407,18.407,0,0,1,.343,2.016c.014.137.041.288.069.425.165.809.288,1.632.384,2.455a2.29,2.29,0,0,0,.041.315c.11.453.123.933.206,1.385s.151.919.192,1.385c.014.178.055.357.082.535s.055.357.069.535a9.369,9.369,0,0,0,.178,1.413,4.28,4.28,0,0,1,.055.425c.123,1.07.206,2.153.411,3.21s.357,2.277.521,3.415c.137.919.357,1.838.453,2.771.055.425.11.864.206,1.276s.151,1.221.315,1.811a10.343,10.343,0,0,1,.288,2.03,3.443,3.443,0,0,0,.165.741.357.357,0,0,0,.3.261,14.334,14.334,0,0,0,2.263.014.178.178,0,0,0,.11-.027.32.32,0,0,0,.137-.165,2.606,2.606,0,0,0-.041-.864c-.11-.645-.247-1.276-.3-1.92s-.151-1.358-.233-2.044-.247-1.413-.288-2.14a1.3,1.3,0,0,0-.069-.315c-.11-.713-.261-1.413-.357-2.126s-.178-1.07-.219-1.6c-.014-.178-.069-.357-.1-.535-.1-.6-.219-1.207-.274-1.811-.069-.864-.247-1.715-.343-2.565a10.535,10.535,0,0,1-.151-1.18c-.055-.4-.123-.782-.178-1.18-.014-.11-.014-.219-.027-.329s-.069-.494-.1-.754-.069-.425-.082-.645c-.082-.864-.261-1.715-.288-2.579a2.2,2.2,0,0,0-.041-.315c-.041-.315-.082-.645-.123-.96s-.027-.439-.069-.645c-.082-.425-.11-.85-.151-1.289s-.069-.494-.1-.754a5.308,5.308,0,0,1-.069-.535c-.027-.727-.137-1.427-.233-2.153-.055-.425-.137-.85-.192-1.276s-.082-.933-.11-1.4a1.811,1.811,0,0,0-.027-.219,6.927,6.927,0,0,1-.11-1.18A8.285,8.285,0,0,0,9.211,10.4c-.151-.59-.247-1.193-.357-1.8a.494.494,0,0,0-.069-.206.274.274,0,0,0-.165-.123l-1.4-.027m-2.647-1.7H6.633l.329-.027a.411.411,0,0,0,.3-.274c.151-.782.247-1.564.425-2.346A2.181,2.181,0,0,0,7.73,3.58c.041-.508.11-1,.178-1.5a.151.151,0,0,0-.027-.11L7.73,1.838,4.274,1.756c-.357,0-.713.027-1.084.055a.261.261,0,0,0-.178.11,1.66,1.66,0,0,0-.178.411c-.11.411-.247.823-.329,1.248a14.938,14.938,0,0,1-.37,1.577c-.1.315-.137.631-.219.946a.357.357,0,0,0,.014.206.192.192,0,0,0,.151.137,24.21,24.21,0,0,0,2.483.082" transform="translate(0.033)"/>
      <path id="Path_476" data-name="Path 476" d="M95.825,97.712h-.754c-.727.027-1.44.014-2.153-.027l-.864-.027a4.553,4.553,0,0,1-.535-.014c-.576-.082-1.152-.055-1.728-.082-1.289-.055-2.592-.041-3.9-.069H85.03a10.026,10.026,0,0,1-1.509-.069.425.425,0,0,1-.288-.288,1.072,1.072,0,0,1-.027-.11c-.069-.905-.261-1.783-.384-2.675a4.127,4.127,0,0,1-.055-.425,18.573,18.573,0,0,0-.247-2.14c-.041-.288-.082-.576-.123-.85s-.041-.206-.055-.315c-.069-.823-.247-1.632-.384-2.455-.041-.219-.069-.425-.1-.645-.069-.645-.233-1.276-.261-1.92a10.494,10.494,0,0,0-.274-1.7,2.345,2.345,0,0,1-.055-.315,22.388,22.388,0,0,0-.288-2.249c-.123-.85-.178-1.715-.357-2.565a3.95,3.95,0,0,1-.055-.425c-.014-.137-.014-.288-.041-.425-.123-.672-.178-1.358-.274-2.03-.055-.4-.11-.782-.137-1.18S80.037,74,80,73.639l-.069-.645-.123-1.07-.1-.864-.123-.96c-.014-.137-.055-.288-.055-.425a31.55,31.55,0,0,0-.4-3.21c-.041-.288-.055-.576-.082-.864-.041-.508-.069-1-.137-1.509a6.31,6.31,0,0,1-.055-.645,10.1,10.1,0,0,0-.357-2.126,3.36,3.36,0,0,1-.137-1.166.178.178,0,0,1,.11-.178l.1-.055h.11l.329-.027h1.509a13.291,13.291,0,0,0,1.619-.055,1.811,1.811,0,0,1,.425.014,9.163,9.163,0,0,0,2.153,0,1.824,1.824,0,0,1,.425,0,6.611,6.611,0,0,0,1.619,0,3.168,3.168,0,0,1,.864.014,5.885,5.885,0,0,0,1.509.014,5.2,5.2,0,0,1,1.07,0,9.519,9.519,0,0,0,.974.014c.535,0,1.084.014,1.619.027l1.3.027a8.339,8.339,0,0,1,1.289.082,6.955,6.955,0,0,0,.974.082l.974.041c.686.027,1.372.055,2.044.123s1.44.11,2.153.123a7.7,7.7,0,0,1,1.18.1c.288.041.576.055.864.082l1.18.069a2.085,2.085,0,0,1,.315.069.384.384,0,0,1,.192.247,1.171,1.171,0,0,1,0,.219c-.055.823-.082,1.66-.192,2.483a9.3,9.3,0,0,0-.082,1.619,5.609,5.609,0,0,1-.1,1.289,3.908,3.908,0,0,0-.069.535,19.464,19.464,0,0,1-.384,2.675,3.88,3.88,0,0,0-.055.425c-.055.713-.219,1.427-.247,2.14a2.14,2.14,0,0,1-.069.425c-.11.425-.11.864-.192,1.276s-.11.782-.178,1.18c-.151.85-.178,1.715-.357,2.565a4.17,4.17,0,0,0-.055.535,11.081,11.081,0,0,1-.137,1.18,6.87,6.87,0,0,0-.082.754,6.748,6.748,0,0,1-.11.85,2.537,2.537,0,0,0-.069.425c-.027.727-.206,1.427-.274,2.14-.027.247-.11.494-.123.741-.082.754-.247,1.5-.3,2.249a7.57,7.57,0,0,1-.1.754c-.041.261-.055.288-.069.425-.041.8-.178,1.577-.274,2.359s-.178,1.577-.329,2.346a2.935,2.935,0,0,0-.055.315,16.019,16.019,0,0,1-.219,1.715c-.041.727-.219,1.427-.288,2.14a5.746,5.746,0,0,1-.165.741.384.384,0,0,1-.329.233c-.425,0-.864.027-1.289.014-.686-.027-1.372.014-2.057.027l-1.193.027v-.055M82.643,77.631a11.468,11.468,0,0,0,.137,2,13.758,13.758,0,0,0,.6,2.291,7.846,7.846,0,0,0,.988,1.92,6.035,6.035,0,0,0,2.25,1.934l.974.466a6.473,6.473,0,0,0,.7.274,10,10,0,0,0,2.647.466l1.084.055a2.414,2.414,0,0,0,.535-.027c.315-.055.645-.069.96-.151a9.465,9.465,0,0,0,.905-.343l.617-.219a6.625,6.625,0,0,0,1.084-.48A4.9,4.9,0,0,0,97.251,85a11.851,11.851,0,0,0,1.138-1.289A6.913,6.913,0,0,0,99.4,81.814c.151-.439.288-.892.411-1.344a15.923,15.923,0,0,0,.274-1.591,6.981,6.981,0,0,0,0-2.25,3.349,3.349,0,0,1-.041-.425,3.443,3.443,0,0,0-.274-1.262,2.14,2.14,0,0,1-.11-.3,11.194,11.194,0,0,0-.658-1.715,6.981,6.981,0,0,0-.892-1.468c-.151-.192-.3-.4-.48-.59a8.444,8.444,0,0,0-.6-.617,7.585,7.585,0,0,0-1.865-1.262,8.368,8.368,0,0,0-2.14-.713,7.819,7.819,0,0,0-2.263-.1,9.944,9.944,0,0,0-3.114.837,6.749,6.749,0,0,0-1.372.837,10.138,10.138,0,0,0-1,.974,10.616,10.616,0,0,0-1.468,1.865,5.4,5.4,0,0,0-.453.85,8.82,8.82,0,0,0-.494,1.769,14.567,14.567,0,0,0-.219,2.291" transform="translate(-67.61 -51.624)" fill="#fff"/>
      <path id="Path_477" data-name="Path 477" d="M88.892,18.549l-2.51-.1-.425-.041a17.832,17.832,0,0,0-2.373-.151,12.454,12.454,0,0,1-1.4-.069,8.107,8.107,0,0,0-.864-.041H79.579l-.974.041a4.485,4.485,0,0,1-.864,0,9.122,9.122,0,0,0-1.4-.027q-.6.021-1.193,0a11.7,11.7,0,0,0-1.728.082,15.786,15.786,0,0,0-1.619-.082H70.4a16.515,16.515,0,0,0-1.838.069,9.807,9.807,0,0,1-1.824-.041c-.137-.014-.288-.178-.261-.288.11-.562.151-1.138.288-1.7a8.205,8.205,0,0,0,.123-.85,12.412,12.412,0,0,1,.206-1.385.453.453,0,0,1,.192-.247.192.192,0,0,1,.1-.041H67.7a19,19,0,0,0,2.812-.041,4.623,4.623,0,0,1,.974,0,21.6,21.6,0,0,0,2.922.11c1.152-.027,2.3.014,3.457.055.247.014.508.027.754.055a10.727,10.727,0,0,0,1.193.069l3.676.1c.329.014.645.041.974.082a11.179,11.179,0,0,0,1.289.069c1.111,0,2.236.069,3.347.165.425.041.864.055,1.289.055a25.732,25.732,0,0,1,3.018.151c.288.041.576.027.864.041L96,14.64l.535.055a.535.535,0,0,1,.411.3,10.259,10.259,0,0,1,.617,1.372l.59,1.619.357,1.029c.027.082-.082.247-.165.233l-1.18-.082-1.084-.055H95.86a16.666,16.666,0,0,0-1.934-.165,13.346,13.346,0,0,1-1.4-.123,7.161,7.161,0,0,0-1.18-.069,11.055,11.055,0,0,1-1.619-.151,8.284,8.284,0,0,0-.837-.055" transform="translate(-57.358 -11.745)" fill="#fff"/>
      <path id="Path_478" data-name="Path 478" d="M41.159,60.4l1.4.027a.274.274,0,0,1,.165.123.494.494,0,0,1,.069.206c.1.6.192,1.207.343,1.8a8.271,8.271,0,0,1,.261,1.811,6.913,6.913,0,0,0,.11,1.18,1.838,1.838,0,0,1,.027.219c.041.466.055.933.11,1.4s.137.85.192,1.276c.1.713.206,1.427.233,2.153a5.309,5.309,0,0,0,.069.535c.027.247.069.494.1.754s.082.864.151,1.289c.041.206.041.425.069.645s.082.645.123.96a2.852,2.852,0,0,1,.041.315c.041.864.206,1.715.288,2.579.014.219.055.425.082.645s.069.494.1.754.014.219.027.329c.055.4.123.782.178,1.18a10.561,10.561,0,0,0,.151,1.18c.082.864.261,1.7.343,2.565.055.6.178,1.207.274,1.811.027.178.082.357.1.535.041.535.137,1.07.219,1.6s.247,1.413.357,2.126c.014.11.055.206.069.315.041.727.219,1.427.288,2.14s.165,1.358.233,2.044.206,1.276.3,1.92a2.606,2.606,0,0,1,.041.864c-.014.055-.082.11-.137.165a.178.178,0,0,1-.11.027,14.334,14.334,0,0,1-2.263-.014.357.357,0,0,1-.3-.261,3.456,3.456,0,0,1-.165-.741c-.041-.686-.219-1.344-.288-2.03a16.514,16.514,0,0,0-.315-1.811c-.123-.6-.151-.85-.206-1.276-.11-.933-.315-1.838-.453-2.771-.165-1.138-.411-2.263-.521-3.415s-.288-2.14-.411-3.21a4.239,4.239,0,0,0-.055-.425,9.383,9.383,0,0,1-.178-1.4c-.014-.178-.041-.357-.069-.535s-.069-.357-.082-.535c-.055-.466-.11-.933-.192-1.385s-.1-.933-.206-1.385a2.319,2.319,0,0,1-.041-.315c-.1-.823-.219-1.646-.384-2.455-.027-.137-.055-.288-.069-.425a18.421,18.421,0,0,0-.343-2.016c-.041-.206-.082-.425-.11-.645-.082-.576-.192-1.138-.315-1.7s-.219-1.056-.288-1.591-.219-1.468-.343-2.167a4.609,4.609,0,0,1-.082-.535c-.041-.864-.233-1.715-.288-2.579-.027-.425-.165-.85-.151-1.289a2.251,2.251,0,0,1,.027-.315.274.274,0,0,1,.219-.206l.535-.027h1.084" transform="translate(-33.903 -52.115)" fill="#fff"/>
      <path id="Path_479" data-name="Path 479" d="M16.89,17.656a24.208,24.208,0,0,1-2.483-.082.192.192,0,0,1-.151-.137.357.357,0,0,1-.014-.206c.069-.315.123-.645.219-.946a14.937,14.937,0,0,0,.37-1.577,9.429,9.429,0,0,1,.315-1.262,1.66,1.66,0,0,1,.178-.4.261.261,0,0,1,.178-.11,9.4,9.4,0,0,1,1.084-.055l3.457.082.151.137a.151.151,0,0,1,.027.11c-.069.494-.137,1-.178,1.5a2.181,2.181,0,0,1-.041.315c-.178.768-.261,1.564-.425,2.346a.412.412,0,0,1-.3.274l-.329.027H16.89" transform="translate(-12.281 -11.113)" fill="#fff"/>
      <path id="Path_480" data-name="Path 480" d="M109.414,130.063a14.581,14.581,0,0,1,.219-2.291,8.819,8.819,0,0,1,.494-1.769,5.39,5.39,0,0,1,.453-.85,10.6,10.6,0,0,1,1.468-1.865,10.123,10.123,0,0,1,1-.974,6.748,6.748,0,0,1,1.372-.837,9.944,9.944,0,0,1,3.114-.837,7.819,7.819,0,0,1,2.263.1,8.367,8.367,0,0,1,2.14.713,7.571,7.571,0,0,1,1.865,1.262c.206.192.411.411.6.617s.315.384.48.59a6.968,6.968,0,0,1,.892,1.468,11.221,11.221,0,0,1,.658,1.715,2.1,2.1,0,0,0,.11.3,3.456,3.456,0,0,1,.274,1.262,3.32,3.32,0,0,0,.041.425,6.982,6.982,0,0,1,0,2.249,15.421,15.421,0,0,1-.274,1.591,13.083,13.083,0,0,1-.412,1.344,6.913,6.913,0,0,1-1.015,1.893,11.837,11.837,0,0,1-1.138,1.289,4.9,4.9,0,0,1-1.125.823,6.64,6.64,0,0,1-1.084.48l-.617.219a9.4,9.4,0,0,1-.905.343c-.315.082-.645.1-.96.151a2.415,2.415,0,0,1-.535.027l-1.084-.055a10,10,0,0,1-2.647-.466,6.468,6.468,0,0,1-.7-.274l-.974-.466a6.035,6.035,0,0,1-2.277-1.948,7.846,7.846,0,0,1-.988-1.92,13.744,13.744,0,0,1-.6-2.291,11.467,11.467,0,0,1-.137-2m9.039,7.64h.1a4.2,4.2,0,0,0,2-.357,2.072,2.072,0,0,1,.411-.137l.892-.37a2.867,2.867,0,0,0,.878-.617q.391-.391.741-.782a5.583,5.583,0,0,0,1.07-1.865,10.425,10.425,0,0,0,.562-2.634,8.806,8.806,0,0,0-.219-2.784,12,12,0,0,0-.727-2.03,4.444,4.444,0,0,0-.48-.837l-.535-.686a5.98,5.98,0,0,0-2.826-1.907,3.961,3.961,0,0,0-.521-.165l-1.18-.178a1.866,1.866,0,0,0-.425,0,9.355,9.355,0,0,0-2.126.384,5.8,5.8,0,0,0-2,1.029c-.165.137-.329.288-.48.439l-.8.878a4.252,4.252,0,0,0-.617.878l-.4.768a3.5,3.5,0,0,0-.343,1.015c-.041.206-.055.425-.1.645a11.118,11.118,0,0,0-.11,3.018,2.016,2.016,0,0,0,.027.219,12.7,12.7,0,0,0,.645,2.4,4.878,4.878,0,0,0,1.742,2.291,3.139,3.139,0,0,0,.37.233c.384.192.768.4,1.166.562a7.3,7.3,0,0,0,2.195.535c.315.041.645.041,1.084.069" transform="translate(-94.381 -104.056)"/>
      <path id="Path_481" data-name="Path 481" d="M129.711,148.586c-.439-.027-.768-.027-1.084-.069a7.3,7.3,0,0,1-2.195-.535c-.4-.178-.782-.37-1.166-.562a3.14,3.14,0,0,1-.37-.233,4.968,4.968,0,0,1-1.742-2.291,12.7,12.7,0,0,1-.645-2.4,2.017,2.017,0,0,1-.027-.219,11.118,11.118,0,0,1,.11-3.018c.041-.206.055-.425.1-.645a3.5,3.5,0,0,1,.343-1.015l.4-.768a4.251,4.251,0,0,1,.617-.878l.8-.878c.151-.151.315-.3.48-.439a5.792,5.792,0,0,1,2-1.029,9.495,9.495,0,0,1,2.126-.384,1.867,1.867,0,0,1,.425,0l1.18.178a3.963,3.963,0,0,1,.521.165,5.98,5.98,0,0,1,2.826,1.907l.535.686a4.444,4.444,0,0,1,.48.837,12,12,0,0,1,.727,2.03,8.806,8.806,0,0,1,.219,2.784,10.424,10.424,0,0,1-.562,2.634,5.583,5.583,0,0,1-1.07,1.865,9.973,9.973,0,0,1-.741.782,2.867,2.867,0,0,1-.878.617l-.892.37c-.137.055-.274.082-.411.137a4.166,4.166,0,0,1-2,.357h-.1" transform="translate(-105.639 -114.94)" fill="#00643c"/>
      <path id="Path_482" data-name="Path 482" d="M129.711,148.586c-.439-.027-.768-.027-1.084-.069a7.3,7.3,0,0,1-2.195-.535c-.4-.178-.782-.37-1.166-.562a3.14,3.14,0,0,1-.37-.233,4.968,4.968,0,0,1-1.742-2.291,12.7,12.7,0,0,1-.645-2.4,2.017,2.017,0,0,1-.027-.219,11.118,11.118,0,0,1,.11-3.018c.041-.206.055-.425.1-.645a3.5,3.5,0,0,1,.343-1.015l.4-.768a4.251,4.251,0,0,1,.617-.878l.8-.878c.151-.151.315-.3.48-.439a5.792,5.792,0,0,1,2-1.029,9.495,9.495,0,0,1,2.126-.384,1.867,1.867,0,0,1,.425,0l1.18.178a3.963,3.963,0,0,1,.521.165,5.98,5.98,0,0,1,2.826,1.907l.535.686a4.444,4.444,0,0,1,.48.837,12,12,0,0,1,.727,2.03,8.806,8.806,0,0,1,.219,2.784,10.424,10.424,0,0,1-.562,2.634,5.583,5.583,0,0,1-1.07,1.865,9.973,9.973,0,0,1-.741.782,2.867,2.867,0,0,1-.878.617l-.892.37c-.137.055-.274.082-.411.137a4.166,4.166,0,0,1-2,.357Z" transform="translate(-105.639 -114.94)" fill="none" stroke="#006341" stroke-miterlimit="10" stroke-width="0.137"/>
      <path id="Path_483" data-name="Path 483" d="M150.138,147.4a13.048,13.048,0,0,0-2.181-2.332c-1.18-1.07-1.33-.892-2.373-1.811l-.082-.041a1.475,1.475,0,0,0-1.5.151c-.768,1.015-1,.919-1.811,2.016s-.645,1.3-1.5,2.455c-.165.233-.466.453-.425.7s.178.274.343.384h.055c.288.137.6.219.892.37s.274.151.384.1a1.345,1.345,0,0,0,.4-.37c.411-.549.425-.535.837-1.084s.85-1.92.837-1.234c-.014,2.016-.014,2.057.055,4.06s.165,1.961.233,3.964c.014.274-.1.617.1.8s.535.069.809.069v.027h.027v-.027c.288-.014.85.069,1.029-.123s.055-.535.055-.823c-.069-2.126-.027-2.112-.11-4.238s-.329-2.208-.4-4.293c-.027-.974.933.59,1.646,1.248l1.454,1.344c.206.192.4.507.658.494s.425-.343.617-.549.508-.4.494-.658-.37-.384-.549-.617" transform="translate(-121.032 -123.451)"/>
    </g>
  </g>
</svg>
