<svg xmlns="http://www.w3.org/2000/svg" xmlns:xlink="http://www.w3.org/1999/xlink" width="126.783" height="12.248" viewBox="0 0 126.783 12.248">
  <defs>
    <clipPath id="clip-path">
      <rect id="Rectangle_1" data-name="Rectangle 1" width="126.783" height="12.248" fill="none"/>
    </clipPath>
  </defs>
  <g id="Wordmark_B" data-name="Wordmark B" transform="translate(63.392 6.124)">
    <g id="Group_17" data-name="Group 17" transform="translate(-63.392 -6.124)" clip-path="url(#clip-path)">
      <path id="Path_219" data-name="Path 219" d="M352.882,7.621c0,3.641-2.04,5.581-5.841,5.581s-5.841-2-5.841-5.561V1.2h4.2V7.441c0,1.74.48,2.5,1.6,2.5s1.68-.7,1.68-2.68V1.2h4.2Z" transform="translate(-272.947 -0.96)"/>
      <path id="Path_220" data-name="Path 220" d="M67.881,4.181v8.782H63.661V4.181H60.1V1.2H71.442V4.181Z" transform="translate(-48.078 -0.96)"/>
      <path id="Path_221" data-name="Path 221" d="M124.721,3.88l-1.04,4.041h2.12Zm2.741,9.082-.7-2.16h-4l-.74,2.16H117.8L122.081,1.2h5.361l4.241,11.762Z" transform="translate(-94.236 -0.96)"/>
      <path id="Path_222" data-name="Path 222" d="M423.6,11.1l-1.26-3.061A4.209,4.209,0,0,1,419.6,9.1a2.825,2.825,0,0,1-2.76-3.041c0-1.68.98-3.1,2.7-3.1a4.581,4.581,0,0,1,2.8,1.14l1.26-2.981a9.882,9.882,0,0,0-4.741-1.12A5.932,5.932,0,0,0,412.6,6.035a6.047,6.047,0,0,0,6.381,6.2,8.518,8.518,0,0,0,4.621-1.16" transform="translate(-330.065 0.006)"/>
      <path id="Path_223" data-name="Path 223" d="M488.161,12.962,485.5,8.681v4.281h-4.1V1.2h4.1V5.5l2.48-4.3h4.6L488.721,7l4.361,5.961Z" transform="translate(-385.102 -0.96)"/>
      <path id="Path_224" data-name="Path 224" d="M4.941,12.242c2.66,0,5.441-.96,5.441-3.961s-2.3-3.441-4.1-3.841c-1.36-.3-2-.42-2-.98s.92-.78,1.4-.78a6.513,6.513,0,0,1,3.341,1.1L10.1,1.1A12.578,12.578,0,0,0,5.3,0C2.54,0,.36,1.34.36,4.021c0,2.2,1.68,3.061,3.521,3.521,1.28.32,2.1.42,2.1,1.04s-.62.82-1.24.82A5.481,5.481,0,0,1,1.32,8.142L0,10.742a9.242,9.242,0,0,0,4.941,1.52"/>
      <path id="Path_225" data-name="Path 225" d="M551.241,12.242c2.66,0,5.441-.96,5.441-3.961s-2.3-3.461-4.121-3.841c-1.36-.3-2-.42-2-.98s.92-.78,1.4-.78a6.513,6.513,0,0,1,3.341,1.1l1.1-2.68A12.664,12.664,0,0,0,551.6,0c-2.76,0-4.941,1.34-4.941,4.021,0,2.2,1.68,3.061,3.521,3.521,1.28.32,2.1.42,2.1,1.04s-.64.82-1.24.82a5.481,5.481,0,0,1-3.421-1.26l-1.32,2.6a9.242,9.242,0,0,0,4.941,1.5" transform="translate(-437.02 0)"/>
      <path id="Path_226" data-name="Path 226" d="M607.4,2.7h0a2.64,2.64,0,1,1,5.281-.02h0a2.64,2.64,0,1,1-5.281.02m4.9-.02h0a2.27,2.27,0,1,0-4.541.02h0a2.27,2.27,0,1,0,4.541-.02M609.02,1.26h1.2a1.12,1.12,0,0,1,.8.28.7.7,0,0,1,.22.52h0a.766.766,0,0,1-.7.78l.84,1.08h-.5L610.1,2.9h-.68v1.02h-.4Zm1.16,1.32c.38,0,.64-.18.64-.48h0c0-.28-.24-.46-.62-.46h-.78V2.6Z" transform="translate(-485.898 -0.04)"/>
      <path id="Path_227" data-name="Path 227" d="M208.042,8.481a3.533,3.533,0,0,0,2.22-3.341c0-2.781-1.9-4.041-4.6-4.041H199.3V12.882h4.081V9.4h1.04l2.12,3.481h4.4Zm-1.9-3.321a1.149,1.149,0,0,1-1.3,1.22H203.4V3.941h1.46a1.128,1.128,0,0,1,1.28,1.2Z" transform="translate(-159.433 -0.88)"/>
      <path id="Path_228" data-name="Path 228" d="M280.182,7.041a2.474,2.474,0,0,0,2.28-2.62c0-2-1.5-3.121-4.141-3.121H271.6V13.042h6.441c3.121,0,4.661-1.1,4.661-3.321a2.579,2.579,0,0,0-2.54-2.7M275.641,3.84h1.48c.78,0,1.28.34,1.28,1.02V4.9c0,.66-.5,1.04-1.3,1.04h-1.46Zm2.821,5.581c0,.7-.5,1.1-1.34,1.1h-1.5v-2.2h1.52c.8,0,1.32.36,1.32,1.08Z" transform="translate(-217.27 -1.04)"/>
    </g>
  </g>
</svg>
